G04*
G04 #@! TF.GenerationSoftware,Altium Limited,Altium Designer,24.2.2 (26)*
G04*
G04 Layer_Physical_Order=2*
G04 Layer_Color=36540*
%FSLAX43Y43*%
%MOMM*%
G71*
G04*
G04 #@! TF.SameCoordinates,1F1FED76-AB6C-4830-BD65-6DDC81D4C714*
G04*
G04*
G04 #@! TF.FilePolarity,Positive*
G04*
G01*
G75*
%ADD10C,0.127*%
%ADD11C,0.203*%
%ADD27C,0.800*%
G04:AMPARAMS|DCode=65|XSize=1.2mm|YSize=1.8mm|CornerRadius=0.18mm|HoleSize=0mm|Usage=FLASHONLY|Rotation=90.000|XOffset=0mm|YOffset=0mm|HoleType=Round|Shape=RoundedRectangle|*
%AMROUNDEDRECTD65*
21,1,1.200,1.440,0,0,90.0*
21,1,0.840,1.800,0,0,90.0*
1,1,0.360,0.720,0.420*
1,1,0.360,0.720,-0.420*
1,1,0.360,-0.720,-0.420*
1,1,0.360,-0.720,0.420*
%
%ADD65ROUNDEDRECTD65*%
G04:AMPARAMS|DCode=66|XSize=1.2mm|YSize=2.1mm|CornerRadius=0.18mm|HoleSize=0mm|Usage=FLASHONLY|Rotation=270.000|XOffset=0mm|YOffset=0mm|HoleType=Round|Shape=RoundedRectangle|*
%AMROUNDEDRECTD66*
21,1,1.200,1.740,0,0,270.0*
21,1,0.840,2.100,0,0,270.0*
1,1,0.360,-0.870,-0.420*
1,1,0.360,-0.870,0.420*
1,1,0.360,0.870,0.420*
1,1,0.360,0.870,-0.420*
%
%ADD66ROUNDEDRECTD66*%
%ADD67C,0.508*%
G36*
X72500Y5488D02*
X72591Y5470D01*
X72668Y5418D01*
X72720Y5341D01*
X72738Y5250D01*
X72741D01*
X72741Y5250D01*
Y3500D01*
X72761Y3401D01*
X72817Y3317D01*
X72901Y3261D01*
X73000Y3241D01*
X85300D01*
Y3238D01*
X85391Y3220D01*
X85468Y3168D01*
X85520Y3091D01*
X85538Y3000D01*
X85541D01*
X85541Y3000D01*
Y434D01*
X85439Y392D01*
X85363Y468D01*
X85160Y552D01*
X84940D01*
X84737Y468D01*
X84582Y313D01*
X84498Y110D01*
Y-110D01*
X84582Y-313D01*
X84737Y-468D01*
X84940Y-552D01*
X85160D01*
X85363Y-468D01*
X85439Y-392D01*
X85541Y-434D01*
Y-3000D01*
X85538D01*
X85520Y-3091D01*
X85468Y-3168D01*
X85391Y-3220D01*
X85300Y-3238D01*
Y-3241D01*
X85300Y-3241D01*
X84572D01*
X84552Y-3139D01*
X84663Y-3093D01*
X84818Y-2938D01*
X84902Y-2735D01*
Y-2515D01*
X84818Y-2312D01*
X84663Y-2157D01*
X84460Y-2073D01*
X84240D01*
X84037Y-2157D01*
X83882Y-2312D01*
X83798Y-2515D01*
Y-2735D01*
X83882Y-2938D01*
X84037Y-3093D01*
X84148Y-3139D01*
X84128Y-3241D01*
X73000D01*
X72901Y-3261D01*
X72817Y-3317D01*
X72761Y-3401D01*
X72741Y-3500D01*
Y-5250D01*
X72738D01*
X72720Y-5341D01*
X72668Y-5418D01*
X72591Y-5470D01*
X72500Y-5488D01*
Y-5491D01*
X72500Y-5491D01*
X6690Y-5491D01*
Y-3725D01*
X6642Y-3608D01*
X6525Y-3560D01*
X1290D01*
Y3535D01*
X6525D01*
X6642Y3583D01*
X6690Y3700D01*
Y5491D01*
X6784Y5491D01*
X72500Y5491D01*
Y5488D01*
D02*
G37*
G36*
X6525Y3700D02*
X1125D01*
Y-3725D01*
X6525D01*
Y-5491D01*
X-698D01*
X-800Y-5488D01*
X-800D01*
X-893Y-5468D01*
X-968Y-5418D01*
X-1020Y-5341D01*
X-1038Y-5250D01*
X-1041D01*
X-1041Y-5250D01*
Y5250D01*
X-1038D01*
X-1020Y5341D01*
X-968Y5418D01*
X-891Y5470D01*
X-800Y5488D01*
Y5491D01*
X6525D01*
Y3700D01*
D02*
G37*
%LPC*%
G36*
X8930Y5256D02*
X8769D01*
X8619Y5194D01*
X8505Y5080D01*
X8443Y4930D01*
Y4769D01*
X8505Y4619D01*
X8619Y4505D01*
X8769Y4443D01*
X8930D01*
X9080Y4505D01*
X9194Y4619D01*
X9256Y4769D01*
Y4930D01*
X9194Y5080D01*
X9080Y5194D01*
X8930Y5256D01*
D02*
G37*
G36*
X28931Y4381D02*
X28769D01*
X28620Y4320D01*
X28513Y4212D01*
X28405Y4320D01*
X28256Y4381D01*
X28094D01*
X27945Y4320D01*
X27837Y4212D01*
X27730Y4320D01*
X27581Y4381D01*
X27419D01*
X27270Y4320D01*
X27163Y4212D01*
X27055Y4320D01*
X26906Y4381D01*
X26744D01*
X26595Y4320D01*
X26480Y4205D01*
X26419Y4056D01*
Y3894D01*
X26480Y3745D01*
X26595Y3630D01*
X26744Y3569D01*
X26906D01*
X27055Y3630D01*
X27163Y3738D01*
X27270Y3630D01*
X27419Y3569D01*
X27581D01*
X27730Y3630D01*
X27837Y3738D01*
X27945Y3630D01*
X28094Y3569D01*
X28256D01*
X28405Y3630D01*
X28513Y3738D01*
X28620Y3630D01*
X28769Y3569D01*
X28931D01*
X29080Y3630D01*
X29195Y3745D01*
X29256Y3894D01*
Y4056D01*
X29195Y4205D01*
X29080Y4320D01*
X28931Y4381D01*
D02*
G37*
G36*
X24731Y3931D02*
X24569D01*
X24420Y3870D01*
X24366Y3816D01*
X24300Y3760D01*
X24234Y3816D01*
X24180Y3870D01*
X24031Y3931D01*
X23869D01*
X23720Y3870D01*
X23605Y3755D01*
X23544Y3606D01*
Y3444D01*
X23605Y3295D01*
X23720Y3180D01*
X23869Y3119D01*
X24031D01*
X24180Y3180D01*
X24234Y3234D01*
X24300Y3290D01*
X24366Y3234D01*
X24420Y3180D01*
X24569Y3119D01*
X24731D01*
X24880Y3180D01*
X24995Y3295D01*
X25056Y3444D01*
Y3606D01*
X24995Y3755D01*
X24880Y3870D01*
X24731Y3931D01*
D02*
G37*
G36*
X20556Y4406D02*
X20394D01*
X20245Y4345D01*
X20130Y4230D01*
X20069Y4081D01*
Y3919D01*
X20130Y3770D01*
X20245Y3655D01*
X20394Y3594D01*
X20556D01*
X20705Y3655D01*
X20820Y3770D01*
X20881Y3919D01*
Y4081D01*
X20820Y4230D01*
X20705Y4345D01*
X20556Y4406D01*
D02*
G37*
G36*
X9731Y4281D02*
X9569D01*
X9420Y4220D01*
X9305Y4105D01*
X9244Y3956D01*
Y3794D01*
X9305Y3645D01*
X9420Y3530D01*
X9569Y3469D01*
X9731D01*
X9880Y3530D01*
X9995Y3645D01*
X10056Y3794D01*
Y3956D01*
X9995Y4105D01*
X9880Y4220D01*
X9731Y4281D01*
D02*
G37*
G36*
X18731Y3456D02*
X18569D01*
X18420Y3395D01*
X18305Y3280D01*
X18244Y3131D01*
Y2969D01*
X18305Y2820D01*
X18420Y2705D01*
X18569Y2644D01*
X18731D01*
X18880Y2705D01*
X18995Y2820D01*
X19056Y2969D01*
Y3131D01*
X18995Y3280D01*
X18880Y3395D01*
X18731Y3456D01*
D02*
G37*
G36*
X4980Y3429D02*
X4774Y3388D01*
X4599Y3271D01*
X4482Y3096D01*
X4441Y2890D01*
X4482Y2684D01*
X4599Y2509D01*
X4774Y2392D01*
X4980Y2351D01*
X5186Y2392D01*
X5361Y2509D01*
X5478Y2684D01*
X5519Y2890D01*
X5478Y3096D01*
X5361Y3271D01*
X5186Y3388D01*
X4980Y3429D01*
D02*
G37*
G36*
X29756Y3656D02*
X29594D01*
X29445Y3595D01*
X29330Y3480D01*
X29269Y3331D01*
Y3250D01*
X29234Y3164D01*
X29175Y3156D01*
X29069D01*
X28920Y3095D01*
X28805Y2980D01*
X28744Y2831D01*
Y2669D01*
X28805Y2520D01*
X28920Y2405D01*
X29069Y2344D01*
X29231D01*
X29380Y2405D01*
X29495Y2520D01*
X29556Y2669D01*
Y2750D01*
X29591Y2836D01*
X29650Y2844D01*
X29756D01*
X29905Y2905D01*
X30020Y3020D01*
X30081Y3169D01*
Y3331D01*
X30020Y3480D01*
X29905Y3595D01*
X29756Y3656D01*
D02*
G37*
G36*
X30856Y2506D02*
X30694D01*
X30545Y2445D01*
X30465Y2365D01*
X30400Y2341D01*
X30335Y2365D01*
X30255Y2445D01*
X30106Y2506D01*
X29944D01*
X29795Y2445D01*
X29680Y2330D01*
X29619Y2181D01*
Y2019D01*
X29680Y1870D01*
X29795Y1755D01*
X29944Y1694D01*
X30106D01*
X30255Y1755D01*
X30335Y1835D01*
X30400Y1859D01*
X30465Y1835D01*
X30545Y1755D01*
X30694Y1694D01*
X30856D01*
X31005Y1755D01*
X31120Y1870D01*
X31181Y2019D01*
Y2181D01*
X31120Y2330D01*
X31005Y2445D01*
X30856Y2506D01*
D02*
G37*
G36*
X26481Y2731D02*
X26319D01*
X26170Y2670D01*
X26055Y2555D01*
X25994Y2406D01*
Y2244D01*
X26055Y2095D01*
X26170Y1980D01*
X26319Y1919D01*
X26481D01*
X26630Y1980D01*
X26745Y2095D01*
X26806Y2244D01*
Y2406D01*
X26745Y2555D01*
X26630Y2670D01*
X26481Y2731D01*
D02*
G37*
G36*
X7479Y3187D02*
X7271D01*
X7071Y3134D01*
X6892Y3030D01*
X6745Y2883D01*
X6641Y2704D01*
X6588Y2504D01*
Y2296D01*
X6641Y2096D01*
X6745Y1917D01*
X6892Y1770D01*
X7071Y1666D01*
X7271Y1613D01*
X7479D01*
X7679Y1666D01*
X7858Y1770D01*
X8005Y1917D01*
X8109Y2096D01*
X8162Y2296D01*
Y2504D01*
X8109Y2704D01*
X8005Y2883D01*
X7858Y3030D01*
X7679Y3134D01*
X7479Y3187D01*
D02*
G37*
G36*
X22131Y3481D02*
X21969D01*
X21820Y3420D01*
X21705Y3305D01*
X21644Y3156D01*
Y2994D01*
X21705Y2845D01*
X21820Y2730D01*
X21969Y2669D01*
X22068D01*
X22094Y2631D01*
Y2469D01*
X22155Y2320D01*
X22270Y2205D01*
X22419Y2144D01*
X22500D01*
X22582Y2132D01*
X22594Y2050D01*
Y1969D01*
X22655Y1820D01*
X22770Y1705D01*
X22919Y1644D01*
X23081D01*
X23230Y1705D01*
X23244Y1719D01*
X23343Y1699D01*
X23355Y1670D01*
X23470Y1555D01*
X23619Y1494D01*
X23781D01*
X23930Y1555D01*
X24045Y1670D01*
X24106Y1819D01*
Y1981D01*
X24045Y2130D01*
X23930Y2245D01*
X23781Y2306D01*
X23619D01*
X23470Y2245D01*
X23456Y2231D01*
X23357Y2251D01*
X23345Y2280D01*
X23230Y2395D01*
X23081Y2456D01*
X23000D01*
X22918Y2468D01*
X22906Y2550D01*
Y2631D01*
X22845Y2780D01*
X22730Y2895D01*
X22581Y2956D01*
X22482D01*
X22456Y2994D01*
Y3156D01*
X22395Y3305D01*
X22280Y3420D01*
X22131Y3481D01*
D02*
G37*
G36*
X65060Y2417D02*
X64840D01*
X64637Y2333D01*
X64482Y2178D01*
X64398Y1975D01*
Y1755D01*
X64482Y1552D01*
X64637Y1397D01*
X64840Y1313D01*
X65060D01*
X65263Y1397D01*
X65418Y1552D01*
X65502Y1755D01*
Y1975D01*
X65418Y2178D01*
X65263Y2333D01*
X65060Y2417D01*
D02*
G37*
G36*
X63960Y1772D02*
X63740D01*
X63537Y1688D01*
X63382Y1533D01*
X63298Y1330D01*
Y1110D01*
X63382Y907D01*
X63537Y752D01*
X63740Y668D01*
X63960D01*
X64163Y752D01*
X64318Y907D01*
X64402Y1110D01*
Y1330D01*
X64318Y1533D01*
X64163Y1688D01*
X63960Y1772D01*
D02*
G37*
G36*
X5456Y1156D02*
X5294D01*
X5145Y1095D01*
X5030Y980D01*
X4969Y831D01*
Y669D01*
X5030Y520D01*
X5145Y405D01*
X5294Y344D01*
X5456D01*
X5605Y405D01*
X5720Y520D01*
X5781Y669D01*
Y831D01*
X5720Y980D01*
X5605Y1095D01*
X5456Y1156D01*
D02*
G37*
G36*
X31331Y1106D02*
X31169D01*
X31020Y1045D01*
X30905Y930D01*
X30844Y781D01*
Y619D01*
X30905Y470D01*
X31020Y355D01*
X31169Y294D01*
X31331D01*
X31480Y355D01*
X31595Y470D01*
X31656Y619D01*
Y781D01*
X31595Y930D01*
X31480Y1045D01*
X31331Y1106D01*
D02*
G37*
G36*
X2306Y1106D02*
X2144D01*
X1995Y1045D01*
X1880Y930D01*
X1819Y781D01*
Y619D01*
X1880Y470D01*
X1995Y355D01*
X2144Y294D01*
X2306D01*
X2455Y355D01*
X2570Y470D01*
X2631Y619D01*
Y781D01*
X2570Y930D01*
X2455Y1045D01*
X2306Y1106D01*
D02*
G37*
G36*
X65060Y1147D02*
X64840D01*
X64637Y1063D01*
X64482Y908D01*
X64398Y705D01*
Y485D01*
X64482Y282D01*
X64637Y127D01*
X64840Y43D01*
X65060D01*
X65263Y127D01*
X65418Y282D01*
X65502Y485D01*
Y705D01*
X65418Y908D01*
X65263Y1063D01*
X65060Y1147D01*
D02*
G37*
G36*
X22506Y156D02*
X22344D01*
X22195Y95D01*
X22141Y41D01*
X22075Y-15D01*
X22009Y41D01*
X21955Y95D01*
X21806Y156D01*
X21644D01*
X21495Y95D01*
X21380Y-20D01*
X21319Y-169D01*
Y-331D01*
X21380Y-480D01*
X21495Y-595D01*
X21644Y-656D01*
X21806D01*
X21955Y-595D01*
X22009Y-541D01*
X22075Y-485D01*
X22141Y-541D01*
X22195Y-595D01*
X22344Y-656D01*
X22506D01*
X22655Y-595D01*
X22770Y-480D01*
X22831Y-331D01*
Y-169D01*
X22770Y-20D01*
X22655Y95D01*
X22506Y156D01*
D02*
G37*
G36*
X41631Y406D02*
X41469D01*
X41320Y345D01*
X41205Y230D01*
X41144Y81D01*
Y-81D01*
X41205Y-230D01*
X41320Y-345D01*
X41469Y-406D01*
X41631D01*
X41780Y-345D01*
X41895Y-230D01*
X41956Y-81D01*
Y81D01*
X41895Y230D01*
X41780Y345D01*
X41631Y406D01*
D02*
G37*
G36*
X24131D02*
X23969D01*
X23820Y345D01*
X23705Y230D01*
X23644Y81D01*
Y-81D01*
X23705Y-230D01*
X23820Y-345D01*
X23969Y-406D01*
X24131D01*
X24280Y-345D01*
X24395Y-230D01*
X24456Y-81D01*
Y81D01*
X24395Y230D01*
X24280Y345D01*
X24131Y406D01*
D02*
G37*
G36*
X83760Y552D02*
X83540D01*
X83337Y468D01*
X83182Y313D01*
X83098Y110D01*
Y-110D01*
X83182Y-313D01*
X83337Y-468D01*
X83540Y-552D01*
X83760D01*
X83963Y-468D01*
X84118Y-313D01*
X84202Y-110D01*
Y110D01*
X84118Y313D01*
X83963Y468D01*
X83760Y552D01*
D02*
G37*
G36*
X63960Y502D02*
X63740D01*
X63537Y418D01*
X63382Y263D01*
X63298Y60D01*
Y-160D01*
X63382Y-363D01*
X63537Y-518D01*
X63740Y-602D01*
X63960D01*
X64163Y-518D01*
X64318Y-363D01*
X64402Y-160D01*
Y60D01*
X64318Y263D01*
X64163Y418D01*
X63960Y502D01*
D02*
G37*
G36*
X28706Y1731D02*
X28544D01*
X28395Y1670D01*
X28280Y1555D01*
X28219Y1406D01*
Y1244D01*
X28280Y1095D01*
X28375Y1000D01*
X28280Y905D01*
X28219Y756D01*
Y594D01*
X28280Y445D01*
X28395Y330D01*
X28544Y269D01*
X28706D01*
X28855Y330D01*
X28888Y363D01*
X28980Y345D01*
X29067Y258D01*
X29028Y156D01*
X29019D01*
X28870Y95D01*
X28755Y-20D01*
X28694Y-169D01*
Y-331D01*
X28755Y-480D01*
X28870Y-595D01*
X29019Y-656D01*
X29181D01*
X29330Y-595D01*
X29445Y-480D01*
X29506Y-331D01*
Y-169D01*
X29445Y-20D01*
X29358Y67D01*
X29397Y169D01*
X29406D01*
X29555Y230D01*
X29670Y345D01*
X29731Y494D01*
Y656D01*
X29670Y805D01*
X29555Y920D01*
X29406Y981D01*
X29244D01*
X29095Y920D01*
X29062Y887D01*
X28970Y905D01*
X28875Y1000D01*
X28970Y1095D01*
X29031Y1244D01*
Y1406D01*
X28970Y1555D01*
X28855Y1670D01*
X28706Y1731D01*
D02*
G37*
G36*
X18031Y156D02*
X17869D01*
X17720Y95D01*
X17605Y-20D01*
X17544Y-169D01*
Y-331D01*
X17605Y-480D01*
X17720Y-595D01*
X17869Y-656D01*
X18031D01*
X18180Y-595D01*
X18295Y-480D01*
X18356Y-331D01*
Y-169D01*
X18295Y-20D01*
X18180Y95D01*
X18031Y156D01*
D02*
G37*
G36*
X5456D02*
X5294D01*
X5145Y95D01*
X5030Y-20D01*
X4969Y-169D01*
Y-331D01*
X5030Y-480D01*
X5145Y-595D01*
X5294Y-656D01*
X5456D01*
X5605Y-595D01*
X5720Y-480D01*
X5781Y-331D01*
Y-169D01*
X5720Y-20D01*
X5605Y95D01*
X5456Y156D01*
D02*
G37*
G36*
X43606Y-19D02*
X43444D01*
X43295Y-80D01*
X43180Y-195D01*
X43119Y-344D01*
Y-506D01*
X43180Y-655D01*
X43295Y-770D01*
X43444Y-831D01*
X43606D01*
X43755Y-770D01*
X43870Y-655D01*
X43931Y-506D01*
Y-344D01*
X43870Y-195D01*
X43755Y-80D01*
X43606Y-19D01*
D02*
G37*
G36*
X65060Y-123D02*
X64840D01*
X64637Y-207D01*
X64482Y-362D01*
X64398Y-565D01*
Y-785D01*
X64482Y-988D01*
X64637Y-1143D01*
X64840Y-1227D01*
X65060D01*
X65263Y-1143D01*
X65418Y-988D01*
X65502Y-785D01*
Y-565D01*
X65418Y-362D01*
X65263Y-207D01*
X65060Y-123D01*
D02*
G37*
G36*
X20556Y-469D02*
X20394D01*
X20245Y-530D01*
X20130Y-645D01*
X20069Y-794D01*
Y-956D01*
X20130Y-1105D01*
X20245Y-1220D01*
X20394Y-1281D01*
X20556D01*
X20705Y-1220D01*
X20820Y-1105D01*
X20881Y-956D01*
Y-794D01*
X20820Y-645D01*
X20705Y-530D01*
X20556Y-469D01*
D02*
G37*
G36*
X52131Y-494D02*
X51969D01*
X51820Y-555D01*
X51705Y-670D01*
X51644Y-819D01*
Y-981D01*
X51705Y-1130D01*
X51820Y-1245D01*
X51969Y-1306D01*
X52131D01*
X52280Y-1245D01*
X52395Y-1130D01*
X52456Y-981D01*
Y-819D01*
X52395Y-670D01*
X52280Y-555D01*
X52131Y-494D01*
D02*
G37*
G36*
X2306Y-819D02*
X2144D01*
X1995Y-880D01*
X1880Y-995D01*
X1819Y-1144D01*
Y-1306D01*
X1880Y-1455D01*
X1995Y-1570D01*
X2144Y-1631D01*
X2306D01*
X2455Y-1570D01*
X2570Y-1455D01*
X2631Y-1306D01*
Y-1144D01*
X2570Y-995D01*
X2455Y-880D01*
X2306Y-819D01*
D02*
G37*
G36*
X63960Y-768D02*
X63740D01*
X63537Y-852D01*
X63382Y-1007D01*
X63298Y-1210D01*
Y-1430D01*
X63382Y-1633D01*
X63537Y-1788D01*
X63740Y-1872D01*
X63960D01*
X64163Y-1788D01*
X64318Y-1633D01*
X64402Y-1430D01*
Y-1210D01*
X64318Y-1007D01*
X64163Y-852D01*
X63960Y-768D01*
D02*
G37*
G36*
X61735Y852D02*
X61515D01*
X61312Y768D01*
X61157Y613D01*
X61073Y410D01*
Y190D01*
X61157Y-13D01*
X61312Y-168D01*
X61387Y-199D01*
Y-301D01*
X61312Y-332D01*
X61157Y-487D01*
X61073Y-690D01*
Y-910D01*
X61157Y-1113D01*
X61312Y-1268D01*
X61387Y-1299D01*
Y-1401D01*
X61312Y-1432D01*
X61157Y-1587D01*
X61073Y-1790D01*
Y-2010D01*
X61157Y-2213D01*
X61312Y-2368D01*
X61515Y-2452D01*
X61735D01*
X61938Y-2368D01*
X62093Y-2213D01*
X62177Y-2010D01*
Y-1827D01*
X62276Y-1782D01*
X62312Y-1818D01*
X62515Y-1902D01*
X62735D01*
X62938Y-1818D01*
X63093Y-1663D01*
X63177Y-1460D01*
Y-1240D01*
X63093Y-1037D01*
X62938Y-882D01*
X62863Y-851D01*
Y-749D01*
X62938Y-718D01*
X63093Y-563D01*
X63177Y-360D01*
Y-140D01*
X63093Y63D01*
X62938Y218D01*
X62735Y302D01*
X62515D01*
X62312Y218D01*
X62276Y182D01*
X62177Y227D01*
Y410D01*
X62093Y613D01*
X61938Y768D01*
X61735Y852D01*
D02*
G37*
G36*
X26931Y-1344D02*
X26769D01*
X26620Y-1405D01*
X26505Y-1520D01*
X26444Y-1669D01*
Y-1831D01*
X26505Y-1980D01*
X26620Y-2095D01*
X26769Y-2156D01*
X26931D01*
X27080Y-2095D01*
X27195Y-1980D01*
X27256Y-1831D01*
Y-1669D01*
X27195Y-1520D01*
X27080Y-1405D01*
X26931Y-1344D01*
D02*
G37*
G36*
X65060Y-1393D02*
X64840D01*
X64637Y-1477D01*
X64482Y-1632D01*
X64398Y-1835D01*
Y-2055D01*
X64482Y-2258D01*
X64637Y-2413D01*
X64840Y-2497D01*
X65060D01*
X65263Y-2413D01*
X65418Y-2258D01*
X65502Y-2055D01*
Y-1835D01*
X65418Y-1632D01*
X65263Y-1477D01*
X65060Y-1393D01*
D02*
G37*
G36*
X33856Y-1694D02*
X33694D01*
X33545Y-1755D01*
X33430Y-1870D01*
X33369Y-2019D01*
Y-2181D01*
X33430Y-2330D01*
X33545Y-2445D01*
X33694Y-2506D01*
X33856D01*
X34005Y-2445D01*
X34120Y-2330D01*
X34181Y-2181D01*
Y-2019D01*
X34120Y-1870D01*
X34005Y-1755D01*
X33856Y-1694D01*
D02*
G37*
G36*
X32731Y-294D02*
X32569D01*
X32420Y-355D01*
X32305Y-470D01*
X32244Y-619D01*
Y-781D01*
X32305Y-930D01*
X32359Y-984D01*
X32415Y-1050D01*
X32359Y-1116D01*
X32305Y-1170D01*
X32244Y-1319D01*
Y-1481D01*
X32290Y-1592D01*
X32241Y-1685D01*
X32230Y-1694D01*
X32144D01*
X31995Y-1755D01*
X31880Y-1870D01*
X31819Y-2019D01*
Y-2181D01*
X31880Y-2330D01*
X31995Y-2445D01*
X32144Y-2506D01*
X32306D01*
X32455Y-2445D01*
X32570Y-2330D01*
X32631Y-2181D01*
Y-2019D01*
X32585Y-1908D01*
X32634Y-1815D01*
X32645Y-1806D01*
X32731D01*
X32880Y-1745D01*
X32995Y-1630D01*
X33056Y-1481D01*
Y-1319D01*
X32995Y-1170D01*
X32941Y-1116D01*
X32885Y-1050D01*
X32941Y-984D01*
X32995Y-930D01*
X33056Y-781D01*
Y-619D01*
X32995Y-470D01*
X32880Y-355D01*
X32731Y-294D01*
D02*
G37*
G36*
X28456Y-994D02*
X28294D01*
X28145Y-1055D01*
X28030Y-1170D01*
X27969Y-1319D01*
Y-1481D01*
X28030Y-1630D01*
X28084Y-1684D01*
X28140Y-1750D01*
X28084Y-1816D01*
X28030Y-1870D01*
X27969Y-2019D01*
Y-2181D01*
X28030Y-2330D01*
X28145Y-2445D01*
X28294Y-2506D01*
X28456D01*
X28605Y-2445D01*
X28720Y-2330D01*
X28781Y-2181D01*
Y-2019D01*
X28720Y-1870D01*
X28666Y-1816D01*
X28610Y-1750D01*
X28666Y-1684D01*
X28720Y-1630D01*
X28781Y-1481D01*
Y-1319D01*
X28720Y-1170D01*
X28605Y-1055D01*
X28456Y-994D01*
D02*
G37*
G36*
X16131Y-1844D02*
X15969D01*
X15820Y-1905D01*
X15705Y-2020D01*
X15644Y-2169D01*
Y-2331D01*
X15705Y-2480D01*
X15820Y-2595D01*
X15969Y-2656D01*
X16131D01*
X16280Y-2595D01*
X16395Y-2480D01*
X16456Y-2331D01*
Y-2169D01*
X16395Y-2020D01*
X16280Y-1905D01*
X16131Y-1844D01*
D02*
G37*
G36*
X35456Y-2094D02*
X35294D01*
X35145Y-2155D01*
X35030Y-2270D01*
X34969Y-2419D01*
Y-2581D01*
X35030Y-2730D01*
X35145Y-2845D01*
X35294Y-2906D01*
X35456D01*
X35605Y-2845D01*
X35720Y-2730D01*
X35781Y-2581D01*
Y-2419D01*
X35720Y-2270D01*
X35605Y-2155D01*
X35456Y-2094D01*
D02*
G37*
G36*
X7479Y-1613D02*
X7271D01*
X7071Y-1666D01*
X6892Y-1770D01*
X6745Y-1917D01*
X6641Y-2096D01*
X6588Y-2296D01*
Y-2504D01*
X6641Y-2704D01*
X6745Y-2883D01*
X6892Y-3030D01*
X7071Y-3134D01*
X7271Y-3187D01*
X7479D01*
X7679Y-3134D01*
X7858Y-3030D01*
X8005Y-2883D01*
X8109Y-2704D01*
X8162Y-2504D01*
Y-2296D01*
X8109Y-2096D01*
X8005Y-1917D01*
X7858Y-1770D01*
X7679Y-1666D01*
X7479Y-1613D01*
D02*
G37*
G36*
X26131Y-2594D02*
X25969D01*
X25820Y-2655D01*
X25705Y-2770D01*
X25644Y-2919D01*
Y-3081D01*
X25705Y-3230D01*
X25820Y-3345D01*
X25969Y-3406D01*
X26131D01*
X26280Y-3345D01*
X26395Y-3230D01*
X26456Y-3081D01*
Y-2919D01*
X26395Y-2770D01*
X26280Y-2655D01*
X26131Y-2594D01*
D02*
G37*
G36*
X4980Y-2351D02*
X4774Y-2392D01*
X4599Y-2509D01*
X4482Y-2684D01*
X4441Y-2890D01*
X4482Y-3096D01*
X4599Y-3271D01*
X4774Y-3388D01*
X4980Y-3429D01*
X5186Y-3388D01*
X5361Y-3271D01*
X5478Y-3096D01*
X5519Y-2890D01*
X5478Y-2684D01*
X5361Y-2509D01*
X5186Y-2392D01*
X4980Y-2351D01*
D02*
G37*
G36*
X18131Y-2944D02*
X17969D01*
X17820Y-3005D01*
X17705Y-3120D01*
X17644Y-3269D01*
Y-3431D01*
X17705Y-3580D01*
X17820Y-3695D01*
X17969Y-3756D01*
X18131D01*
X18280Y-3695D01*
X18395Y-3580D01*
X18456Y-3431D01*
Y-3269D01*
X18395Y-3120D01*
X18280Y-3005D01*
X18131Y-2944D01*
D02*
G37*
G36*
X23631Y-3169D02*
X23469D01*
X23320Y-3230D01*
X23205Y-3345D01*
X23144Y-3494D01*
Y-3656D01*
X23205Y-3805D01*
X23320Y-3920D01*
X23469Y-3981D01*
X23631D01*
X23780Y-3920D01*
X23895Y-3805D01*
X23956Y-3656D01*
Y-3494D01*
X23895Y-3345D01*
X23780Y-3230D01*
X23631Y-3169D01*
D02*
G37*
G36*
X22131Y-2744D02*
X21969D01*
X21820Y-2805D01*
X21705Y-2920D01*
X21644Y-3069D01*
Y-3160D01*
X21631Y-3169D01*
X21469D01*
X21320Y-3230D01*
X21205Y-3345D01*
X21144Y-3494D01*
Y-3656D01*
X21205Y-3805D01*
X21320Y-3920D01*
X21469Y-3981D01*
X21631D01*
X21780Y-3920D01*
X21895Y-3805D01*
X21956Y-3656D01*
Y-3565D01*
X21969Y-3556D01*
X22131D01*
X22144Y-3565D01*
Y-3656D01*
X22205Y-3805D01*
X22320Y-3920D01*
X22469Y-3981D01*
X22631D01*
X22780Y-3920D01*
X22895Y-3805D01*
X22956Y-3656D01*
Y-3494D01*
X22895Y-3345D01*
X22780Y-3230D01*
X22631Y-3169D01*
X22469D01*
X22456Y-3160D01*
Y-3069D01*
X22395Y-2920D01*
X22280Y-2805D01*
X22131Y-2744D01*
D02*
G37*
G36*
X52956Y-3219D02*
X52794D01*
X52645Y-3280D01*
X52530Y-3395D01*
X52469Y-3544D01*
Y-3706D01*
X52530Y-3855D01*
X52645Y-3970D01*
X52794Y-4031D01*
X52956D01*
X53105Y-3970D01*
X53220Y-3855D01*
X53281Y-3706D01*
Y-3544D01*
X53220Y-3395D01*
X53105Y-3280D01*
X52956Y-3219D01*
D02*
G37*
G36*
X10131Y-3544D02*
X9969D01*
X9820Y-3605D01*
X9705Y-3720D01*
X9644Y-3869D01*
Y-4031D01*
X9705Y-4180D01*
X9820Y-4295D01*
X9969Y-4356D01*
X10131D01*
X10280Y-4295D01*
X10395Y-4180D01*
X10456Y-4031D01*
Y-3869D01*
X10395Y-3720D01*
X10280Y-3605D01*
X10131Y-3544D01*
D02*
G37*
G36*
X41956Y-3844D02*
X41794D01*
X41645Y-3905D01*
X41530Y-4020D01*
X41469Y-4169D01*
Y-4331D01*
X41530Y-4480D01*
X41645Y-4595D01*
X41794Y-4656D01*
X41956D01*
X42105Y-4595D01*
X42220Y-4480D01*
X42281Y-4331D01*
Y-4169D01*
X42220Y-4020D01*
X42105Y-3905D01*
X41956Y-3844D01*
D02*
G37*
G36*
X57131Y-4094D02*
X56969D01*
X56820Y-4155D01*
X56705Y-4270D01*
X56644Y-4419D01*
Y-4581D01*
X56705Y-4730D01*
X56820Y-4845D01*
X56969Y-4906D01*
X57131D01*
X57280Y-4845D01*
X57395Y-4730D01*
X57456Y-4581D01*
Y-4419D01*
X57395Y-4270D01*
X57280Y-4155D01*
X57131Y-4094D01*
D02*
G37*
G36*
X48981D02*
X48819D01*
X48670Y-4155D01*
X48555Y-4270D01*
X48494Y-4419D01*
Y-4581D01*
X48555Y-4730D01*
X48670Y-4845D01*
X48819Y-4906D01*
X48981D01*
X49130Y-4845D01*
X49245Y-4730D01*
X49306Y-4581D01*
Y-4419D01*
X49245Y-4270D01*
X49130Y-4155D01*
X48981Y-4094D01*
D02*
G37*
G36*
X45181D02*
X45019D01*
X44870Y-4155D01*
X44755Y-4270D01*
X44694Y-4419D01*
Y-4581D01*
X44755Y-4730D01*
X44870Y-4845D01*
X45019Y-4906D01*
X45181D01*
X45330Y-4845D01*
X45445Y-4730D01*
X45506Y-4581D01*
Y-4419D01*
X45445Y-4270D01*
X45330Y-4155D01*
X45181Y-4094D01*
D02*
G37*
%LPD*%
D10*
X5305Y-2890D02*
G03*
X5305Y-2890I-325J0D01*
G01*
Y2890D02*
G03*
X5305Y2890I-325J0D01*
G01*
D11*
X13234Y-8406D02*
X12692D01*
X13234Y-7865D01*
Y-7729D01*
X13099Y-7594D01*
X12828D01*
X12692Y-7729D01*
X13505Y-7865D02*
X13640D01*
Y-8000D01*
X13505D01*
Y-7865D01*
Y-8271D02*
X13640D01*
Y-8406D01*
X13505D01*
Y-8271D01*
X14995Y-8406D02*
Y-7594D01*
X15265Y-7865D01*
X15536Y-7594D01*
Y-8406D01*
X15807D02*
X16078D01*
X15943D01*
Y-7865D01*
X15807D01*
X17026Y-7594D02*
Y-8406D01*
X16620D01*
X16484Y-8271D01*
Y-8000D01*
X16620Y-7865D01*
X17026D01*
X18109Y-8406D02*
X18380D01*
X18245D01*
Y-7594D01*
X18109Y-7729D01*
X72500Y-5750D02*
G03*
X73000Y-5250I0J500D01*
G01*
X73000Y5250D02*
G03*
X72500Y5750I-500J0D01*
G01*
X85800Y3000D02*
G03*
X85300Y3500I-500J0D01*
G01*
X85300Y-3500D02*
G03*
X85800Y-3000I0J500D01*
G01*
X-800Y5750D02*
G03*
X-1300Y5250I0J-500D01*
G01*
X-1300Y-5250D02*
G03*
X-800Y-5750I500J0D01*
G01*
X85800Y-3000D02*
Y3000D01*
X73000Y3500D02*
X85300D01*
X73000Y-3500D02*
X85300D01*
X73000Y-5250D02*
Y-3500D01*
X-800Y-5750D02*
X72500Y-5750D01*
X73000Y3500D02*
Y5250D01*
X-800Y5750D02*
X72500Y5750D01*
X-1300Y-5250D02*
Y5250D01*
D27*
X78500Y2625D02*
D03*
X82300Y2600D02*
D03*
X74625D02*
D03*
X78500Y0D02*
D03*
X74625Y-775D02*
D03*
X81900Y-750D02*
D03*
X85050Y2600D02*
D03*
X81900Y1000D02*
D03*
X74625D02*
D03*
D65*
X1300Y4320D02*
D03*
Y-4320D02*
D03*
D66*
X5480D02*
D03*
Y4320D02*
D03*
D67*
X54375Y-1850D02*
D03*
X51100Y3925D02*
D03*
X3325Y3225D02*
D03*
X42900Y-4175D02*
D03*
X49625Y-4250D02*
D03*
X46875D02*
D03*
X48200D02*
D03*
X44275Y-4175D02*
D03*
X51708Y-4250D02*
D03*
X55650D02*
D03*
X67550Y-3100D02*
D03*
X64225D02*
D03*
X60525D02*
D03*
X54850Y2050D02*
D03*
X55375Y-2650D02*
D03*
X57775Y-2425D02*
D03*
X50000Y-2075D02*
D03*
X45750Y-3100D02*
D03*
X51475Y-25D02*
D03*
X49500D02*
D03*
X58475Y3300D02*
D03*
X58600Y200D02*
D03*
X59075Y-675D02*
D03*
Y1075D02*
D03*
X72050Y3075D02*
D03*
X63850D02*
D03*
X65900D02*
D03*
X70000Y4925D02*
D03*
X65900D02*
D03*
X42850Y1350D02*
D03*
X36575Y3925D02*
D03*
X29500Y-1125D02*
D03*
X26175Y-1350D02*
D03*
X20550Y-2600D02*
D03*
X11025Y-3275D02*
D03*
X12350Y-4700D02*
D03*
X13400Y3200D02*
D03*
X12325Y-1600D02*
D03*
X7600Y-4200D02*
D03*
X9075Y-4700D02*
D03*
X8225D02*
D03*
X7075Y-3650D02*
D03*
X7675Y4450D02*
D03*
X17950Y-975D02*
D03*
X27525Y-3375D02*
D03*
X29275Y1800D02*
D03*
X25800Y1925D02*
D03*
X8650Y-3125D02*
D03*
X18775Y-4650D02*
D03*
X69250Y-4250D02*
D03*
X24450Y-2750D02*
D03*
X59625Y3850D02*
D03*
X18050Y-2250D02*
D03*
X25409Y-641D02*
D03*
X30025Y3925D02*
D03*
X40450Y-25D02*
D03*
X23000Y-2600D02*
D03*
X15225Y-4700D02*
D03*
X25100Y2300D02*
D03*
X28375Y2150D02*
D03*
X21050Y3575D02*
D03*
X61025Y3850D02*
D03*
X51700Y-3100D02*
D03*
X47175Y-300D02*
D03*
X44275Y-875D02*
D03*
X34900Y-1375D02*
D03*
X38000Y1925D02*
D03*
X39400Y3925D02*
D03*
X33175D02*
D03*
X37550Y-2425D02*
D03*
X33175Y2425D02*
D03*
X46050Y950D02*
D03*
X3850Y-2475D02*
D03*
X26675Y-3375D02*
D03*
X30075D02*
D03*
X33175Y50D02*
D03*
X29100Y-3375D02*
D03*
X49075Y3925D02*
D03*
X44275Y-3100D02*
D03*
X42900Y-3125D02*
D03*
X71825Y-750D02*
D03*
X63850Y4925D02*
D03*
X62233Y-4250D02*
D03*
X55625Y3925D02*
D03*
X53892Y-4250D02*
D03*
X48100Y975D02*
D03*
X42525Y3925D02*
D03*
X45800D02*
D03*
X36675Y-700D02*
D03*
X36900Y600D02*
D03*
X34900Y50D02*
D03*
Y2425D02*
D03*
X2225Y-250D02*
D03*
X14550Y-1600D02*
D03*
X14525Y-3275D02*
D03*
X12325Y-800D02*
D03*
X14800Y1675D02*
D03*
X15875Y3800D02*
D03*
X18075D02*
D03*
X12350Y-3275D02*
D03*
X8650Y-1275D02*
D03*
X25475Y-3375D02*
D03*
X21025Y1375D02*
D03*
X22550Y3575D02*
D03*
X22225Y-1500D02*
D03*
X17100Y-3275D02*
D03*
X34075Y1200D02*
D03*
X19900Y450D02*
D03*
Y1775D02*
D03*
X12075Y3550D02*
D03*
X67950Y4925D02*
D03*
X7050Y3900D02*
D03*
X72050Y4925D02*
D03*
X65742Y-4250D02*
D03*
X47500Y2675D02*
D03*
X58725Y-4250D02*
D03*
X10675Y-25D02*
D03*
X1550Y1750D02*
D03*
X7050Y5025D02*
D03*
X4375Y2000D02*
D03*
X1550Y-2700D02*
D03*
M02*
