G04*
G04 #@! TF.GenerationSoftware,Altium Limited,Altium Designer,24.2.2 (26)*
G04*
G04 Layer_Color=16711935*
%FSLAX43Y43*%
%MOMM*%
G71*
G04*
G04 #@! TF.SameCoordinates,1F1FED76-AB6C-4830-BD65-6DDC81D4C714*
G04*
G04*
G04 #@! TF.FilePolarity,Positive*
G04*
G01*
G75*
%ADD10C,0.127*%
%ADD11C,0.203*%
D10*
X5305Y-2890D02*
G03*
X5305Y-2890I-325J0D01*
G01*
Y2890D02*
G03*
X5305Y2890I-325J0D01*
G01*
Y-2890D02*
G03*
X5305Y-2890I-325J0D01*
G01*
Y2890D02*
G03*
X5305Y2890I-325J0D01*
G01*
D11*
X72500Y-5750D02*
G03*
X73000Y-5250I0J500D01*
G01*
X73000Y5250D02*
G03*
X72500Y5750I-500J0D01*
G01*
X85800Y3000D02*
G03*
X85300Y3500I-500J0D01*
G01*
X85300Y-3500D02*
G03*
X85800Y-3000I0J500D01*
G01*
X-800Y5750D02*
G03*
X-1300Y5250I0J-500D01*
G01*
X-1300Y-5250D02*
G03*
X-800Y-5750I500J0D01*
G01*
X85800Y-3000D02*
Y3000D01*
X73000Y3500D02*
X85300D01*
X73000Y-3500D02*
X85300D01*
X73000Y-5250D02*
Y-3500D01*
X-800Y-5750D02*
X72500Y-5750D01*
X73000Y3500D02*
Y5250D01*
X-800Y5750D02*
X72500Y5750D01*
X-1300Y-5250D02*
Y5250D01*
X72500Y-5750D02*
G03*
X73000Y-5250I0J500D01*
G01*
X73000Y5250D02*
G03*
X72500Y5750I-500J0D01*
G01*
X85800Y3000D02*
G03*
X85300Y3500I-500J0D01*
G01*
X85300Y-3500D02*
G03*
X85800Y-3000I0J500D01*
G01*
X-800Y5750D02*
G03*
X-1300Y5250I0J-500D01*
G01*
X-1300Y-5250D02*
G03*
X-800Y-5750I500J0D01*
G01*
X85800Y-3000D02*
Y3000D01*
X73000Y3500D02*
X85300D01*
X73000Y-3500D02*
X85300D01*
X73000Y-5250D02*
Y-3500D01*
X-800Y-5750D02*
X72500Y-5750D01*
X73000Y3500D02*
Y5250D01*
X-800Y5750D02*
X72500Y5750D01*
X-1300Y-5250D02*
Y5250D01*
M02*
