G04*
G04 #@! TF.GenerationSoftware,Altium Limited,Altium Designer,24.2.2 (26)*
G04*
G04 Layer_Physical_Order=4*
G04 Layer_Color=16711680*
%FSLAX43Y43*%
%MOMM*%
G71*
G04*
G04 #@! TF.SameCoordinates,1F1FED76-AB6C-4830-BD65-6DDC81D4C714*
G04*
G04*
G04 #@! TF.FilePolarity,Positive*
G04*
G01*
G75*
%ADD10C,0.127*%
%ADD11C,0.203*%
G04:AMPARAMS|DCode=12|XSize=0.4mm|YSize=0.7mm|CornerRadius=0.04mm|HoleSize=0mm|Usage=FLASHONLY|Rotation=270.000|XOffset=0mm|YOffset=0mm|HoleType=Round|Shape=RoundedRectangle|*
%AMROUNDEDRECTD12*
21,1,0.400,0.620,0,0,270.0*
21,1,0.320,0.700,0,0,270.0*
1,1,0.080,-0.310,-0.160*
1,1,0.080,-0.310,0.160*
1,1,0.080,0.310,0.160*
1,1,0.080,0.310,-0.160*
%
%ADD12ROUNDEDRECTD12*%
G04:AMPARAMS|DCode=16|XSize=0.4mm|YSize=0.55mm|CornerRadius=0.04mm|HoleSize=0mm|Usage=FLASHONLY|Rotation=90.000|XOffset=0mm|YOffset=0mm|HoleType=Round|Shape=RoundedRectangle|*
%AMROUNDEDRECTD16*
21,1,0.400,0.470,0,0,90.0*
21,1,0.320,0.550,0,0,90.0*
1,1,0.080,0.235,0.160*
1,1,0.080,0.235,-0.160*
1,1,0.080,-0.235,-0.160*
1,1,0.080,-0.235,0.160*
%
%ADD16ROUNDEDRECTD16*%
G04:AMPARAMS|DCode=18|XSize=0.4mm|YSize=0.7mm|CornerRadius=0.04mm|HoleSize=0mm|Usage=FLASHONLY|Rotation=180.000|XOffset=0mm|YOffset=0mm|HoleType=Round|Shape=RoundedRectangle|*
%AMROUNDEDRECTD18*
21,1,0.400,0.620,0,0,180.0*
21,1,0.320,0.700,0,0,180.0*
1,1,0.080,-0.160,0.310*
1,1,0.080,0.160,0.310*
1,1,0.080,0.160,-0.310*
1,1,0.080,-0.160,-0.310*
%
%ADD18ROUNDEDRECTD18*%
G04:AMPARAMS|DCode=19|XSize=0.4mm|YSize=0.55mm|CornerRadius=0.04mm|HoleSize=0mm|Usage=FLASHONLY|Rotation=180.000|XOffset=0mm|YOffset=0mm|HoleType=Round|Shape=RoundedRectangle|*
%AMROUNDEDRECTD19*
21,1,0.400,0.470,0,0,180.0*
21,1,0.320,0.550,0,0,180.0*
1,1,0.080,-0.160,0.235*
1,1,0.080,0.160,0.235*
1,1,0.080,0.160,-0.235*
1,1,0.080,-0.160,-0.235*
%
%ADD19ROUNDEDRECTD19*%
G04:AMPARAMS|DCode=25|XSize=0.508mm|YSize=1.27mm|CornerRadius=0.051mm|HoleSize=0mm|Usage=FLASHONLY|Rotation=180.000|XOffset=0mm|YOffset=0mm|HoleType=Round|Shape=RoundedRectangle|*
%AMROUNDEDRECTD25*
21,1,0.508,1.168,0,0,180.0*
21,1,0.406,1.270,0,0,180.0*
1,1,0.102,-0.203,0.584*
1,1,0.102,0.203,0.584*
1,1,0.102,0.203,-0.584*
1,1,0.102,-0.203,-0.584*
%
%ADD25ROUNDEDRECTD25*%
%ADD27C,0.800*%
%ADD58C,0.152*%
%ADD60C,0.127*%
%ADD61C,0.254*%
G04:AMPARAMS|DCode=65|XSize=1.2mm|YSize=1.8mm|CornerRadius=0.18mm|HoleSize=0mm|Usage=FLASHONLY|Rotation=90.000|XOffset=0mm|YOffset=0mm|HoleType=Round|Shape=RoundedRectangle|*
%AMROUNDEDRECTD65*
21,1,1.200,1.440,0,0,90.0*
21,1,0.840,1.800,0,0,90.0*
1,1,0.360,0.720,0.420*
1,1,0.360,0.720,-0.420*
1,1,0.360,-0.720,-0.420*
1,1,0.360,-0.720,0.420*
%
%ADD65ROUNDEDRECTD65*%
G04:AMPARAMS|DCode=66|XSize=1.2mm|YSize=2.1mm|CornerRadius=0.18mm|HoleSize=0mm|Usage=FLASHONLY|Rotation=270.000|XOffset=0mm|YOffset=0mm|HoleType=Round|Shape=RoundedRectangle|*
%AMROUNDEDRECTD66*
21,1,1.200,1.740,0,0,270.0*
21,1,0.840,2.100,0,0,270.0*
1,1,0.360,-0.870,-0.420*
1,1,0.360,-0.870,0.420*
1,1,0.360,0.870,0.420*
1,1,0.360,0.870,-0.420*
%
%ADD66ROUNDEDRECTD66*%
%ADD67C,0.508*%
%ADD68C,1.270*%
%ADD69C,0.356*%
%ADD70C,0.305*%
%ADD71C,0.381*%
%ADD72C,0.508*%
G04:AMPARAMS|DCode=73|XSize=0.508mm|YSize=1.27mm|CornerRadius=0.051mm|HoleSize=0mm|Usage=FLASHONLY|Rotation=270.000|XOffset=0mm|YOffset=0mm|HoleType=Round|Shape=RoundedRectangle|*
%AMROUNDEDRECTD73*
21,1,0.508,1.168,0,0,270.0*
21,1,0.406,1.270,0,0,270.0*
1,1,0.102,-0.584,-0.203*
1,1,0.102,-0.584,0.203*
1,1,0.102,0.584,0.203*
1,1,0.102,0.584,-0.203*
%
%ADD73ROUNDEDRECTD73*%
G04:AMPARAMS|DCode=74|XSize=0.55mm|YSize=0.65mm|CornerRadius=0.055mm|HoleSize=0mm|Usage=FLASHONLY|Rotation=270.000|XOffset=0mm|YOffset=0mm|HoleType=Round|Shape=RoundedRectangle|*
%AMROUNDEDRECTD74*
21,1,0.550,0.540,0,0,270.0*
21,1,0.440,0.650,0,0,270.0*
1,1,0.110,-0.270,-0.220*
1,1,0.110,-0.270,0.220*
1,1,0.110,0.270,0.220*
1,1,0.110,0.270,-0.220*
%
%ADD74ROUNDEDRECTD74*%
G04:AMPARAMS|DCode=75|XSize=0.8mm|YSize=0.5mm|CornerRadius=0.05mm|HoleSize=0mm|Usage=FLASHONLY|Rotation=0.000|XOffset=0mm|YOffset=0mm|HoleType=Round|Shape=RoundedRectangle|*
%AMROUNDEDRECTD75*
21,1,0.800,0.400,0,0,0.0*
21,1,0.700,0.500,0,0,0.0*
1,1,0.100,0.350,-0.200*
1,1,0.100,-0.350,-0.200*
1,1,0.100,-0.350,0.200*
1,1,0.100,0.350,0.200*
%
%ADD75ROUNDEDRECTD75*%
G04:AMPARAMS|DCode=76|XSize=0.5mm|YSize=0.8mm|CornerRadius=0.05mm|HoleSize=0mm|Usage=FLASHONLY|Rotation=180.000|XOffset=0mm|YOffset=0mm|HoleType=Round|Shape=RoundedRectangle|*
%AMROUNDEDRECTD76*
21,1,0.500,0.700,0,0,180.0*
21,1,0.400,0.800,0,0,180.0*
1,1,0.100,-0.200,0.350*
1,1,0.100,0.200,0.350*
1,1,0.100,0.200,-0.350*
1,1,0.100,-0.200,-0.350*
%
%ADD76ROUNDEDRECTD76*%
G04:AMPARAMS|DCode=77|XSize=2mm|YSize=1.3mm|CornerRadius=0.13mm|HoleSize=0mm|Usage=FLASHONLY|Rotation=180.000|XOffset=0mm|YOffset=0mm|HoleType=Round|Shape=RoundedRectangle|*
%AMROUNDEDRECTD77*
21,1,2.000,1.040,0,0,180.0*
21,1,1.740,1.300,0,0,180.0*
1,1,0.260,-0.870,0.520*
1,1,0.260,0.870,0.520*
1,1,0.260,0.870,-0.520*
1,1,0.260,-0.870,-0.520*
%
%ADD77ROUNDEDRECTD77*%
G04:AMPARAMS|DCode=78|XSize=0.8mm|YSize=0.25mm|CornerRadius=0.038mm|HoleSize=0mm|Usage=FLASHONLY|Rotation=270.000|XOffset=0mm|YOffset=0mm|HoleType=Round|Shape=RoundedRectangle|*
%AMROUNDEDRECTD78*
21,1,0.800,0.175,0,0,270.0*
21,1,0.725,0.250,0,0,270.0*
1,1,0.075,-0.088,-0.363*
1,1,0.075,-0.088,0.363*
1,1,0.075,0.088,0.363*
1,1,0.075,0.088,-0.363*
%
%ADD78ROUNDEDRECTD78*%
G04:AMPARAMS|DCode=79|XSize=0.25mm|YSize=0.8mm|CornerRadius=0.1mm|HoleSize=0mm|Usage=FLASHONLY|Rotation=270.000|XOffset=0mm|YOffset=0mm|HoleType=Round|Shape=RoundedRectangle|*
%AMROUNDEDRECTD79*
21,1,0.250,0.600,0,0,270.0*
21,1,0.050,0.800,0,0,270.0*
1,1,0.200,-0.300,-0.025*
1,1,0.200,-0.300,0.025*
1,1,0.200,0.300,0.025*
1,1,0.200,0.300,-0.025*
%
%ADD79ROUNDEDRECTD79*%
G04:AMPARAMS|DCode=80|XSize=0.25mm|YSize=0.8mm|CornerRadius=0.025mm|HoleSize=0mm|Usage=FLASHONLY|Rotation=270.000|XOffset=0mm|YOffset=0mm|HoleType=Round|Shape=RoundedRectangle|*
%AMROUNDEDRECTD80*
21,1,0.250,0.750,0,0,270.0*
21,1,0.200,0.800,0,0,270.0*
1,1,0.050,-0.375,-0.100*
1,1,0.050,-0.375,0.100*
1,1,0.050,0.375,0.100*
1,1,0.050,0.375,-0.100*
%
%ADD80ROUNDEDRECTD80*%
G04:AMPARAMS|DCode=81|XSize=0.8mm|YSize=0.25mm|CornerRadius=0.063mm|HoleSize=0mm|Usage=FLASHONLY|Rotation=270.000|XOffset=0mm|YOffset=0mm|HoleType=Round|Shape=RoundedRectangle|*
%AMROUNDEDRECTD81*
21,1,0.800,0.125,0,0,270.0*
21,1,0.675,0.250,0,0,270.0*
1,1,0.125,-0.063,-0.338*
1,1,0.125,-0.063,0.338*
1,1,0.125,0.063,0.338*
1,1,0.125,0.063,-0.338*
%
%ADD81ROUNDEDRECTD81*%
G04:AMPARAMS|DCode=82|XSize=0.914mm|YSize=0.914mm|CornerRadius=0.091mm|HoleSize=0mm|Usage=FLASHONLY|Rotation=0.000|XOffset=0mm|YOffset=0mm|HoleType=Round|Shape=RoundedRectangle|*
%AMROUNDEDRECTD82*
21,1,0.914,0.732,0,0,0.0*
21,1,0.732,0.914,0,0,0.0*
1,1,0.183,0.366,-0.366*
1,1,0.183,-0.366,-0.366*
1,1,0.183,-0.366,0.366*
1,1,0.183,0.366,0.366*
%
%ADD82ROUNDEDRECTD82*%
G04:AMPARAMS|DCode=83|XSize=0.914mm|YSize=1.27mm|CornerRadius=0.091mm|HoleSize=0mm|Usage=FLASHONLY|Rotation=0.000|XOffset=0mm|YOffset=0mm|HoleType=Round|Shape=RoundedRectangle|*
%AMROUNDEDRECTD83*
21,1,0.914,1.087,0,0,0.0*
21,1,0.732,1.270,0,0,0.0*
1,1,0.183,0.366,-0.544*
1,1,0.183,-0.366,-0.544*
1,1,0.183,-0.366,0.544*
1,1,0.183,0.366,0.544*
%
%ADD83ROUNDEDRECTD83*%
G04:AMPARAMS|DCode=84|XSize=2.7mm|YSize=0.8mm|CornerRadius=0.04mm|HoleSize=0mm|Usage=FLASHONLY|Rotation=90.000|XOffset=0mm|YOffset=0mm|HoleType=Round|Shape=RoundedRectangle|*
%AMROUNDEDRECTD84*
21,1,2.700,0.720,0,0,90.0*
21,1,2.620,0.800,0,0,90.0*
1,1,0.080,0.360,1.310*
1,1,0.080,0.360,-1.310*
1,1,0.080,-0.360,-1.310*
1,1,0.080,-0.360,1.310*
%
%ADD84ROUNDEDRECTD84*%
G04:AMPARAMS|DCode=85|XSize=2.5mm|YSize=0.8mm|CornerRadius=0.04mm|HoleSize=0mm|Usage=FLASHONLY|Rotation=90.000|XOffset=0mm|YOffset=0mm|HoleType=Round|Shape=RoundedRectangle|*
%AMROUNDEDRECTD85*
21,1,2.500,0.720,0,0,90.0*
21,1,2.420,0.800,0,0,90.0*
1,1,0.080,0.360,1.210*
1,1,0.080,0.360,-1.210*
1,1,0.080,-0.360,-1.210*
1,1,0.080,-0.360,1.210*
%
%ADD85ROUNDEDRECTD85*%
G04:AMPARAMS|DCode=86|XSize=1.2mm|YSize=0.6mm|CornerRadius=0.09mm|HoleSize=0mm|Usage=FLASHONLY|Rotation=0.000|XOffset=0mm|YOffset=0mm|HoleType=Round|Shape=RoundedRectangle|*
%AMROUNDEDRECTD86*
21,1,1.200,0.420,0,0,0.0*
21,1,1.020,0.600,0,0,0.0*
1,1,0.180,0.510,-0.210*
1,1,0.180,-0.510,-0.210*
1,1,0.180,-0.510,0.210*
1,1,0.180,0.510,0.210*
%
%ADD86ROUNDEDRECTD86*%
%ADD87C,1.270*%
%ADD88C,0.559*%
%ADD89C,0.762*%
G36*
X72500Y5488D02*
X72591Y5470D01*
X72668Y5418D01*
X72720Y5341D01*
X72738Y5250D01*
X72741D01*
X72741Y5250D01*
Y3500D01*
X72761Y3401D01*
X72817Y3317D01*
X72901Y3261D01*
X73000Y3241D01*
X85300D01*
Y3238D01*
X85391Y3220D01*
X85468Y3168D01*
X85520Y3091D01*
X85538Y3000D01*
X85541D01*
X85541Y3000D01*
Y1665D01*
X83175D01*
X83058Y1617D01*
X83010Y1500D01*
Y-1335D01*
X73400Y-1335D01*
X73283Y-1383D01*
X69657Y-5010D01*
X7993D01*
X6677Y-3694D01*
X6642Y-3608D01*
X6525Y-3560D01*
X1290D01*
Y-1625D01*
X1864D01*
X1943Y-1610D01*
X2000Y-1572D01*
X2144Y-1631D01*
X2306D01*
X2455Y-1570D01*
X2570Y-1455D01*
X2631Y-1306D01*
Y-1144D01*
X2570Y-995D01*
X2455Y-880D01*
X2306Y-819D01*
X2144D01*
X2015Y-872D01*
X2011Y-865D01*
X1943Y-820D01*
X1864Y-805D01*
X1290D01*
Y280D01*
X1864D01*
X1943Y295D01*
X2011Y340D01*
X2015Y347D01*
X2144Y294D01*
X2306D01*
X2455Y355D01*
X2570Y470D01*
X2631Y619D01*
Y781D01*
X2570Y930D01*
X2455Y1045D01*
X2306Y1106D01*
X2144D01*
X2000Y1047D01*
X1943Y1085D01*
X1864Y1100D01*
X1290D01*
Y3535D01*
X6525D01*
X6642Y3583D01*
X6690Y3700D01*
Y5491D01*
X6784Y5491D01*
X10126D01*
X10167Y5389D01*
X10119Y5343D01*
X10112Y5327D01*
X10098Y5318D01*
X10010Y5190D01*
X10006Y5174D01*
X9994Y5162D01*
X9932Y5020D01*
X9932Y5003D01*
X9923Y4989D01*
X9900Y4882D01*
X9902Y4872D01*
X9897Y4862D01*
X9886Y4740D01*
X9888Y4732D01*
X9885Y4725D01*
X9885Y4327D01*
X9783Y4260D01*
X9731Y4281D01*
X9618D01*
X9243Y4738D01*
X9256Y4769D01*
Y4930D01*
X9194Y5080D01*
X9080Y5194D01*
X8930Y5256D01*
X8769D01*
X8619Y5194D01*
X8505Y5080D01*
X8443Y4930D01*
Y4769D01*
X8505Y4619D01*
X8619Y4505D01*
X8769Y4443D01*
X8882D01*
X9256Y3987D01*
X9244Y3956D01*
Y3794D01*
X9252Y3774D01*
X9195Y3690D01*
X7649D01*
X7633Y3683D01*
X7617Y3687D01*
X7419Y3647D01*
X7405Y3638D01*
X7388D01*
X7201Y3561D01*
X7189Y3549D01*
X7173Y3546D01*
X7005Y3433D01*
X6996Y3419D01*
X6980Y3413D01*
X6837Y3270D01*
X6831Y3254D01*
X6817Y3245D01*
X6705Y3077D01*
X6701Y3061D01*
X6689Y3049D01*
X6612Y2862D01*
Y2845D01*
X6603Y2831D01*
X6563Y2633D01*
X6567Y2617D01*
X6560Y2601D01*
Y-713D01*
X6460Y-794D01*
X6140D01*
X6065Y-809D01*
X6001Y-851D01*
X5957Y-914D01*
X5885Y-884D01*
X5810Y-869D01*
X5340D01*
X5265Y-884D01*
X5201Y-926D01*
X5175Y-966D01*
X4602D01*
X4596Y-933D01*
X4551Y-865D01*
X4483Y-820D01*
X4404Y-805D01*
X3236D01*
X3157Y-820D01*
X3089Y-865D01*
X3044Y-933D01*
X3029Y-1012D01*
Y-1418D01*
X3044Y-1497D01*
X3089Y-1565D01*
X3157Y-1610D01*
X3236Y-1625D01*
X4404D01*
X4483Y-1610D01*
X4551Y-1565D01*
X4596Y-1497D01*
X4598Y-1484D01*
X5175D01*
X5201Y-1524D01*
X5265Y-1566D01*
X5340Y-1581D01*
X5810D01*
X5885Y-1566D01*
X5957Y-1536D01*
X6001Y-1599D01*
X6065Y-1641D01*
X6140Y-1656D01*
X6460D01*
X6560Y-1737D01*
Y-2400D01*
X6588Y-2467D01*
Y-2504D01*
X6601Y-2554D01*
X6608Y-2606D01*
X6628Y-2654D01*
X6641Y-2704D01*
X6667Y-2749D01*
X6687Y-2797D01*
X6719Y-2838D01*
X6745Y-2883D01*
X6782Y-2920D01*
X6813Y-2962D01*
X6855Y-2993D01*
X6892Y-3030D01*
X6937Y-3056D01*
X6978Y-3088D01*
X7026Y-3108D01*
X7071Y-3134D01*
X7121Y-3147D01*
X7169Y-3167D01*
X7175Y-3168D01*
X7207Y-3273D01*
X7351Y-3543D01*
X7546Y-3779D01*
X7782Y-3974D01*
X8052Y-4118D01*
X8295Y-4192D01*
X8309Y-4260D01*
X8351Y-4324D01*
X8415Y-4366D01*
X8490Y-4381D01*
X8810D01*
X8885Y-4366D01*
X8949Y-4324D01*
X8991Y-4260D01*
X9006Y-4185D01*
Y-3715D01*
X8991Y-3640D01*
X8949Y-3576D01*
X8885Y-3534D01*
X8810Y-3519D01*
X8490D01*
X8415Y-3534D01*
X8351Y-3576D01*
X8331Y-3607D01*
X8154Y-3534D01*
X7949Y-3376D01*
X7803Y-3185D01*
X7796Y-3165D01*
X7790Y-3074D01*
X7813Y-3056D01*
X7858Y-3030D01*
X7895Y-2993D01*
X7937Y-2962D01*
X7968Y-2920D01*
X8005Y-2883D01*
X8031Y-2838D01*
X8063Y-2797D01*
X8083Y-2749D01*
X8109Y-2704D01*
X8122Y-2654D01*
X8142Y-2606D01*
X8149Y-2554D01*
X8162Y-2504D01*
Y-2467D01*
X8190Y-2400D01*
Y428D01*
X8240Y469D01*
X8710D01*
X8785Y484D01*
X8831Y514D01*
X9223D01*
X9253Y494D01*
X9332Y479D01*
X9738D01*
X9817Y494D01*
X9885Y539D01*
X9916Y586D01*
X9992Y592D01*
X10027Y584D01*
X10058Y508D01*
X10058Y508D01*
X10175Y460D01*
X10825D01*
X10942Y508D01*
X10945Y516D01*
X11055D01*
X11058Y508D01*
X11175Y460D01*
X11622Y460D01*
X11637Y360D01*
X11438Y278D01*
X11268Y147D01*
X11137Y-23D01*
X11055Y-222D01*
X11028Y-421D01*
X11026Y-435D01*
Y-1270D01*
X11030Y-1290D01*
Y-1854D01*
X11045Y-1933D01*
X11090Y-2001D01*
X11158Y-2046D01*
X11210Y-2056D01*
X11215Y-2150D01*
X11213Y-2160D01*
X11151Y-2201D01*
X11109Y-2265D01*
X11094Y-2340D01*
Y-2810D01*
X11109Y-2885D01*
X11151Y-2949D01*
X11215Y-2991D01*
X11290Y-3006D01*
X11610D01*
X11685Y-2991D01*
X11749Y-2949D01*
X11791Y-2885D01*
X11806Y-2810D01*
Y-2626D01*
X11810Y-2623D01*
X12015Y-2538D01*
X12235Y-2509D01*
Y-2509D01*
X15232D01*
X15294Y-2603D01*
X15309Y-2679D01*
X15354Y-2746D01*
X15421Y-2791D01*
X15500Y-2806D01*
X15900D01*
X15979Y-2791D01*
X16046Y-2746D01*
X16091Y-2679D01*
X16095Y-2656D01*
X16131D01*
X16280Y-2595D01*
X16395Y-2480D01*
X16456Y-2331D01*
Y-2169D01*
X16395Y-2020D01*
X16280Y-1905D01*
X16244Y-1890D01*
Y-1272D01*
X16256Y-1210D01*
Y1210D01*
X16241Y1285D01*
X16199Y1349D01*
X16135Y1391D01*
X16060Y1406D01*
X15340D01*
X15265Y1391D01*
X15201Y1349D01*
X15159Y1285D01*
X15144Y1210D01*
Y-1210D01*
X15156Y-1272D01*
Y-1991D01*
X12235D01*
Y-1984D01*
X11893Y-2029D01*
X11860Y-1997D01*
X11829Y-1942D01*
X11835Y-1933D01*
X11850Y-1854D01*
Y-1290D01*
X11854Y-1270D01*
Y-443D01*
X11857Y-442D01*
X11858Y-439D01*
X12475D01*
X12634Y-408D01*
X12708Y-358D01*
X12810Y-412D01*
X12810Y-412D01*
X12810Y-1350D01*
X12858Y-1467D01*
X12975Y-1515D01*
X13975Y-1515D01*
X14092Y-1467D01*
X14292Y-1267D01*
X14340Y-1150D01*
Y2350D01*
X14292Y2467D01*
X14092Y2667D01*
X13975Y2715D01*
X11825D01*
X11708Y2667D01*
X11092Y2050D01*
X10990Y2092D01*
Y2921D01*
X10996Y3049D01*
X11047Y3305D01*
X11145Y3542D01*
X11288Y3756D01*
X11469Y3937D01*
X11683Y4080D01*
X11920Y4178D01*
X12176Y4229D01*
X12304Y4235D01*
X20022D01*
X20090Y4133D01*
X20069Y4081D01*
Y3919D01*
X20130Y3770D01*
X20216Y3684D01*
Y3450D01*
X20176Y3424D01*
X20132Y3361D01*
X20060Y3391D01*
X19985Y3406D01*
X19515D01*
X19440Y3391D01*
X19376Y3349D01*
X19350Y3309D01*
X18966D01*
X18880Y3395D01*
X18731Y3456D01*
X18569D01*
X18420Y3395D01*
X18305Y3280D01*
X18244Y3131D01*
Y2969D01*
X18305Y2820D01*
X18420Y2705D01*
X18569Y2644D01*
X18731D01*
X18880Y2705D01*
X18966Y2791D01*
X19350D01*
X19376Y2751D01*
X19440Y2709D01*
X19515Y2694D01*
X19985D01*
X20060Y2709D01*
X20132Y2739D01*
X20176Y2676D01*
X20216Y2650D01*
Y0D01*
X20176Y-26D01*
X20134Y-90D01*
X20119Y-165D01*
Y-635D01*
X20124Y-661D01*
X20069Y-794D01*
Y-956D01*
X20130Y-1105D01*
X20245Y-1220D01*
X20394Y-1281D01*
X20556D01*
X20705Y-1220D01*
X20723Y-1202D01*
X20826Y-1174D01*
X20890Y-1216D01*
X20965Y-1231D01*
X21435D01*
X21510Y-1216D01*
X21574Y-1174D01*
X21600Y-1134D01*
X23019D01*
Y-1362D01*
X23034Y-1437D01*
X23076Y-1499D01*
X23138Y-1541D01*
X23212Y-1556D01*
X23388D01*
X23450Y-1544D01*
X23469Y-1546D01*
X23560Y-1598D01*
X23565Y-1636D01*
X23639Y-1815D01*
X23757Y-1968D01*
X23910Y-2086D01*
X24089Y-2160D01*
X24281Y-2185D01*
Y-2184D01*
X25641D01*
X25667Y-2215D01*
X25705Y-2286D01*
X25694Y-2340D01*
Y-2798D01*
X25644Y-2919D01*
Y-3081D01*
X25705Y-3230D01*
X25820Y-3345D01*
X25969Y-3406D01*
X26131D01*
X26280Y-3345D01*
X26395Y-3230D01*
X26456Y-3081D01*
Y-3059D01*
X29301D01*
Y-3065D01*
X29634Y-3021D01*
X29945Y-2892D01*
X30212Y-2687D01*
X30212Y-2687D01*
X30281Y-2612D01*
X30456Y-2478D01*
X30535Y-2445D01*
X30590Y-2456D01*
X31210D01*
X31285Y-2441D01*
X31362Y-2405D01*
X31440Y-2441D01*
X31515Y-2456D01*
X31985D01*
X32011Y-2451D01*
X32144Y-2506D01*
X32265D01*
X32517Y-2758D01*
X32514Y-2761D01*
X32800Y-2995D01*
X33125Y-3170D01*
X33479Y-3277D01*
X33847Y-3313D01*
Y-3309D01*
X40375D01*
Y-3312D01*
X40689Y-3281D01*
X40992Y-3189D01*
X41270Y-3040D01*
X41453Y-2890D01*
X42804D01*
X42819Y-2884D01*
X42875D01*
X42992Y-2835D01*
X43040Y-2719D01*
Y-1559D01*
X43409D01*
X43415Y-1558D01*
X43696Y-1595D01*
X43819Y-1646D01*
Y-1900D01*
X43834Y-1979D01*
X43879Y-2046D01*
X43946Y-2091D01*
X44025Y-2106D01*
X44443D01*
X44636Y-2272D01*
X45140Y-2580D01*
X45686Y-2806D01*
X46261Y-2944D01*
X46749Y-2983D01*
X46850Y-2991D01*
X46850Y-2991D01*
X46951Y-2984D01*
X50698D01*
Y-2988D01*
X51136Y-2953D01*
X51564Y-2850D01*
X51970Y-2682D01*
X52255Y-2508D01*
X53645D01*
X53755Y-2486D01*
X53849Y-2424D01*
X53911Y-2330D01*
X53933Y-2220D01*
Y-1180D01*
X53911Y-1070D01*
X53849Y-976D01*
X53755Y-914D01*
X53645Y-892D01*
X52456D01*
Y-819D01*
X52395Y-670D01*
X52280Y-555D01*
X52131Y-494D01*
X51969D01*
X51820Y-555D01*
X51705Y-670D01*
X51644Y-819D01*
Y-981D01*
X51665Y-1031D01*
X51639Y-1070D01*
X51617Y-1180D01*
Y-2220D01*
X51626Y-2266D01*
X51572Y-2295D01*
X51144Y-2425D01*
X50709Y-2468D01*
X50698Y-2466D01*
X49542D01*
X49488Y-2364D01*
X49511Y-2330D01*
X49533Y-2220D01*
Y-1180D01*
X49525Y-1139D01*
X52153Y892D01*
X53645D01*
X53755Y914D01*
X53849Y976D01*
X53911Y1070D01*
X53933Y1180D01*
Y2220D01*
X53911Y2330D01*
X53849Y2424D01*
X53755Y2486D01*
X53645Y2508D01*
X51905D01*
X51795Y2486D01*
X51701Y2424D01*
X51639Y2330D01*
X51617Y2220D01*
Y1180D01*
X51625Y1139D01*
X48997Y-892D01*
X47505D01*
X47395Y-914D01*
X47301Y-976D01*
X47239Y-1070D01*
X47217Y-1180D01*
Y-1410D01*
X47116Y-1421D01*
X47071Y-1354D01*
X47004Y-1309D01*
X46925Y-1294D01*
X46225D01*
X46146Y-1309D01*
X46079Y-1354D01*
X46076Y-1359D01*
X45960Y-1350D01*
X45951Y-1337D01*
X45939Y-1275D01*
X45934D01*
Y-1042D01*
X46041D01*
X46136Y-1023D01*
X46217Y-969D01*
X46270Y-889D01*
X46289Y-794D01*
Y294D01*
X46270Y389D01*
X46217Y469D01*
X46136Y523D01*
X46041Y542D01*
X45309D01*
X45214Y523D01*
X45133Y469D01*
X45080Y389D01*
X45061Y294D01*
Y-794D01*
X45080Y-889D01*
X45133Y-969D01*
X45214Y-1023D01*
X45309Y-1042D01*
X45416D01*
Y-1275D01*
X45415D01*
X45438Y-1452D01*
X45507Y-1617D01*
X45616Y-1759D01*
X45758Y-1868D01*
X45923Y-1937D01*
X46029Y-1950D01*
X46034Y-1979D01*
X46079Y-2046D01*
X46146Y-2091D01*
X46225Y-2106D01*
X46925D01*
X47004Y-2091D01*
X47071Y-2046D01*
X47116Y-1979D01*
X47217Y-1990D01*
Y-2220D01*
X47239Y-2330D01*
X47262Y-2364D01*
X47208Y-2466D01*
X46850D01*
X46841Y-2468D01*
X46342Y-2428D01*
X45847Y-2310D01*
X45377Y-2115D01*
X44943Y-1849D01*
X44931Y-1839D01*
Y-1500D01*
X44916Y-1421D01*
X44871Y-1354D01*
X44804Y-1309D01*
X44725Y-1294D01*
X44278D01*
X44032Y-1162D01*
X43727Y-1069D01*
X43409Y-1038D01*
Y-1041D01*
X43040D01*
Y-581D01*
X43142Y-561D01*
X43180Y-655D01*
X43295Y-770D01*
X43444Y-831D01*
X43606D01*
X43755Y-770D01*
X43870Y-655D01*
X43931Y-506D01*
Y-344D01*
X43877Y-213D01*
X43899Y-199D01*
X43941Y-135D01*
X43956Y-60D01*
Y260D01*
X43941Y335D01*
X43899Y399D01*
X43835Y441D01*
X43760Y456D01*
X43290D01*
X43215Y441D01*
X43151Y399D01*
X43142Y384D01*
X43040Y415D01*
Y635D01*
X43142Y666D01*
X43151Y651D01*
X43215Y609D01*
X43290Y594D01*
X43760D01*
X43835Y609D01*
X43899Y651D01*
X43941Y715D01*
X43956Y790D01*
Y1110D01*
X43941Y1185D01*
X43899Y1249D01*
X43835Y1291D01*
X43810Y1296D01*
Y1404D01*
X43835Y1409D01*
X43899Y1451D01*
X43908Y1465D01*
X44061D01*
Y1384D01*
X44080Y1289D01*
X44133Y1208D01*
X44214Y1155D01*
X44309Y1136D01*
X45041D01*
X45136Y1155D01*
X45217Y1208D01*
X45270Y1289D01*
X45289Y1384D01*
Y2116D01*
X45270Y2211D01*
X45217Y2292D01*
X45136Y2345D01*
X45041Y2364D01*
X44309D01*
X44214Y2345D01*
X44133Y2292D01*
X44080Y2211D01*
X44061Y2116D01*
Y2035D01*
X43908D01*
X43899Y2049D01*
X43835Y2091D01*
X43760Y2106D01*
X43290D01*
X43215Y2091D01*
X43151Y2049D01*
X43109Y1985D01*
X43094Y1910D01*
Y1590D01*
X43109Y1515D01*
X43151Y1451D01*
X43215Y1409D01*
X43240Y1404D01*
Y1296D01*
X43215Y1291D01*
X43151Y1249D01*
X43109Y1185D01*
X43094Y1110D01*
Y810D01*
X42992Y790D01*
X42992Y792D01*
X42517Y1267D01*
X42400Y1315D01*
X41100D01*
X40983Y1267D01*
X40935Y1150D01*
Y-2636D01*
X40921Y-2646D01*
X40658Y-2755D01*
X40380Y-2792D01*
X40375Y-2791D01*
X40067D01*
X39999Y-2689D01*
X40015Y-2650D01*
Y1150D01*
X39967Y1267D01*
X39850Y1315D01*
X37900Y1315D01*
X37783Y1267D01*
X37458Y942D01*
X37410Y825D01*
Y-293D01*
X37417Y-309D01*
X37413Y-325D01*
X37416Y-341D01*
Y-1009D01*
X37413Y-1025D01*
X37417Y-1041D01*
X37410Y-1057D01*
Y-1700D01*
X37458Y-1817D01*
X38331Y-2689D01*
X38289Y-2791D01*
X36177D01*
X36131Y-2735D01*
Y-2265D01*
X36116Y-2190D01*
X36074Y-2126D01*
Y-2099D01*
X36116Y-2035D01*
X36131Y-1960D01*
Y-1340D01*
X36116Y-1265D01*
X36105Y-1249D01*
X36121Y-1171D01*
X36166Y-1104D01*
X36181Y-1025D01*
Y-325D01*
X36166Y-246D01*
X36121Y-179D01*
X36060Y-138D01*
Y194D01*
X36125D01*
X36204Y209D01*
X36271Y254D01*
X36316Y321D01*
X36331Y400D01*
Y800D01*
X36316Y879D01*
X36271Y946D01*
X36204Y991D01*
X36125Y1006D01*
X36060D01*
Y1442D01*
X36074Y1451D01*
X36116Y1515D01*
X36131Y1590D01*
Y2060D01*
X36116Y2135D01*
X36074Y2199D01*
X36060Y2208D01*
Y2392D01*
X36074Y2401D01*
X36116Y2465D01*
X36131Y2540D01*
Y3010D01*
X36200Y3072D01*
X36232Y3043D01*
X36269Y2989D01*
Y2540D01*
X36284Y2465D01*
X36326Y2401D01*
X36366Y2375D01*
Y2225D01*
X36326Y2199D01*
X36284Y2135D01*
X36269Y2060D01*
Y1590D01*
X36284Y1515D01*
X36326Y1451D01*
X36390Y1409D01*
X36465Y1394D01*
X36785D01*
X36860Y1409D01*
X36924Y1451D01*
X36966Y1515D01*
X36981Y1590D01*
Y2060D01*
X36966Y2135D01*
X36924Y2199D01*
X36884Y2225D01*
Y2375D01*
X36924Y2401D01*
X36966Y2465D01*
X36979Y2531D01*
X37090D01*
X37126Y2476D01*
X37190Y2434D01*
X37265Y2419D01*
X37735D01*
X37810Y2434D01*
X37874Y2476D01*
X37910Y2531D01*
X38425D01*
X38429Y2508D01*
X38474Y2440D01*
X38542Y2395D01*
X38621Y2380D01*
X39789D01*
X39868Y2395D01*
X39936Y2440D01*
X39981Y2508D01*
X39996Y2587D01*
Y2993D01*
X39984Y3053D01*
X40021Y3122D01*
X40048Y3155D01*
X40299D01*
X40399Y3148D01*
X40415Y3147D01*
X40430Y3145D01*
X40531Y3135D01*
X40679Y3121D01*
X40962Y3035D01*
X40954Y2993D01*
Y2587D01*
X40969Y2508D01*
X41014Y2440D01*
X41082Y2395D01*
X41161Y2380D01*
X42329D01*
X42408Y2395D01*
X42476Y2440D01*
X42521Y2508D01*
X42536Y2587D01*
Y2993D01*
X42521Y3072D01*
X42476Y3140D01*
X42408Y3185D01*
X42329Y3200D01*
X41600D01*
X41568Y3227D01*
X41184Y3432D01*
X40767Y3559D01*
X40333Y3602D01*
Y3595D01*
X29904D01*
X29756Y3656D01*
X29594D01*
X29445Y3595D01*
X29330Y3480D01*
X29269Y3331D01*
Y3250D01*
X29234Y3164D01*
X29175Y3156D01*
X29069D01*
X28920Y3095D01*
X28805Y2980D01*
X28801Y2970D01*
X28401D01*
Y2974D01*
X28155Y2942D01*
X27926Y2847D01*
X27808Y2756D01*
X27515D01*
X27440Y2741D01*
X27376Y2699D01*
X27334Y2635D01*
X27319Y2560D01*
Y2090D01*
X27334Y2015D01*
X27376Y1951D01*
X27404Y1933D01*
X27373Y1831D01*
X27315D01*
X27240Y1816D01*
X27224Y1806D01*
X27174Y1790D01*
X27109Y1834D01*
X27109Y1941D01*
X27124Y1951D01*
X27166Y2015D01*
X27181Y2090D01*
Y2560D01*
X27166Y2635D01*
X27124Y2699D01*
X27060Y2741D01*
X27022Y2749D01*
X26966Y2933D01*
X26819Y3208D01*
X26684Y3372D01*
X26622Y3448D01*
X26621Y3449D01*
X26619Y3447D01*
X26175Y3891D01*
X26178Y3894D01*
X26177Y3894D01*
X26101Y3957D01*
X25909Y4114D01*
X25867Y4136D01*
X25892Y4235D01*
X26383D01*
X26451Y4133D01*
X26419Y4056D01*
Y3894D01*
X26480Y3745D01*
X26595Y3630D01*
X26744Y3569D01*
X26906D01*
X27055Y3630D01*
X27163Y3738D01*
X27270Y3630D01*
X27419Y3569D01*
X27581D01*
X27730Y3630D01*
X27837Y3738D01*
X27945Y3630D01*
X28094Y3569D01*
X28256D01*
X28405Y3630D01*
X28513Y3738D01*
X28620Y3630D01*
X28769Y3569D01*
X28931D01*
X29080Y3630D01*
X29195Y3745D01*
X29256Y3894D01*
Y4056D01*
X29224Y4133D01*
X29292Y4235D01*
X60946Y4235D01*
X61013Y4232D01*
X61149Y4205D01*
X61273Y4153D01*
X61384Y4079D01*
X61479Y3984D01*
X61553Y3873D01*
X61605Y3749D01*
X61627Y3636D01*
X61627Y3636D01*
Y3636D01*
X61629Y3626D01*
X61617Y3600D01*
X61538Y3531D01*
X61265D01*
X61190Y3516D01*
X61126Y3474D01*
X61084Y3410D01*
X61069Y3335D01*
Y2865D01*
X61084Y2790D01*
X61114Y2744D01*
Y2655D01*
X61116Y2648D01*
X61080Y2467D01*
X60976Y2312D01*
X60115D01*
X60020Y2293D01*
X59940Y2240D01*
X59891Y2166D01*
X58812D01*
X58774Y2224D01*
X58710Y2266D01*
X58635Y2281D01*
X58315D01*
X58240Y2266D01*
X58176Y2224D01*
X58134Y2160D01*
X58119Y2085D01*
Y1615D01*
X58134Y1540D01*
X58176Y1476D01*
X58240Y1434D01*
X58315Y1419D01*
X58635D01*
X58710Y1434D01*
X58774Y1476D01*
X58816Y1540D01*
X58817Y1544D01*
X59891D01*
X59940Y1470D01*
X60020Y1417D01*
X60115Y1398D01*
X61135D01*
X61230Y1417D01*
X61310Y1470D01*
X61363Y1550D01*
X61382Y1645D01*
Y1843D01*
X61413Y1867D01*
X61533Y2024D01*
X61635Y1990D01*
Y1508D01*
X61627Y1428D01*
X61563Y1274D01*
X61451Y1162D01*
X61297Y1098D01*
X61217Y1090D01*
X59775Y1090D01*
X59658Y1042D01*
X59610Y925D01*
Y-2343D01*
X59658Y-2459D01*
X59775Y-2507D01*
X62816D01*
X62846Y-2495D01*
X62879D01*
X63032Y-2431D01*
X63055Y-2408D01*
X63086Y-2396D01*
X63176Y-2305D01*
X63199Y-2298D01*
X63272Y-2303D01*
X63299Y-2312D01*
X63396Y-2410D01*
X63426Y-2422D01*
X63449Y-2445D01*
X63587Y-2502D01*
X63620D01*
X63650Y-2515D01*
X63725Y-2515D01*
X66775D01*
X66892Y-2467D01*
X66940Y-2350D01*
Y2275D01*
X66892Y2392D01*
X66775Y2440D01*
X63725D01*
X63725Y2440D01*
X63650Y2440D01*
X63620Y2427D01*
X63587D01*
X63449Y2370D01*
X63426Y2347D01*
X63417Y2343D01*
X63315Y2386D01*
X63315Y4750D01*
X63315Y4824D01*
X63309Y4839D01*
X63312Y4856D01*
X63283Y5001D01*
X63274Y5015D01*
X63274Y5032D01*
X63217Y5168D01*
X63205Y5180D01*
X63202Y5197D01*
X63120Y5320D01*
X63106Y5329D01*
X63099Y5345D01*
X63055Y5389D01*
X63097Y5491D01*
X72500D01*
Y5488D01*
D02*
G37*
G36*
X66775Y-2350D02*
X63725D01*
X63650Y-2350D01*
X63513Y-2293D01*
X63407Y-2187D01*
X63350Y-2050D01*
X63350Y-1975D01*
Y-1975D01*
Y1900D01*
X63350Y1975D01*
X63407Y2112D01*
X63513Y2218D01*
X63650Y2275D01*
X63725Y2275D01*
X63725Y2275D01*
X66775D01*
Y-2350D01*
D02*
G37*
G36*
X62619Y5471D02*
X62755Y5415D01*
X62878Y5333D01*
X62983Y5228D01*
X63065Y5105D01*
X63121Y4969D01*
X63150Y4824D01*
X63150Y4750D01*
X63150Y-1925D01*
Y-2008D01*
X63086Y-2161D01*
X62969Y-2279D01*
X62816Y-2343D01*
X59775D01*
Y925D01*
X61225Y925D01*
X61225Y925D01*
X61225Y925D01*
X61337Y936D01*
X61344Y939D01*
X61544Y1022D01*
X61703Y1181D01*
X61789Y1388D01*
X61800Y1500D01*
X61800Y3550D01*
X61800Y3550D01*
X61800Y3550D01*
X61800Y3550D01*
X61796Y3633D01*
X61789Y3668D01*
X61763Y3797D01*
X61700Y3951D01*
X61607Y4089D01*
X61489Y4207D01*
X61351Y4300D01*
X61197Y4363D01*
X61033Y4396D01*
X60950Y4400D01*
X25052Y4400D01*
X24925Y4413D01*
Y4409D01*
X20625D01*
Y4412D01*
X20569Y4401D01*
X20556Y4406D01*
X20394D01*
X20379Y4400D01*
X12300D01*
X12300Y4400D01*
X12155Y4393D01*
X11872Y4336D01*
X11605Y4226D01*
X11364Y4065D01*
X11160Y3861D01*
X10999Y3620D01*
X10889Y3353D01*
X10832Y3070D01*
X10825Y2925D01*
Y625D01*
X10175D01*
X10175Y1925D01*
X10175Y1925D01*
X10175Y1925D01*
X10175Y1961D01*
X10154Y2029D01*
X10154Y2029D01*
X10146Y2039D01*
X10109Y2084D01*
X10046Y2118D01*
X10011Y2125D01*
X8225Y2125D01*
X8225Y2125D01*
X8186Y2121D01*
X8114Y2091D01*
X8059Y2036D01*
X8029Y1964D01*
X8025Y1925D01*
Y-2400D01*
X6725D01*
Y2500D01*
Y2601D01*
X6764Y2799D01*
X6842Y2986D01*
X6954Y3153D01*
X7097Y3296D01*
X7264Y3408D01*
X7451Y3486D01*
X7649Y3525D01*
X9433D01*
X9569Y3469D01*
X9731D01*
X9880Y3530D01*
X9995Y3645D01*
X10056Y3794D01*
Y3956D01*
X10050Y3971D01*
X10050Y4725D01*
X10050Y4725D01*
X10061Y4847D01*
X10084Y4954D01*
X10145Y5097D01*
X10234Y5224D01*
X10345Y5332D01*
X10475Y5416D01*
X10620Y5473D01*
X10716Y5491D01*
X62519Y5491D01*
X62619Y5471D01*
D02*
G37*
G36*
X14175Y2350D02*
Y-1150D01*
X13975Y-1350D01*
X12975Y-1350D01*
X12975Y475D01*
X12825Y625D01*
X11175Y625D01*
Y1900D01*
X11825Y2550D01*
X13975D01*
X14175Y2350D01*
D02*
G37*
G36*
X23640Y3789D02*
X23605Y3755D01*
X23544Y3606D01*
Y3444D01*
X23605Y3295D01*
X23720Y3180D01*
X23869Y3119D01*
X24031D01*
X24180Y3180D01*
X24234Y3234D01*
X24300Y3290D01*
X24366Y3234D01*
X24420Y3180D01*
X24569Y3119D01*
X24731D01*
X24880Y3180D01*
X24995Y3295D01*
X25056Y3444D01*
Y3606D01*
X24995Y3755D01*
X24963Y3787D01*
X25011Y3883D01*
X25249Y3851D01*
X25551Y3726D01*
X25803Y3533D01*
X25808Y3526D01*
X25809Y3525D01*
X25809Y3525D01*
X26253Y3081D01*
X26253Y3081D01*
X26253Y3080D01*
X26257Y3078D01*
X26424Y2860D01*
X26442Y2816D01*
X26386Y2731D01*
X26319D01*
X26170Y2670D01*
X26055Y2555D01*
X25994Y2406D01*
Y2244D01*
X26055Y2095D01*
X26170Y1980D01*
X26319Y1919D01*
X26481D01*
X26518Y1886D01*
X26526Y1774D01*
X26484Y1710D01*
X26469Y1635D01*
Y1165D01*
X26484Y1090D01*
X26494Y1074D01*
X26518Y1000D01*
X26494Y926D01*
X26484Y910D01*
X26469Y835D01*
Y365D01*
X26484Y290D01*
X26526Y226D01*
X26590Y184D01*
X26665Y169D01*
X26985D01*
X27060Y184D01*
X27076Y194D01*
X27150Y218D01*
X27224Y194D01*
X27240Y184D01*
X27315Y169D01*
X27635D01*
X27710Y184D01*
X27774Y226D01*
X27816Y290D01*
X27831Y365D01*
Y835D01*
X27816Y910D01*
X27806Y926D01*
X27782Y1000D01*
X27806Y1074D01*
X27816Y1090D01*
X27831Y1165D01*
Y1635D01*
X27816Y1710D01*
X27774Y1774D01*
X27746Y1792D01*
X27777Y1894D01*
X27835D01*
X27910Y1909D01*
X27974Y1951D01*
X28016Y2015D01*
X28031Y2090D01*
Y2370D01*
X28043Y2382D01*
X28045Y2385D01*
X28207Y2493D01*
X28397Y2530D01*
X28401Y2530D01*
X28801D01*
X28805Y2520D01*
X28920Y2405D01*
X29069Y2344D01*
X29231D01*
X29380Y2405D01*
X29495Y2520D01*
X29556Y2669D01*
Y2750D01*
X29591Y2836D01*
X29650Y2844D01*
X29756D01*
X29905Y2905D01*
X30020Y3020D01*
X30075Y3155D01*
X35358D01*
X35379Y3136D01*
X35427Y3053D01*
X35419Y3010D01*
Y2540D01*
X35434Y2465D01*
X35476Y2401D01*
X35490Y2392D01*
Y2208D01*
X35476Y2199D01*
X35434Y2135D01*
X35419Y2060D01*
Y1590D01*
X35434Y1515D01*
X35476Y1451D01*
X35490Y1442D01*
Y1006D01*
X35425D01*
X35346Y991D01*
X35279Y946D01*
X35234Y879D01*
X35219Y800D01*
Y400D01*
X35234Y321D01*
X35279Y254D01*
X35346Y209D01*
X35425Y194D01*
X35490D01*
Y-138D01*
X35429Y-179D01*
X35384Y-246D01*
X35369Y-325D01*
Y-1025D01*
X35384Y-1104D01*
X35429Y-1171D01*
X35445Y-1249D01*
X35434Y-1265D01*
X35419Y-1340D01*
Y-1960D01*
X35425Y-1992D01*
X35368Y-2082D01*
X35351Y-2094D01*
X35294D01*
X35145Y-2155D01*
X35030Y-2270D01*
X34969Y-2419D01*
Y-2581D01*
X35014Y-2689D01*
X34959Y-2791D01*
X33847D01*
X33835Y-2793D01*
X33493Y-2748D01*
X33395Y-2708D01*
X33415Y-2606D01*
X33610D01*
X33685Y-2591D01*
X33749Y-2549D01*
X33777Y-2506D01*
X33856D01*
X34005Y-2445D01*
X34120Y-2330D01*
X34181Y-2181D01*
Y-2019D01*
X34120Y-1870D01*
X34005Y-1755D01*
X33856Y-1694D01*
X33777D01*
X33749Y-1651D01*
X33685Y-1609D01*
X33610Y-1594D01*
X33290D01*
X33215Y-1609D01*
X33151Y-1651D01*
X33109Y-1715D01*
X33094Y-1790D01*
Y-2410D01*
X33099Y-2434D01*
X33006Y-2491D01*
X32890Y-2402D01*
X32883Y-2392D01*
X32631Y-2140D01*
Y-2019D01*
X32585Y-1908D01*
X32634Y-1815D01*
X32645Y-1806D01*
X32731D01*
X32880Y-1745D01*
X32995Y-1630D01*
X33056Y-1481D01*
Y-1319D01*
X32995Y-1170D01*
X32941Y-1116D01*
X32885Y-1050D01*
X32941Y-984D01*
X32992Y-933D01*
X33144D01*
Y-935D01*
X33159Y-1010D01*
X33201Y-1074D01*
X33265Y-1116D01*
X33340Y-1131D01*
X33660D01*
X33735Y-1116D01*
X33799Y-1074D01*
X33841Y-1010D01*
X33856Y-935D01*
Y-465D01*
X33841Y-390D01*
X33799Y-326D01*
X33735Y-284D01*
X33660Y-269D01*
X33340D01*
X33265Y-284D01*
X33201Y-326D01*
X33159Y-390D01*
X33144Y-465D01*
Y-467D01*
X32992D01*
X32880Y-355D01*
X32731Y-294D01*
X32569D01*
X32420Y-355D01*
X32305Y-470D01*
X32244Y-619D01*
Y-781D01*
X32305Y-930D01*
X32359Y-984D01*
X32415Y-1050D01*
X32359Y-1116D01*
X32305Y-1170D01*
X32244Y-1319D01*
Y-1481D01*
X32290Y-1592D01*
X32241Y-1685D01*
X32230Y-1694D01*
X32144D01*
X32011Y-1749D01*
X31985Y-1744D01*
X31515D01*
X31440Y-1759D01*
X31362Y-1795D01*
X31285Y-1759D01*
X31210Y-1744D01*
X30590D01*
X30515Y-1759D01*
X30451Y-1801D01*
X30409Y-1865D01*
X30394Y-1940D01*
Y-1940D01*
X30194Y-2023D01*
X29901Y-2248D01*
X29901Y-2248D01*
X29832Y-2323D01*
X29683Y-2437D01*
X29499Y-2514D01*
X29301Y-2540D01*
Y-2541D01*
X28638D01*
X28612Y-2465D01*
X28610Y-2439D01*
X28720Y-2330D01*
X28781Y-2181D01*
Y-2019D01*
X28720Y-1870D01*
X28666Y-1816D01*
X28610Y-1750D01*
X28666Y-1684D01*
X28720Y-1630D01*
X28781Y-1481D01*
Y-1319D01*
X28720Y-1170D01*
X28605Y-1055D01*
X28456Y-994D01*
X28294D01*
X28145Y-1055D01*
X28030Y-1170D01*
X27969Y-1319D01*
Y-1481D01*
X28030Y-1630D01*
X28084Y-1684D01*
X28140Y-1750D01*
X28084Y-1816D01*
X28030Y-1870D01*
X27969Y-2019D01*
Y-2181D01*
X28030Y-2330D01*
X28140Y-2439D01*
X28138Y-2465D01*
X28112Y-2541D01*
X26406D01*
Y-2340D01*
X26391Y-2265D01*
X26349Y-2201D01*
X26299Y-2168D01*
X26270Y-2024D01*
X26142Y-1833D01*
X25951Y-1705D01*
X25725Y-1660D01*
Y-1666D01*
X24281D01*
Y-1663D01*
X24198Y-1646D01*
X24127Y-1598D01*
X24085Y-1536D01*
X24062Y-1444D01*
X24063Y-1442D01*
X24066Y-1437D01*
X24081Y-1363D01*
X24081Y-1362D01*
X24081Y-1350D01*
Y-637D01*
X24066Y-563D01*
X24029Y-508D01*
X24038Y-470D01*
X24066Y-406D01*
X24131D01*
X24280Y-345D01*
X24395Y-230D01*
X24456Y-81D01*
Y8D01*
X24553Y92D01*
X24650Y73D01*
Y80D01*
X25225D01*
Y79D01*
X25371Y50D01*
X25495Y-33D01*
X25568Y-104D01*
X26456Y-992D01*
X26462Y-996D01*
X26587Y-1184D01*
X26631Y-1401D01*
X26620Y-1405D01*
X26505Y-1520D01*
X26444Y-1669D01*
Y-1831D01*
X26505Y-1980D01*
X26620Y-2095D01*
X26769Y-2156D01*
X26931D01*
X27080Y-2095D01*
X27195Y-1980D01*
X27256Y-1831D01*
Y-1669D01*
X27195Y-1520D01*
X27080Y-1405D01*
X27073Y-1403D01*
X27039Y-1143D01*
X26936Y-893D01*
X26770Y-677D01*
X26767Y-681D01*
X26767Y-681D01*
X26011Y75D01*
X26050Y169D01*
X26135D01*
X26210Y184D01*
X26274Y226D01*
X26316Y290D01*
X26331Y365D01*
Y835D01*
X26316Y910D01*
X26274Y974D01*
X26210Y1016D01*
X26135Y1031D01*
X25815D01*
X25740Y1016D01*
X25676Y974D01*
X25634Y910D01*
X25631Y895D01*
X25081D01*
Y1362D01*
X25066Y1437D01*
X25024Y1499D01*
X25019Y1503D01*
X24987Y1744D01*
X24875Y2015D01*
X24697Y2247D01*
X24465Y2425D01*
X24194Y2537D01*
X23904Y2576D01*
Y2570D01*
X23300D01*
Y2576D01*
X23099Y2536D01*
X23008Y2475D01*
X22911Y2514D01*
X22906Y2550D01*
Y2631D01*
X22845Y2780D01*
X22730Y2895D01*
X22581Y2956D01*
X22482D01*
X22456Y2994D01*
Y3156D01*
X22395Y3305D01*
X22280Y3420D01*
X22131Y3481D01*
X21969D01*
X21820Y3420D01*
X21705Y3305D01*
X21644Y3156D01*
Y2994D01*
X21705Y2845D01*
X21820Y2730D01*
X21969Y2669D01*
X22068D01*
X22094Y2631D01*
Y2469D01*
X22155Y2320D01*
X22270Y2205D01*
X22419Y2144D01*
X22500D01*
X22582Y2132D01*
X22594Y2050D01*
Y1969D01*
X22655Y1820D01*
X22770Y1705D01*
X22919Y1644D01*
X22994D01*
X23082Y1542D01*
X23076Y1499D01*
X23034Y1437D01*
X23019Y1362D01*
Y1095D01*
X22626D01*
X22624Y1099D01*
X22560Y1141D01*
X22485Y1156D01*
X22165D01*
X22090Y1141D01*
X22026Y1099D01*
X21984Y1035D01*
X21969Y960D01*
Y559D01*
X21930Y543D01*
X21831Y611D01*
Y960D01*
X21816Y1035D01*
X21774Y1099D01*
X21710Y1141D01*
X21635Y1156D01*
X21315D01*
X21240Y1141D01*
X21176Y1099D01*
X21134Y1035D01*
X21119Y960D01*
Y848D01*
X21094Y831D01*
X20977Y656D01*
X20936Y450D01*
X20941D01*
Y-410D01*
X20933Y-414D01*
X20831Y-354D01*
Y-165D01*
X20816Y-90D01*
X20774Y-26D01*
X20734Y0D01*
Y2650D01*
X20774Y2676D01*
X20816Y2740D01*
X20831Y2815D01*
Y3285D01*
X20816Y3360D01*
X20774Y3424D01*
X20734Y3450D01*
Y3684D01*
X20820Y3770D01*
X20870Y3891D01*
X23598D01*
X23640Y3789D01*
D02*
G37*
G36*
X39850Y-2650D02*
X38525D01*
X37575Y-1700D01*
Y-1057D01*
X37581Y-1025D01*
Y-325D01*
X37575Y-293D01*
Y825D01*
X37900Y1150D01*
X39850Y1150D01*
Y-2650D01*
D02*
G37*
G36*
X42875Y675D02*
Y-2719D01*
X42819D01*
X42804Y-2725D01*
X41100D01*
Y1150D01*
X42400D01*
X42875Y675D01*
D02*
G37*
G36*
X6525Y3700D02*
X1125D01*
Y1100D01*
X696D01*
X617Y1085D01*
X549Y1040D01*
X504Y972D01*
X489Y893D01*
Y487D01*
X504Y408D01*
X549Y340D01*
X617Y295D01*
X696Y280D01*
X1125D01*
Y-805D01*
X696D01*
X617Y-820D01*
X549Y-865D01*
X504Y-933D01*
X489Y-1012D01*
Y-1418D01*
X504Y-1497D01*
X549Y-1565D01*
X617Y-1610D01*
X696Y-1625D01*
X1125D01*
Y-3725D01*
X6525D01*
Y-3775D01*
X7925Y-5175D01*
X69725D01*
X73400Y-1500D01*
X83175Y-1500D01*
Y1500D01*
X85541D01*
Y-3000D01*
X85538D01*
X85520Y-3091D01*
X85468Y-3168D01*
X85391Y-3220D01*
X85300Y-3238D01*
Y-3241D01*
X85300Y-3241D01*
X73000D01*
X72901Y-3261D01*
X72817Y-3317D01*
X72761Y-3401D01*
X72741Y-3500D01*
Y-5250D01*
X72738D01*
X72720Y-5341D01*
X72668Y-5418D01*
X72591Y-5470D01*
X72500Y-5488D01*
Y-5491D01*
X72500Y-5491D01*
X6525Y-5491D01*
D01*
X-698D01*
X-800Y-5488D01*
X-800D01*
X-893Y-5468D01*
X-968Y-5418D01*
X-1020Y-5341D01*
X-1038Y-5250D01*
X-1041D01*
X-1041Y-5250D01*
Y5250D01*
X-1038D01*
X-1020Y5341D01*
X-968Y5418D01*
X-891Y5470D01*
X-800Y5488D01*
Y5491D01*
X6525D01*
Y3700D01*
D02*
G37*
%LPC*%
G36*
X4980Y3429D02*
X4774Y3388D01*
X4599Y3271D01*
X4482Y3096D01*
X4441Y2890D01*
X4482Y2684D01*
X4599Y2509D01*
X4774Y2392D01*
X4980Y2351D01*
X5186Y2392D01*
X5361Y2509D01*
X5478Y2684D01*
X5519Y2890D01*
X5478Y3096D01*
X5361Y3271D01*
X5186Y3388D01*
X4980Y3429D01*
D02*
G37*
G36*
X5456Y1156D02*
X5294D01*
X5145Y1095D01*
X5030Y980D01*
X4969Y831D01*
Y669D01*
X5030Y520D01*
X5145Y405D01*
X5294Y344D01*
X5456D01*
X5605Y405D01*
X5720Y520D01*
X5781Y669D01*
Y831D01*
X5720Y980D01*
X5605Y1095D01*
X5456Y1156D01*
D02*
G37*
G36*
X3560Y2181D02*
X3090D01*
X3015Y2166D01*
X2951Y2124D01*
X2909Y2060D01*
X2894Y1985D01*
Y1665D01*
X2909Y1590D01*
X2951Y1526D01*
X3015Y1484D01*
X3040Y1479D01*
Y1185D01*
X3039D01*
X3063Y1001D01*
X3044Y972D01*
X3029Y893D01*
Y487D01*
X3044Y408D01*
X3089Y340D01*
X3157Y295D01*
X3236Y280D01*
X4404D01*
X4483Y295D01*
X4551Y340D01*
X4596Y408D01*
X4611Y487D01*
Y893D01*
X4596Y972D01*
X4551Y1040D01*
X4483Y1085D01*
X4404Y1100D01*
X3633D01*
X3629Y1106D01*
X3613Y1185D01*
X3610D01*
Y1479D01*
X3635Y1484D01*
X3699Y1526D01*
X3741Y1590D01*
X3756Y1665D01*
Y1985D01*
X3741Y2060D01*
X3699Y2124D01*
X3635Y2166D01*
X3560Y2181D01*
D02*
G37*
G36*
X57785Y2281D02*
X57465D01*
X57390Y2266D01*
X57326Y2224D01*
X57284Y2160D01*
X57269Y2085D01*
Y1615D01*
X57284Y1540D01*
X57314Y1494D01*
Y1092D01*
X57259D01*
X57164Y1073D01*
X57083Y1019D01*
X57030Y939D01*
X57011Y844D01*
Y-244D01*
X57030Y-339D01*
X57083Y-419D01*
X57164Y-473D01*
X57259Y-492D01*
X57991D01*
X58086Y-473D01*
X58167Y-419D01*
X58220Y-339D01*
X58239Y-244D01*
Y844D01*
X58220Y939D01*
X58167Y1019D01*
X58086Y1073D01*
X57991Y1092D01*
X57936D01*
Y1494D01*
X57966Y1540D01*
X57981Y1615D01*
Y2085D01*
X57966Y2160D01*
X57924Y2224D01*
X57860Y2266D01*
X57785Y2281D01*
D02*
G37*
G36*
X5456Y156D02*
X5294D01*
X5145Y95D01*
X5030Y-20D01*
X4969Y-169D01*
Y-331D01*
X5030Y-480D01*
X5145Y-595D01*
X5294Y-656D01*
X5456D01*
X5605Y-595D01*
X5720Y-480D01*
X5781Y-331D01*
Y-169D01*
X5720Y-20D01*
X5605Y95D01*
X5456Y156D01*
D02*
G37*
G36*
X17460Y252D02*
X17240D01*
X17037Y168D01*
X16882Y13D01*
X16798Y-190D01*
Y-410D01*
X16882Y-613D01*
X17037Y-768D01*
X17240Y-852D01*
X17460D01*
X17663Y-768D01*
X17782Y-650D01*
X17853D01*
X17869Y-656D01*
X18031D01*
X18047Y-650D01*
X18503D01*
X18565Y-691D01*
X18640Y-706D01*
X19110D01*
X19185Y-691D01*
X19284Y-710D01*
X19326Y-774D01*
X19390Y-816D01*
X19465Y-831D01*
X19785D01*
X19860Y-816D01*
X19924Y-774D01*
X19966Y-710D01*
X19981Y-635D01*
Y-165D01*
X19966Y-90D01*
X19924Y-26D01*
X19860Y16D01*
X19785Y31D01*
X19518D01*
X19396Y47D01*
X19384Y50D01*
X18225D01*
X18180Y95D01*
X18031Y156D01*
X17869D01*
X17732Y99D01*
X17663Y168D01*
X17460Y252D01*
D02*
G37*
G36*
X9738Y-479D02*
X9332D01*
X9253Y-494D01*
X9185Y-539D01*
X9140Y-607D01*
X9125Y-686D01*
Y-1854D01*
X9140Y-1933D01*
X9185Y-2001D01*
X9224Y-2027D01*
Y-2186D01*
X9201Y-2201D01*
X9159Y-2265D01*
X9144Y-2340D01*
Y-2810D01*
X9159Y-2885D01*
X9201Y-2949D01*
X9265Y-2991D01*
X9340Y-3006D01*
X9660D01*
X9735Y-2991D01*
X9799Y-2949D01*
X9841Y-2886D01*
X10259D01*
X10301Y-2949D01*
X10365Y-2991D01*
X10440Y-3006D01*
X10760D01*
X10835Y-2991D01*
X10899Y-2949D01*
X10941Y-2885D01*
X10956Y-2810D01*
Y-2340D01*
X10941Y-2265D01*
X10899Y-2201D01*
X10835Y-2159D01*
X10760Y-2144D01*
X10440D01*
X10365Y-2159D01*
X10301Y-2201D01*
X10259Y-2264D01*
X9846D01*
Y-2027D01*
X9885Y-2001D01*
X9930Y-1933D01*
X9945Y-1854D01*
Y-686D01*
X9930Y-607D01*
X9885Y-539D01*
X9817Y-494D01*
X9738Y-479D01*
D02*
G37*
G36*
X4980Y-2351D02*
X4774Y-2392D01*
X4599Y-2509D01*
X4482Y-2684D01*
X4441Y-2890D01*
X4482Y-3096D01*
X4599Y-3271D01*
X4774Y-3388D01*
X4980Y-3429D01*
X5186Y-3388D01*
X5361Y-3271D01*
X5478Y-3096D01*
X5519Y-2890D01*
X5478Y-2684D01*
X5361Y-2509D01*
X5186Y-2392D01*
X4980Y-2351D01*
D02*
G37*
G36*
X10760Y-3519D02*
X10440D01*
X10365Y-3534D01*
X10301Y-3576D01*
X10282Y-3605D01*
X10280Y-3605D01*
X10131Y-3544D01*
X9969D01*
X9820Y-3605D01*
X9818Y-3605D01*
X9799Y-3576D01*
X9735Y-3534D01*
X9660Y-3519D01*
X9340D01*
X9265Y-3534D01*
X9201Y-3576D01*
X9159Y-3640D01*
X9144Y-3715D01*
Y-4185D01*
X9159Y-4260D01*
X9201Y-4324D01*
X9265Y-4366D01*
X9340Y-4381D01*
X9660D01*
X9735Y-4366D01*
X9799Y-4324D01*
X9818Y-4295D01*
X9820Y-4295D01*
X9969Y-4356D01*
X10131D01*
X10280Y-4295D01*
X10282Y-4295D01*
X10301Y-4324D01*
X10365Y-4366D01*
X10440Y-4381D01*
X10760D01*
X10835Y-4366D01*
X10899Y-4324D01*
X10941Y-4260D01*
X10956Y-4185D01*
Y-3715D01*
X10941Y-3640D01*
X10899Y-3576D01*
X10835Y-3534D01*
X10760Y-3519D01*
D02*
G37*
G36*
X58991Y-1086D02*
X58259D01*
X58164Y-1105D01*
X58083Y-1158D01*
X58030Y-1239D01*
X58011Y-1334D01*
Y-2066D01*
X58030Y-2161D01*
X58083Y-2242D01*
X58164Y-2295D01*
X58259Y-2314D01*
X58366D01*
Y-2825D01*
X58326Y-2851D01*
X58284Y-2915D01*
X58269Y-2990D01*
Y-3460D01*
X58284Y-3535D01*
X58326Y-3599D01*
X58390Y-3641D01*
X58465Y-3656D01*
X58785D01*
X58860Y-3641D01*
X58924Y-3599D01*
X58966Y-3535D01*
X58981Y-3460D01*
Y-2990D01*
X58966Y-2915D01*
X58924Y-2851D01*
X58884Y-2825D01*
Y-2314D01*
X58991D01*
X59086Y-2295D01*
X59167Y-2242D01*
X59220Y-2161D01*
X59239Y-2066D01*
Y-1334D01*
X59220Y-1239D01*
X59167Y-1158D01*
X59086Y-1105D01*
X58991Y-1086D01*
D02*
G37*
G36*
X18131Y-2944D02*
X17969D01*
X17820Y-3005D01*
X17705Y-3120D01*
X17644Y-3269D01*
Y-3431D01*
X17705Y-3580D01*
X17820Y-3695D01*
X17969Y-3756D01*
X18131D01*
X18280Y-3695D01*
X18395Y-3580D01*
X18456Y-3431D01*
Y-3269D01*
X18395Y-3120D01*
X18280Y-3005D01*
X18131Y-2944D01*
D02*
G37*
G36*
X22131Y-2744D02*
X21969D01*
X21820Y-2805D01*
X21705Y-2920D01*
X21644Y-3069D01*
Y-3160D01*
X21631Y-3169D01*
X21469D01*
X21320Y-3230D01*
X21205Y-3345D01*
X21144Y-3494D01*
Y-3656D01*
X21205Y-3805D01*
X21320Y-3920D01*
X21469Y-3981D01*
X21631D01*
X21780Y-3920D01*
X21895Y-3805D01*
X21956Y-3656D01*
Y-3565D01*
X21969Y-3556D01*
X22131D01*
X22144Y-3565D01*
Y-3656D01*
X22205Y-3805D01*
X22320Y-3920D01*
X22469Y-3981D01*
X22631D01*
X22780Y-3920D01*
X22895Y-3805D01*
X22956Y-3656D01*
Y-3494D01*
X22895Y-3345D01*
X22780Y-3230D01*
X22631Y-3169D01*
X22469D01*
X22456Y-3160D01*
Y-3069D01*
X22395Y-2920D01*
X22280Y-2805D01*
X22131Y-2744D01*
D02*
G37*
G36*
X23631Y-3169D02*
X23469D01*
X23320Y-3230D01*
X23205Y-3345D01*
X23144Y-3494D01*
Y-3656D01*
X23205Y-3805D01*
X23320Y-3920D01*
X23469Y-3981D01*
X23631D01*
X23651Y-3973D01*
X23651Y-3974D01*
X23715Y-4016D01*
X23790Y-4031D01*
X23866D01*
X23990Y-4083D01*
X24338Y-4129D01*
Y-4121D01*
X40963D01*
Y-4124D01*
X41166Y-4097D01*
X41356Y-4018D01*
X41495Y-3912D01*
X41562Y-3988D01*
X41530Y-4020D01*
X41469Y-4169D01*
Y-4331D01*
X41530Y-4480D01*
X41645Y-4595D01*
X41794Y-4656D01*
X41956D01*
X42105Y-4595D01*
X42220Y-4480D01*
X42281Y-4331D01*
Y-4169D01*
X42220Y-4020D01*
X42119Y-3920D01*
X42171Y-3834D01*
X42256Y-3851D01*
X52529D01*
X52530Y-3855D01*
X52645Y-3970D01*
X52794Y-4031D01*
X52956D01*
X53105Y-3970D01*
X53220Y-3855D01*
X53281Y-3706D01*
Y-3544D01*
X53220Y-3395D01*
X53105Y-3280D01*
X52956Y-3219D01*
X52794D01*
X52645Y-3280D01*
X52530Y-3395D01*
X52524Y-3411D01*
X42312D01*
X42121Y-3332D01*
X41875Y-3299D01*
X41629Y-3332D01*
X41400Y-3427D01*
X41203Y-3578D01*
X41203Y-3578D01*
X41124Y-3633D01*
X41093Y-3653D01*
X40963Y-3679D01*
Y-3681D01*
X24456D01*
Y-3515D01*
X24441Y-3440D01*
X24399Y-3376D01*
X24335Y-3334D01*
X24260Y-3319D01*
X23869D01*
X23780Y-3230D01*
X23631Y-3169D01*
D02*
G37*
G36*
X57935Y-2794D02*
X57615D01*
X57540Y-2809D01*
X57476Y-2851D01*
X57434Y-2915D01*
X57419Y-2990D01*
Y-3460D01*
X57434Y-3535D01*
X57476Y-3599D01*
X57481Y-3602D01*
X57407Y-3779D01*
X57233Y-4007D01*
X57230Y-4008D01*
X57141Y-4098D01*
X57131Y-4094D01*
X56969D01*
X56820Y-4155D01*
X56705Y-4270D01*
X56644Y-4419D01*
Y-4581D01*
X56705Y-4730D01*
X56820Y-4845D01*
X56969Y-4906D01*
X57131D01*
X57280Y-4845D01*
X57395Y-4730D01*
X57456Y-4581D01*
Y-4419D01*
X57452Y-4409D01*
X57542Y-4320D01*
X57542Y-4320D01*
X57544Y-4322D01*
X57737Y-4087D01*
X57880Y-3819D01*
X57930Y-3656D01*
X57935D01*
X58010Y-3641D01*
X58074Y-3599D01*
X58116Y-3535D01*
X58131Y-3460D01*
Y-2990D01*
X58116Y-2915D01*
X58074Y-2851D01*
X58010Y-2809D01*
X57935Y-2794D01*
D02*
G37*
G36*
X48981Y-4094D02*
X48819D01*
X48670Y-4155D01*
X48555Y-4270D01*
X48494Y-4419D01*
Y-4581D01*
X48555Y-4730D01*
X48670Y-4845D01*
X48819Y-4906D01*
X48981D01*
X49130Y-4845D01*
X49245Y-4730D01*
X49306Y-4581D01*
Y-4419D01*
X49245Y-4270D01*
X49130Y-4155D01*
X48981Y-4094D01*
D02*
G37*
G36*
X45181D02*
X45019D01*
X44870Y-4155D01*
X44755Y-4270D01*
X44694Y-4419D01*
Y-4581D01*
X44755Y-4730D01*
X44870Y-4845D01*
X45019Y-4906D01*
X45181D01*
X45330Y-4845D01*
X45445Y-4730D01*
X45506Y-4581D01*
Y-4419D01*
X45445Y-4270D01*
X45330Y-4155D01*
X45181Y-4094D01*
D02*
G37*
G36*
X30856Y2506D02*
X30694D01*
X30545Y2445D01*
X30465Y2365D01*
X30400Y2341D01*
X30335Y2365D01*
X30255Y2445D01*
X30106Y2506D01*
X29944D01*
X29795Y2445D01*
X29680Y2330D01*
X29619Y2181D01*
Y2019D01*
X29680Y1870D01*
X29795Y1755D01*
X29944Y1694D01*
X30106D01*
X30255Y1755D01*
X30335Y1835D01*
X30400Y1859D01*
X30465Y1835D01*
X30545Y1755D01*
X30694Y1694D01*
X30856D01*
X31005Y1755D01*
X31120Y1870D01*
X31181Y2019D01*
Y2181D01*
X31120Y2330D01*
X31005Y2445D01*
X30856Y2506D01*
D02*
G37*
G36*
X31331Y1106D02*
X31169D01*
X31020Y1045D01*
X30905Y930D01*
X30844Y781D01*
Y619D01*
X30905Y470D01*
X31020Y355D01*
X31169Y294D01*
X31331D01*
X31480Y355D01*
X31595Y470D01*
X31656Y619D01*
Y781D01*
X31595Y930D01*
X31480Y1045D01*
X31331Y1106D01*
D02*
G37*
G36*
X28485Y1831D02*
X28165D01*
X28090Y1816D01*
X28026Y1774D01*
X27984Y1710D01*
X27969Y1635D01*
Y1165D01*
X27984Y1090D01*
X28026Y1026D01*
Y974D01*
X27984Y910D01*
X27969Y835D01*
Y365D01*
X27984Y290D01*
X28026Y226D01*
X28090Y184D01*
X28165Y169D01*
X28485D01*
X28560Y184D01*
X28624Y226D01*
X28652Y269D01*
X28706D01*
X28855Y330D01*
X28888Y363D01*
X28980Y345D01*
X29067Y258D01*
X29028Y156D01*
X29019D01*
X28870Y95D01*
X28755Y-20D01*
X28694Y-169D01*
Y-331D01*
X28755Y-480D01*
X28870Y-595D01*
X29019Y-656D01*
X29181D01*
X29283Y-614D01*
X29387Y-718D01*
X29590Y-802D01*
X29810D01*
X30013Y-718D01*
X30168Y-563D01*
X30252Y-360D01*
Y-140D01*
X30168Y63D01*
X30013Y218D01*
X29821Y298D01*
X29805Y313D01*
X29763Y404D01*
X29787Y448D01*
X29810D01*
X30013Y532D01*
X30168Y687D01*
X30252Y890D01*
Y1110D01*
X30168Y1313D01*
X30013Y1468D01*
X29810Y1552D01*
X29590D01*
X29387Y1468D01*
X29232Y1313D01*
X29148Y1110D01*
Y941D01*
X29095Y920D01*
X29062Y887D01*
X28970Y905D01*
X28875Y1000D01*
X28970Y1095D01*
X29031Y1244D01*
Y1406D01*
X28970Y1555D01*
X28855Y1670D01*
X28706Y1731D01*
X28652D01*
X28624Y1774D01*
X28560Y1816D01*
X28485Y1831D01*
D02*
G37*
%LPD*%
D10*
X28401Y2750D02*
G03*
X27888Y2537I0J-726D01*
G01*
X57386Y-4164D02*
G03*
X57775Y-3225I-939J939D01*
G01*
X23501Y1701D02*
G03*
X23303Y1275I486J-486D01*
G01*
X24300Y650D02*
G03*
X24650Y300I350J0D01*
G01*
X23800Y604D02*
G03*
X24050Y0I854J0D01*
G01*
X26850Y-1413D02*
G03*
X26611Y-836I-815J0D01*
G01*
X25652Y123D02*
G03*
X25225Y300I-427J-427D01*
G01*
X42256Y-3631D02*
G03*
X41361Y-3736I-381J-619D01*
G01*
X23550Y-3575D02*
G03*
X24338Y-3901I788J788D01*
G01*
X40963D02*
G03*
X41361Y-3737I0J564D01*
G01*
X24800Y1454D02*
G03*
X23904Y2350I-896J0D01*
G01*
X23300D02*
G03*
X23000Y2050I0J-300D01*
G01*
X23303Y1275D02*
G03*
X23300Y1215I685J-60D01*
G01*
X41745Y2790D02*
G03*
X40333Y3375I-1412J-1412D01*
G01*
X41361Y-3737D02*
X41361Y-3736D01*
X27675Y2325D02*
X27888Y2537D01*
X28401Y2750D02*
X29150D01*
X52869Y-3631D02*
X52875Y-3625D01*
X42256Y-3631D02*
X52869D01*
X57050Y-4500D02*
X57386Y-4164D01*
X23501Y1701D02*
X23700Y1900D01*
X23501Y1701D02*
X23501Y1701D01*
X24650Y300D02*
X25225D01*
X24300Y650D02*
Y1000D01*
X23800Y604D02*
Y1000D01*
X26850Y-1750D02*
Y-1413D01*
X25652Y123D02*
X26611Y-836D01*
X29800Y3375D02*
X40333D01*
X24338Y-3901D02*
X40963D01*
X23300Y2350D02*
X23904D01*
X24800Y1000D02*
Y1454D01*
Y675D02*
Y1000D01*
X23300Y1000D02*
Y1215D01*
Y875D02*
Y1000D01*
X22325Y875D02*
X23300D01*
X43525Y-425D02*
Y100D01*
X29675Y3250D02*
X29800Y3375D01*
X24800Y675D02*
X25975D01*
X22325Y725D02*
Y875D01*
X5305Y-2890D02*
G03*
X5305Y-2890I-325J0D01*
G01*
Y2890D02*
G03*
X5305Y2890I-325J0D01*
G01*
D11*
X44375Y-1700D02*
G03*
X46850Y-2725I2475J2475D01*
G01*
X20625Y4150D02*
G03*
X20475Y4000I0J-150D01*
G01*
X30900Y-2100D02*
G03*
X30089Y-2436I0J-1147D01*
G01*
X29301Y-2800D02*
G03*
X30025Y-2500I0J1024D01*
G01*
X25991Y3709D02*
G03*
X24925Y4150I-1066J-1068D01*
G01*
X26437Y3263D02*
G03*
X26436Y3264I-939J-938D01*
G01*
X26825Y2325D02*
G03*
X26437Y3263I-1328J0D01*
G01*
X25992Y3708D02*
G03*
X25991Y3709I-1067J-1067D01*
G01*
X44374Y-1699D02*
G03*
X43409Y-1300I-965J-966D01*
G01*
X44375Y-1700D02*
G03*
X44374Y-1699I-966J-966D01*
G01*
X50698Y-2725D02*
G03*
X52494Y-1981I0J2540D01*
G01*
X52050Y-975D02*
G03*
X52775Y-1700I725J0D01*
G01*
X26050Y-2250D02*
G03*
X25725Y-1925I-325J0D01*
G01*
X23800Y-1444D02*
G03*
X24281Y-1925I481J0D01*
G01*
X32700Y-2575D02*
G03*
X33847Y-3050I1147J1147D01*
G01*
X40375D02*
G03*
X41725Y-1700I0J1350D01*
G01*
X21475Y725D02*
G03*
X21200Y450I0J-275D01*
G01*
X12235Y-2250D02*
G03*
X11450Y-2575I0J-1110D01*
G01*
X45675Y-1275D02*
G03*
X46100Y-1700I425J0D01*
G01*
X46850Y-2725D02*
X50698D01*
X20475Y3050D02*
Y4000D01*
X20625Y4150D02*
X24925D01*
X30025Y-2500D02*
X30089Y-2436D01*
X26050Y-2800D02*
X29301D01*
X26825Y1400D02*
Y2325D01*
X25992Y3708D02*
X26436Y3264D01*
X5575Y-1225D02*
X6300D01*
X3830D02*
X5575D01*
X3820Y-1215D02*
X3830Y-1225D01*
X58625Y-3225D02*
Y-1700D01*
X30950Y-2100D02*
X31750D01*
X32225D01*
X41725Y-1300D02*
X43409D01*
X52494Y-1981D02*
X52775Y-1700D01*
X52050Y-975D02*
Y-900D01*
X48375Y-1700D02*
X52775Y1700D01*
X24281Y-1925D02*
X25725D01*
X26050Y-2575D02*
Y-2250D01*
Y-2800D02*
Y-2575D01*
Y-3000D02*
Y-2800D01*
X46575Y-1700D02*
X48375D01*
X46100D02*
X46575D01*
X26825Y600D02*
X27475D01*
X26400Y2325D02*
X26800D01*
X26825Y600D02*
Y1400D01*
X32225Y-2100D02*
X32700Y-2575D01*
X33847Y-3050D02*
X40375D01*
X27475Y600D02*
Y1400D01*
X21200Y-875D02*
Y450D01*
X23800Y-1444D02*
Y-875D01*
X12235Y-2250D02*
X15700D01*
X45675Y-1275D02*
Y-250D01*
X20475Y-400D02*
Y3050D01*
Y-875D02*
Y-400D01*
Y-875D02*
X21200D01*
X41725Y-1700D02*
Y-1300D01*
X21200Y-875D02*
X23800D01*
X23800Y-875D01*
X19750Y3050D02*
X20475D01*
X18650D02*
X19750D01*
X36625Y2775D02*
Y2790D01*
Y1825D02*
Y2775D01*
Y2790D02*
X39205D01*
X13099Y-8271D02*
Y-7458D01*
X12692Y-7865D01*
X13234D01*
X13505Y-7729D02*
X13640D01*
Y-7865D01*
X13505D01*
Y-7729D01*
Y-8135D02*
X13640D01*
Y-8271D01*
X13505D01*
Y-8135D01*
X14995Y-7458D02*
Y-8271D01*
X15401D01*
X15536Y-8135D01*
Y-8000D01*
X15401Y-7865D01*
X14995D01*
X15401D01*
X15536Y-7729D01*
Y-7594D01*
X15401Y-7458D01*
X14995D01*
X15943Y-8271D02*
X16213D01*
X16349Y-8135D01*
Y-7865D01*
X16213Y-7729D01*
X15943D01*
X15807Y-7865D01*
Y-8135D01*
X15943Y-8271D01*
X16755Y-7594D02*
Y-7729D01*
X16620D01*
X16891D01*
X16755D01*
Y-8135D01*
X16891Y-8271D01*
X17432Y-7594D02*
Y-7729D01*
X17297D01*
X17568D01*
X17432D01*
Y-8135D01*
X17568Y-8271D01*
X18109D02*
X18380D01*
X18516Y-8135D01*
Y-7865D01*
X18380Y-7729D01*
X18109D01*
X17974Y-7865D01*
Y-8135D01*
X18109Y-8271D01*
X18786D02*
Y-7729D01*
X18922D01*
X19057Y-7865D01*
Y-8271D01*
Y-7865D01*
X19193Y-7729D01*
X19328Y-7865D01*
Y-8271D01*
X20412Y-7458D02*
Y-8271D01*
X20953D01*
X21359Y-7729D02*
X21630D01*
X21766Y-7865D01*
Y-8271D01*
X21359D01*
X21224Y-8135D01*
X21359Y-8000D01*
X21766D01*
X22037Y-7729D02*
Y-8135D01*
X22172Y-8271D01*
X22578D01*
Y-8406D01*
X22443Y-8542D01*
X22307D01*
X22578Y-8271D02*
Y-7729D01*
X23255Y-8271D02*
X22985D01*
X22849Y-8135D01*
Y-7865D01*
X22985Y-7729D01*
X23255D01*
X23391Y-7865D01*
Y-8000D01*
X22849D01*
X23662Y-7729D02*
Y-8271D01*
Y-8000D01*
X23797Y-7865D01*
X23933Y-7729D01*
X24068D01*
X25287Y-8271D02*
X25558D01*
X25422D01*
Y-7458D01*
X25287Y-7594D01*
X72500Y-5750D02*
G03*
X73000Y-5250I0J500D01*
G01*
X73000Y5250D02*
G03*
X72500Y5750I-500J0D01*
G01*
X85800Y3000D02*
G03*
X85300Y3500I-500J0D01*
G01*
X85300Y-3500D02*
G03*
X85800Y-3000I0J500D01*
G01*
X-800Y5750D02*
G03*
X-1300Y5250I0J-500D01*
G01*
X-1300Y-5250D02*
G03*
X-800Y-5750I500J0D01*
G01*
X85800Y-3000D02*
Y3000D01*
X73000Y3500D02*
X85300D01*
X73000Y-3500D02*
X85300D01*
X73000Y-5250D02*
Y-3500D01*
X-800Y-5750D02*
X72500Y-5750D01*
X73000Y3500D02*
Y5250D01*
X-800Y5750D02*
X72500Y5750D01*
X-1300Y-5250D02*
Y5250D01*
D12*
X30900Y-2100D02*
D03*
Y-3050D02*
D03*
D16*
X12475Y25D02*
D03*
Y875D02*
D03*
X24025Y-3675D02*
D03*
Y-2825D02*
D03*
X21200Y-1725D02*
D03*
Y-875D02*
D03*
X5575Y-2075D02*
D03*
Y-1225D02*
D03*
X19750Y3050D02*
D03*
Y2200D02*
D03*
X18875Y500D02*
D03*
Y-350D02*
D03*
X3325Y1825D02*
D03*
Y2675D02*
D03*
X3850Y-4000D02*
D03*
Y-3150D02*
D03*
X8475Y1625D02*
D03*
Y2475D02*
D03*
Y825D02*
D03*
Y-25D02*
D03*
X31750Y-2100D02*
D03*
Y-2950D02*
D03*
X37500Y2775D02*
D03*
Y1925D02*
D03*
X43525Y2600D02*
D03*
Y1750D02*
D03*
Y950D02*
D03*
Y100D02*
D03*
D18*
X11450Y3075D02*
D03*
X10500D02*
D03*
X35775Y-1650D02*
D03*
X36725D02*
D03*
X33450Y-2100D02*
D03*
X34400D02*
D03*
X43500Y-2050D02*
D03*
X42550D02*
D03*
D19*
X28325Y1400D02*
D03*
X27475D02*
D03*
X10600Y-3950D02*
D03*
X11450D02*
D03*
X8650D02*
D03*
X9500D02*
D03*
X11450Y-2575D02*
D03*
X10600D02*
D03*
X8650D02*
D03*
X9500D02*
D03*
X7150Y-1225D02*
D03*
X6300D02*
D03*
X20475Y-400D02*
D03*
X19625D02*
D03*
X20475Y3050D02*
D03*
X21325D02*
D03*
X26825Y1400D02*
D03*
X25975D02*
D03*
X26825Y2325D02*
D03*
X27675D02*
D03*
X25975Y600D02*
D03*
X26825D02*
D03*
X28325D02*
D03*
X27475D02*
D03*
X22325Y725D02*
D03*
X21475D02*
D03*
X26050Y-2575D02*
D03*
X25200D02*
D03*
X35775Y-2500D02*
D03*
X36625D02*
D03*
X33500Y-700D02*
D03*
X34350D02*
D03*
X36625Y1825D02*
D03*
X35775D02*
D03*
X36625Y2775D02*
D03*
X35775D02*
D03*
X57625Y1850D02*
D03*
X58475D02*
D03*
X62275Y3100D02*
D03*
X61425D02*
D03*
X58625Y-3225D02*
D03*
X57775D02*
D03*
D25*
X9535Y1270D02*
D03*
X11440D02*
D03*
X10500Y-1270D02*
D03*
X9535D02*
D03*
X11440D02*
D03*
X10500Y1270D02*
D03*
D27*
X29700Y-250D02*
D03*
Y1000D02*
D03*
X17350Y-300D02*
D03*
X78500Y2625D02*
D03*
X82300Y2600D02*
D03*
X74625D02*
D03*
X78500Y0D02*
D03*
X74625Y-775D02*
D03*
X81900Y-750D02*
D03*
X85050Y2600D02*
D03*
X81900Y1000D02*
D03*
X74625D02*
D03*
X62625Y-250D02*
D03*
X61625Y-1900D02*
D03*
Y300D02*
D03*
X62625Y-1350D02*
D03*
X61625Y-800D02*
D03*
X83650Y0D02*
D03*
X85050D02*
D03*
X64950Y595D02*
D03*
Y-675D02*
D03*
X63850Y-1320D02*
D03*
X64950Y-1945D02*
D03*
X63850Y-50D02*
D03*
Y1220D02*
D03*
X84350Y-2625D02*
D03*
X64950Y1865D02*
D03*
D58*
X42356Y-4250D02*
G03*
X41400Y-4175I-481J0D01*
G01*
X23050Y-3575D02*
G03*
X23650Y-4175I600J-0D01*
G01*
X23587Y-2825D02*
G03*
X23050Y-3362I0J-538D01*
G01*
X22050Y250D02*
G03*
X21725Y-75I0J-325D01*
G01*
X23650Y-4175D02*
X41400Y-4175D01*
X23050Y-3575D02*
Y-3362D01*
X23587Y-2825D02*
X24025D01*
X22050Y250D02*
X23050D01*
X21725Y-250D02*
Y-75D01*
X23050Y-250D02*
X23175D01*
X22425D02*
X23050D01*
X32650Y-700D02*
X33500D01*
X8849Y4849D02*
X9650Y3875D01*
D60*
X23501Y1701D02*
D03*
D61*
X7375Y-2675D02*
G03*
X8650Y-3950I1275J0D01*
G01*
X3325Y1185D02*
G03*
X3820Y690I495J0D01*
G01*
X7375Y-2675D02*
Y-2400D01*
X10050Y-3950D02*
X10600D01*
X9500D02*
X10050D01*
X43525Y950D02*
Y1750D01*
X44675D01*
X3325Y1185D02*
Y1825D01*
X35775D02*
Y2775D01*
Y600D02*
Y1825D01*
Y-1650D02*
Y600D01*
Y-2500D02*
Y-1650D01*
X35375Y-2500D02*
X35775D01*
X1280Y690D02*
X2215D01*
X2225Y700D01*
X1280Y-1215D02*
X2215D01*
X2225Y-1225D01*
D65*
X1300Y4320D02*
D03*
Y-4320D02*
D03*
D66*
X5480D02*
D03*
Y4320D02*
D03*
D67*
X18050Y-3350D02*
D03*
X54375Y-1850D02*
D03*
X51100Y3925D02*
D03*
X3325Y3225D02*
D03*
X52875Y-3625D02*
D03*
X42900Y-4175D02*
D03*
X49625Y-4250D02*
D03*
X46875D02*
D03*
X48200D02*
D03*
X44275Y-4175D02*
D03*
X51708Y-4250D02*
D03*
X57050Y-4500D02*
D03*
X41550Y0D02*
D03*
X55650Y-4250D02*
D03*
X67550Y-3100D02*
D03*
X64225D02*
D03*
X60525D02*
D03*
X54850Y2050D02*
D03*
X55375Y-2650D02*
D03*
X57775Y-2425D02*
D03*
X50000Y-2075D02*
D03*
X45750Y-3100D02*
D03*
X51475Y-25D02*
D03*
X49500D02*
D03*
X58475Y3300D02*
D03*
X58600Y200D02*
D03*
X59075Y-675D02*
D03*
Y1075D02*
D03*
X72050Y3075D02*
D03*
X63850D02*
D03*
X65900D02*
D03*
X70000Y4925D02*
D03*
X65900D02*
D03*
X42850Y1350D02*
D03*
X36575Y3925D02*
D03*
X29500Y-1125D02*
D03*
X26175Y-1350D02*
D03*
X20550Y-2600D02*
D03*
X11025Y-3275D02*
D03*
X12350Y-4700D02*
D03*
X13400Y3200D02*
D03*
X12325Y-1600D02*
D03*
X7600Y-4200D02*
D03*
X9075Y-4700D02*
D03*
X8225D02*
D03*
X7075Y-3650D02*
D03*
X7675Y4450D02*
D03*
X17950Y-975D02*
D03*
X27525Y-3375D02*
D03*
X29150Y2750D02*
D03*
X29275Y1800D02*
D03*
X29325Y575D02*
D03*
X30775Y2100D02*
D03*
X30025D02*
D03*
X25800Y1925D02*
D03*
X23700Y1900D02*
D03*
X8650Y-3125D02*
D03*
X18775Y-4650D02*
D03*
X41875Y-4250D02*
D03*
X69250D02*
D03*
X24450Y-2750D02*
D03*
X29100Y-250D02*
D03*
X33775Y-2100D02*
D03*
X59625Y3850D02*
D03*
X21550Y-3575D02*
D03*
X22050Y-3150D02*
D03*
X22550Y-3575D02*
D03*
X18050Y-2250D02*
D03*
X32225Y-2100D02*
D03*
X43525Y-425D02*
D03*
X26850Y-1750D02*
D03*
X29675Y3250D02*
D03*
X48900Y-4500D02*
D03*
X24650Y3525D02*
D03*
X23950D02*
D03*
X52050Y-900D02*
D03*
X10050Y-3950D02*
D03*
X28375Y-1400D02*
D03*
Y-2100D02*
D03*
X24050Y0D02*
D03*
X25409Y-641D02*
D03*
X30025Y3925D02*
D03*
X28850Y3975D02*
D03*
X28175D02*
D03*
X27500D02*
D03*
X26825D02*
D03*
X31250Y700D02*
D03*
X40450Y-25D02*
D03*
X26050Y-3000D02*
D03*
X22050Y3075D02*
D03*
X32650Y-1400D02*
D03*
X23550Y-3575D02*
D03*
X45100Y-4500D02*
D03*
X23000Y-2600D02*
D03*
X15225Y-4700D02*
D03*
X22425Y-250D02*
D03*
X21725D02*
D03*
X23000Y2050D02*
D03*
X22500Y2550D02*
D03*
X26400Y2325D02*
D03*
X25100Y2300D02*
D03*
X28625Y675D02*
D03*
Y1325D02*
D03*
X28375Y2150D02*
D03*
X21050Y3575D02*
D03*
X20475Y-875D02*
D03*
X32650Y-700D02*
D03*
X61025Y3850D02*
D03*
X51700Y-3100D02*
D03*
X47175Y-300D02*
D03*
X44275Y-875D02*
D03*
X34900Y-1375D02*
D03*
X38000Y1925D02*
D03*
X39400Y3925D02*
D03*
X33175D02*
D03*
X37550Y-2425D02*
D03*
X33175Y2425D02*
D03*
X46050Y950D02*
D03*
X3850Y-2475D02*
D03*
X26675Y-3375D02*
D03*
X30075D02*
D03*
X33175Y50D02*
D03*
X29100Y-3375D02*
D03*
X49075Y3925D02*
D03*
X44275Y-3100D02*
D03*
X42900Y-3125D02*
D03*
X71825Y-750D02*
D03*
X63850Y4925D02*
D03*
X62233Y-4250D02*
D03*
X55625Y3925D02*
D03*
X53892Y-4250D02*
D03*
X48100Y975D02*
D03*
X42525Y3925D02*
D03*
X45800D02*
D03*
X36675Y-700D02*
D03*
X36900Y600D02*
D03*
X34900Y50D02*
D03*
Y2425D02*
D03*
X2225Y-250D02*
D03*
X14550Y-1600D02*
D03*
X14525Y-3275D02*
D03*
X12325Y-800D02*
D03*
X14800Y1675D02*
D03*
X15875Y3800D02*
D03*
X18075D02*
D03*
X12350Y-3275D02*
D03*
X8650Y-1275D02*
D03*
X25475Y-3375D02*
D03*
X21025Y1375D02*
D03*
X22550Y3575D02*
D03*
X22225Y-1500D02*
D03*
X17100Y-3275D02*
D03*
X34075Y1200D02*
D03*
X16050Y-2250D02*
D03*
X35375Y-2500D02*
D03*
X19900Y450D02*
D03*
Y1775D02*
D03*
X12075Y3550D02*
D03*
X18650Y3050D02*
D03*
X20475Y4000D02*
D03*
X8849Y4849D02*
D03*
X9650Y3875D02*
D03*
X17950Y-250D02*
D03*
X5375Y750D02*
D03*
Y-250D02*
D03*
X67950Y4925D02*
D03*
X7050Y3900D02*
D03*
X72050Y4925D02*
D03*
X65742Y-4250D02*
D03*
X47500Y2675D02*
D03*
X58725Y-4250D02*
D03*
X10675Y-25D02*
D03*
X1550Y1750D02*
D03*
X7050Y5025D02*
D03*
X4375Y2000D02*
D03*
X1550Y-2700D02*
D03*
X2225Y-1225D02*
D03*
Y700D02*
D03*
D68*
X7375Y2400D02*
D03*
Y-2400D02*
D03*
D69*
X5766Y-4606D02*
G03*
X7562Y-5350I1796J1796D01*
G01*
X69925D01*
X5480Y-4320D02*
X5766Y-4606D01*
X72650Y-2625D02*
X84350D01*
X69925Y-5350D02*
X72650Y-2625D01*
D70*
X60625Y1855D02*
G03*
X61425Y2655I0J800D01*
G01*
Y3100D01*
X57625Y300D02*
Y1850D01*
X58475Y1855D02*
X60625D01*
X58475Y1850D02*
Y1855D01*
X8475Y825D02*
X9535D01*
X8475D02*
Y1625D01*
X9535Y825D02*
Y1270D01*
Y-2575D02*
Y-1270D01*
X9550Y-2575D02*
X10550D01*
X9535D02*
X9550D01*
D71*
X19625Y-400D02*
G03*
X19384Y-300I-241J-241D01*
G01*
X17350D02*
X19384D01*
D72*
X11850Y-25D02*
G03*
X11440Y-435I0J-410D01*
G01*
Y-1270D02*
Y-435D01*
X11850Y-25D02*
X12475D01*
X13400Y475D02*
Y2300D01*
Y0D02*
Y475D01*
D73*
X41745Y2790D02*
D03*
Y885D02*
D03*
X39205Y1825D02*
D03*
Y2790D02*
D03*
Y885D02*
D03*
X3820Y690D02*
D03*
Y-1215D02*
D03*
Y-250D02*
D03*
X1280Y690D02*
D03*
Y-1215D02*
D03*
D74*
X2775Y-3100D02*
D03*
Y-4050D02*
D03*
D75*
X15600Y2300D02*
D03*
X13400D02*
D03*
X37975Y600D02*
D03*
X35775D02*
D03*
X44375Y-1700D02*
D03*
X46575D02*
D03*
D76*
X17100Y-2250D02*
D03*
X15700D02*
D03*
X35775Y-675D02*
D03*
X37175D02*
D03*
D77*
X52775Y1700D02*
D03*
Y-1700D02*
D03*
X48375Y-1700D02*
D03*
D78*
X23300Y1000D02*
D03*
Y-1000D02*
D03*
X23800Y1000D02*
D03*
X23800Y-1000D02*
D03*
X24300Y1000D02*
D03*
X24300Y-1000D02*
D03*
X24800Y1000D02*
D03*
D79*
X23050Y250D02*
D03*
D80*
X23050Y-250D02*
D03*
X25050D02*
D03*
D81*
X24800Y-1000D02*
D03*
D82*
X44675Y1750D02*
D03*
X46675D02*
D03*
X58625Y-1700D02*
D03*
X56625D02*
D03*
D83*
X45675Y-250D02*
D03*
X57625Y300D02*
D03*
D84*
X39425Y-1300D02*
D03*
X41725D02*
D03*
X13400Y0D02*
D03*
D85*
X15700D02*
D03*
D86*
X66025Y1855D02*
D03*
Y585D02*
D03*
Y-685D02*
D03*
Y-1955D02*
D03*
X60625Y-685D02*
D03*
Y585D02*
D03*
Y1855D02*
D03*
Y-1950D02*
D03*
D87*
X7375Y-2400D02*
Y-1500D01*
Y2400D01*
D88*
X64485Y585D02*
X66025D01*
X64485Y1855D02*
X66025D01*
X64485Y-1955D02*
X66025D01*
X64485Y-685D02*
X66025D01*
X63850Y1220D02*
X63850Y1220D01*
X63850Y1220D02*
X63850Y1220D01*
X63850Y-50D02*
X63850Y-50D01*
X63850Y-50D02*
X63850Y-50D01*
X63850Y-1320D02*
X64485Y-1955D01*
X63850Y-1320D02*
X64485Y-685D01*
X63850Y-50D02*
X64485Y585D01*
X63850Y-50D02*
X64485Y-685D01*
X63850Y1220D02*
X64485Y1855D01*
X63850Y1220D02*
X64485Y585D01*
D89*
X15700Y-2250D02*
Y0D01*
M02*
