G04*
G04 #@! TF.GenerationSoftware,Altium Limited,Altium Designer,24.2.2 (26)*
G04*
G04 Layer_Color=16711935*
%FSLAX43Y43*%
%MOMM*%
G71*
G04*
G04 #@! TF.SameCoordinates,1F1FED76-AB6C-4830-BD65-6DDC81D4C714*
G04*
G04*
G04 #@! TF.FilePolarity,Negative*
G04*
G01*
G75*
%ADD10C,0.127*%
%ADD11C,0.203*%
%ADD27C,0.800*%
G04:AMPARAMS|DCode=37|XSize=0.42mm|YSize=0.72mm|CornerRadius=0.05mm|HoleSize=0mm|Usage=FLASHONLY|Rotation=270.000|XOffset=0mm|YOffset=0mm|HoleType=Round|Shape=RoundedRectangle|*
%AMROUNDEDRECTD37*
21,1,0.420,0.620,0,0,270.0*
21,1,0.320,0.720,0,0,270.0*
1,1,0.100,-0.310,-0.160*
1,1,0.100,-0.310,0.160*
1,1,0.100,0.310,0.160*
1,1,0.100,0.310,-0.160*
%
%ADD37ROUNDEDRECTD37*%
G04:AMPARAMS|DCode=41|XSize=0.42mm|YSize=0.57mm|CornerRadius=0.05mm|HoleSize=0mm|Usage=FLASHONLY|Rotation=90.000|XOffset=0mm|YOffset=0mm|HoleType=Round|Shape=RoundedRectangle|*
%AMROUNDEDRECTD41*
21,1,0.420,0.470,0,0,90.0*
21,1,0.320,0.570,0,0,90.0*
1,1,0.100,0.235,0.160*
1,1,0.100,0.235,-0.160*
1,1,0.100,-0.235,-0.160*
1,1,0.100,-0.235,0.160*
%
%ADD41ROUNDEDRECTD41*%
G04:AMPARAMS|DCode=43|XSize=0.42mm|YSize=0.72mm|CornerRadius=0.05mm|HoleSize=0mm|Usage=FLASHONLY|Rotation=180.000|XOffset=0mm|YOffset=0mm|HoleType=Round|Shape=RoundedRectangle|*
%AMROUNDEDRECTD43*
21,1,0.420,0.620,0,0,180.0*
21,1,0.320,0.720,0,0,180.0*
1,1,0.100,-0.160,0.310*
1,1,0.100,0.160,0.310*
1,1,0.100,0.160,-0.310*
1,1,0.100,-0.160,-0.310*
%
%ADD43ROUNDEDRECTD43*%
G04:AMPARAMS|DCode=44|XSize=0.42mm|YSize=0.57mm|CornerRadius=0.05mm|HoleSize=0mm|Usage=FLASHONLY|Rotation=180.000|XOffset=0mm|YOffset=0mm|HoleType=Round|Shape=RoundedRectangle|*
%AMROUNDEDRECTD44*
21,1,0.420,0.470,0,0,180.0*
21,1,0.320,0.570,0,0,180.0*
1,1,0.100,-0.160,0.235*
1,1,0.100,0.160,0.235*
1,1,0.100,0.160,-0.235*
1,1,0.100,-0.160,-0.235*
%
%ADD44ROUNDEDRECTD44*%
G04:AMPARAMS|DCode=49|XSize=0.548mm|YSize=1.31mm|CornerRadius=0.071mm|HoleSize=0mm|Usage=FLASHONLY|Rotation=180.000|XOffset=0mm|YOffset=0mm|HoleType=Round|Shape=RoundedRectangle|*
%AMROUNDEDRECTD49*
21,1,0.548,1.168,0,0,180.0*
21,1,0.406,1.310,0,0,180.0*
1,1,0.142,-0.203,0.584*
1,1,0.142,0.203,0.584*
1,1,0.142,0.203,-0.584*
1,1,0.142,-0.203,-0.584*
%
%ADD49ROUNDEDRECTD49*%
G04:AMPARAMS|DCode=56|XSize=1.26mm|YSize=1.86mm|CornerRadius=0.21mm|HoleSize=0mm|Usage=FLASHONLY|Rotation=90.000|XOffset=0mm|YOffset=0mm|HoleType=Round|Shape=RoundedRectangle|*
%AMROUNDEDRECTD56*
21,1,1.260,1.440,0,0,90.0*
21,1,0.840,1.860,0,0,90.0*
1,1,0.420,0.720,0.420*
1,1,0.420,0.720,-0.420*
1,1,0.420,-0.720,-0.420*
1,1,0.420,-0.720,0.420*
%
%ADD56ROUNDEDRECTD56*%
G04:AMPARAMS|DCode=57|XSize=1.26mm|YSize=2.16mm|CornerRadius=0.21mm|HoleSize=0mm|Usage=FLASHONLY|Rotation=270.000|XOffset=0mm|YOffset=0mm|HoleType=Round|Shape=RoundedRectangle|*
%AMROUNDEDRECTD57*
21,1,1.260,1.740,0,0,270.0*
21,1,0.840,2.160,0,0,270.0*
1,1,0.420,-0.870,-0.420*
1,1,0.420,-0.870,0.420*
1,1,0.420,0.870,0.420*
1,1,0.420,0.870,-0.420*
%
%ADD57ROUNDEDRECTD57*%
G04:AMPARAMS|DCode=86|XSize=1.2mm|YSize=0.6mm|CornerRadius=0.09mm|HoleSize=0mm|Usage=FLASHONLY|Rotation=0.000|XOffset=0mm|YOffset=0mm|HoleType=Round|Shape=RoundedRectangle|*
%AMROUNDEDRECTD86*
21,1,1.200,0.420,0,0,0.0*
21,1,1.020,0.600,0,0,0.0*
1,1,0.180,0.510,-0.210*
1,1,0.180,-0.510,-0.210*
1,1,0.180,-0.510,0.210*
1,1,0.180,0.510,0.210*
%
%ADD86ROUNDEDRECTD86*%
G04:AMPARAMS|DCode=90|XSize=0.548mm|YSize=1.31mm|CornerRadius=0.071mm|HoleSize=0mm|Usage=FLASHONLY|Rotation=270.000|XOffset=0mm|YOffset=0mm|HoleType=Round|Shape=RoundedRectangle|*
%AMROUNDEDRECTD90*
21,1,0.548,1.168,0,0,270.0*
21,1,0.406,1.310,0,0,270.0*
1,1,0.142,-0.584,-0.203*
1,1,0.142,-0.584,0.203*
1,1,0.142,0.584,0.203*
1,1,0.142,0.584,-0.203*
%
%ADD90ROUNDEDRECTD90*%
G04:AMPARAMS|DCode=91|XSize=0.61mm|YSize=0.71mm|CornerRadius=0.085mm|HoleSize=0mm|Usage=FLASHONLY|Rotation=270.000|XOffset=0mm|YOffset=0mm|HoleType=Round|Shape=RoundedRectangle|*
%AMROUNDEDRECTD91*
21,1,0.610,0.540,0,0,270.0*
21,1,0.440,0.710,0,0,270.0*
1,1,0.170,-0.270,-0.220*
1,1,0.170,-0.270,0.220*
1,1,0.170,0.270,0.220*
1,1,0.170,0.270,-0.220*
%
%ADD91ROUNDEDRECTD91*%
G04:AMPARAMS|DCode=92|XSize=0.851mm|YSize=0.551mm|CornerRadius=0.075mm|HoleSize=0mm|Usage=FLASHONLY|Rotation=0.000|XOffset=0mm|YOffset=0mm|HoleType=Round|Shape=RoundedRectangle|*
%AMROUNDEDRECTD92*
21,1,0.851,0.400,0,0,0.0*
21,1,0.700,0.551,0,0,0.0*
1,1,0.151,0.350,-0.200*
1,1,0.151,-0.350,-0.200*
1,1,0.151,-0.350,0.200*
1,1,0.151,0.350,0.200*
%
%ADD92ROUNDEDRECTD92*%
G04:AMPARAMS|DCode=93|XSize=0.54mm|YSize=0.84mm|CornerRadius=0.07mm|HoleSize=0mm|Usage=FLASHONLY|Rotation=180.000|XOffset=0mm|YOffset=0mm|HoleType=Round|Shape=RoundedRectangle|*
%AMROUNDEDRECTD93*
21,1,0.540,0.700,0,0,180.0*
21,1,0.400,0.840,0,0,180.0*
1,1,0.140,-0.200,0.350*
1,1,0.140,0.200,0.350*
1,1,0.140,0.200,-0.350*
1,1,0.140,-0.200,-0.350*
%
%ADD93ROUNDEDRECTD93*%
G04:AMPARAMS|DCode=94|XSize=2.051mm|YSize=1.351mm|CornerRadius=0.155mm|HoleSize=0mm|Usage=FLASHONLY|Rotation=180.000|XOffset=0mm|YOffset=0mm|HoleType=Round|Shape=RoundedRectangle|*
%AMROUNDEDRECTD94*
21,1,2.051,1.040,0,0,180.0*
21,1,1.740,1.351,0,0,180.0*
1,1,0.311,-0.870,0.520*
1,1,0.311,0.870,0.520*
1,1,0.311,0.870,-0.520*
1,1,0.311,-0.870,-0.520*
%
%ADD94ROUNDEDRECTD94*%
G04:AMPARAMS|DCode=95|XSize=0.84mm|YSize=0.29mm|CornerRadius=0.058mm|HoleSize=0mm|Usage=FLASHONLY|Rotation=270.000|XOffset=0mm|YOffset=0mm|HoleType=Round|Shape=RoundedRectangle|*
%AMROUNDEDRECTD95*
21,1,0.840,0.175,0,0,270.0*
21,1,0.725,0.290,0,0,270.0*
1,1,0.115,-0.088,-0.363*
1,1,0.115,-0.088,0.363*
1,1,0.115,0.088,0.363*
1,1,0.115,0.088,-0.363*
%
%ADD95ROUNDEDRECTD95*%
G04:AMPARAMS|DCode=96|XSize=0.29mm|YSize=0.84mm|CornerRadius=0.12mm|HoleSize=0mm|Usage=FLASHONLY|Rotation=270.000|XOffset=0mm|YOffset=0mm|HoleType=Round|Shape=RoundedRectangle|*
%AMROUNDEDRECTD96*
21,1,0.290,0.600,0,0,270.0*
21,1,0.050,0.840,0,0,270.0*
1,1,0.240,-0.300,-0.025*
1,1,0.240,-0.300,0.025*
1,1,0.240,0.300,0.025*
1,1,0.240,0.300,-0.025*
%
%ADD96ROUNDEDRECTD96*%
G04:AMPARAMS|DCode=97|XSize=0.29mm|YSize=0.84mm|CornerRadius=0.045mm|HoleSize=0mm|Usage=FLASHONLY|Rotation=270.000|XOffset=0mm|YOffset=0mm|HoleType=Round|Shape=RoundedRectangle|*
%AMROUNDEDRECTD97*
21,1,0.290,0.750,0,0,270.0*
21,1,0.200,0.840,0,0,270.0*
1,1,0.090,-0.375,-0.100*
1,1,0.090,-0.375,0.100*
1,1,0.090,0.375,0.100*
1,1,0.090,0.375,-0.100*
%
%ADD97ROUNDEDRECTD97*%
G04:AMPARAMS|DCode=98|XSize=0.84mm|YSize=0.29mm|CornerRadius=0.083mm|HoleSize=0mm|Usage=FLASHONLY|Rotation=270.000|XOffset=0mm|YOffset=0mm|HoleType=Round|Shape=RoundedRectangle|*
%AMROUNDEDRECTD98*
21,1,0.840,0.125,0,0,270.0*
21,1,0.675,0.290,0,0,270.0*
1,1,0.165,-0.063,-0.338*
1,1,0.165,-0.063,0.338*
1,1,0.165,0.063,0.338*
1,1,0.165,0.063,-0.338*
%
%ADD98ROUNDEDRECTD98*%
G04:AMPARAMS|DCode=99|XSize=0.954mm|YSize=0.954mm|CornerRadius=0.111mm|HoleSize=0mm|Usage=FLASHONLY|Rotation=0.000|XOffset=0mm|YOffset=0mm|HoleType=Round|Shape=RoundedRectangle|*
%AMROUNDEDRECTD99*
21,1,0.954,0.732,0,0,0.0*
21,1,0.732,0.954,0,0,0.0*
1,1,0.223,0.366,-0.366*
1,1,0.223,-0.366,-0.366*
1,1,0.223,-0.366,0.366*
1,1,0.223,0.366,0.366*
%
%ADD99ROUNDEDRECTD99*%
G04:AMPARAMS|DCode=100|XSize=0.954mm|YSize=1.31mm|CornerRadius=0.111mm|HoleSize=0mm|Usage=FLASHONLY|Rotation=0.000|XOffset=0mm|YOffset=0mm|HoleType=Round|Shape=RoundedRectangle|*
%AMROUNDEDRECTD100*
21,1,0.954,1.087,0,0,0.0*
21,1,0.732,1.310,0,0,0.0*
1,1,0.223,0.366,-0.544*
1,1,0.223,-0.366,-0.544*
1,1,0.223,-0.366,0.544*
1,1,0.223,0.366,0.544*
%
%ADD100ROUNDEDRECTD100*%
G04:AMPARAMS|DCode=101|XSize=2.8mm|YSize=0.9mm|CornerRadius=0.09mm|HoleSize=0mm|Usage=FLASHONLY|Rotation=90.000|XOffset=0mm|YOffset=0mm|HoleType=Round|Shape=RoundedRectangle|*
%AMROUNDEDRECTD101*
21,1,2.800,0.720,0,0,90.0*
21,1,2.620,0.900,0,0,90.0*
1,1,0.180,0.360,1.310*
1,1,0.180,0.360,-1.310*
1,1,0.180,-0.360,-1.310*
1,1,0.180,-0.360,1.310*
%
%ADD101ROUNDEDRECTD101*%
G04:AMPARAMS|DCode=102|XSize=2.6mm|YSize=0.9mm|CornerRadius=0.09mm|HoleSize=0mm|Usage=FLASHONLY|Rotation=90.000|XOffset=0mm|YOffset=0mm|HoleType=Round|Shape=RoundedRectangle|*
%AMROUNDEDRECTD102*
21,1,2.600,0.720,0,0,90.0*
21,1,2.420,0.900,0,0,90.0*
1,1,0.180,0.360,1.210*
1,1,0.180,0.360,-1.210*
1,1,0.180,-0.360,-1.210*
1,1,0.180,-0.360,1.210*
%
%ADD102ROUNDEDRECTD102*%
G36*
X68967Y3000D02*
X69007Y2992D01*
X69040Y2984D01*
X69066Y2972D01*
X69089Y2962D01*
X69101Y2954D01*
X69111Y2946D01*
X69114Y2944D01*
X69134Y2918D01*
X69150Y2888D01*
X69160Y2855D01*
X69167Y2822D01*
X69172Y2794D01*
X69175Y2771D01*
Y1847D01*
X69172Y1808D01*
X69167Y1778D01*
X69160Y1750D01*
X69150Y1727D01*
X69142Y1709D01*
X69134Y1697D01*
X69129Y1689D01*
X69127Y1687D01*
X69106Y1669D01*
X69086Y1654D01*
X69063Y1643D01*
X69043Y1638D01*
X69025Y1633D01*
X69010Y1631D01*
X69000D01*
X68997D01*
X68969Y1633D01*
X68944Y1638D01*
X68923Y1648D01*
X68906Y1659D01*
X68890Y1669D01*
X68880Y1679D01*
X68873Y1684D01*
X68870Y1687D01*
X68852Y1709D01*
X68840Y1735D01*
X68830Y1763D01*
X68824Y1788D01*
X68819Y1811D01*
X68817Y1829D01*
Y2576D01*
X67499D01*
X67455Y2578D01*
X67417Y2586D01*
X67384Y2596D01*
X67359Y2606D01*
X67336Y2616D01*
X67323Y2626D01*
X67313Y2634D01*
X67311Y2637D01*
X67288Y2662D01*
X67272Y2687D01*
X67260Y2713D01*
X67252Y2738D01*
X67247Y2761D01*
X67245Y2779D01*
Y2794D01*
X67247Y2827D01*
X67255Y2858D01*
X67265Y2883D01*
X67278Y2906D01*
X67290Y2924D01*
X67300Y2936D01*
X67308Y2944D01*
X67311Y2946D01*
X67336Y2964D01*
X67366Y2979D01*
X67397Y2990D01*
X67427Y2995D01*
X67455Y3000D01*
X67478Y3002D01*
X67493D01*
X67496D01*
X67499D01*
X68921D01*
X68967Y3000D01*
D02*
G37*
G36*
X68540Y1491D02*
X68598Y1486D01*
X68652Y1476D01*
X68703Y1463D01*
X68751Y1450D01*
X68794Y1433D01*
X68835Y1415D01*
X68870Y1397D01*
X68903Y1379D01*
X68931Y1364D01*
X68954Y1346D01*
X68974Y1334D01*
X68990Y1321D01*
X69000Y1311D01*
X69007Y1306D01*
X69010Y1303D01*
X69045Y1265D01*
X69073Y1224D01*
X69101Y1181D01*
X69122Y1138D01*
X69142Y1092D01*
X69157Y1049D01*
X69170Y1006D01*
X69180Y963D01*
X69190Y922D01*
X69195Y886D01*
X69200Y853D01*
X69203Y823D01*
Y800D01*
X69205Y782D01*
Y767D01*
X69203Y714D01*
X69200Y663D01*
X69193Y617D01*
X69185Y579D01*
X69180Y546D01*
X69172Y523D01*
X69170Y508D01*
X69167Y503D01*
X69152Y460D01*
X69137Y424D01*
X69119Y391D01*
X69104Y363D01*
X69089Y340D01*
X69078Y323D01*
X69071Y312D01*
X69068Y310D01*
X69045Y282D01*
X69023Y259D01*
X69002Y239D01*
X68982Y221D01*
X68964Y208D01*
X68951Y201D01*
X68944Y196D01*
X68941Y193D01*
X68916Y180D01*
X68893Y170D01*
X68873Y163D01*
X68855Y157D01*
X68840Y155D01*
X68830Y152D01*
X68822D01*
X68819D01*
X68796Y155D01*
X68776Y157D01*
X68761Y165D01*
X68746Y173D01*
X68736Y180D01*
X68728Y185D01*
X68723Y191D01*
X68720Y193D01*
X68708Y208D01*
X68697Y226D01*
X68692Y244D01*
X68687Y259D01*
X68685Y274D01*
X68682Y287D01*
Y317D01*
X68687Y335D01*
X68692Y351D01*
X68697Y366D01*
X68703Y376D01*
X68708Y384D01*
X68710Y386D01*
X68713Y389D01*
X68751Y429D01*
X68766Y447D01*
X68781Y462D01*
X68791Y475D01*
X68799Y485D01*
X68804Y490D01*
X68807Y493D01*
X68832Y526D01*
X68852Y554D01*
X68860Y564D01*
X68868Y574D01*
X68870Y579D01*
X68873Y582D01*
X68890Y615D01*
X68903Y643D01*
X68908Y655D01*
X68911Y665D01*
X68913Y671D01*
Y673D01*
X68921Y709D01*
X68923Y742D01*
X68926Y757D01*
Y777D01*
X68923Y808D01*
X68918Y838D01*
X68913Y864D01*
X68906Y886D01*
X68898Y907D01*
X68890Y919D01*
X68888Y930D01*
X68885Y932D01*
X68868Y958D01*
X68850Y978D01*
X68827Y998D01*
X68807Y1013D01*
X68789Y1026D01*
X68774Y1036D01*
X68763Y1041D01*
X68761Y1044D01*
X68730Y1059D01*
X68700Y1069D01*
X68669Y1077D01*
X68644Y1082D01*
X68621Y1087D01*
X68606Y1090D01*
X68593D01*
X68591D01*
Y442D01*
X68588Y391D01*
X68583Y345D01*
X68578Y307D01*
X68568Y274D01*
X68560Y249D01*
X68555Y231D01*
X68550Y218D01*
X68548Y216D01*
X68527Y188D01*
X68499Y168D01*
X68469Y152D01*
X68438Y142D01*
X68408Y137D01*
X68382Y132D01*
X68372D01*
X68365D01*
X68362D01*
X68360D01*
X68306Y135D01*
X68253Y145D01*
X68205Y155D01*
X68164Y170D01*
X68126Y183D01*
X68098Y196D01*
X68088Y201D01*
X68080Y206D01*
X68078Y208D01*
X68075D01*
X68024Y239D01*
X67979Y274D01*
X67941Y312D01*
X67905Y348D01*
X67880Y381D01*
X67859Y409D01*
X67854Y419D01*
X67849Y427D01*
X67844Y432D01*
Y434D01*
X67814Y493D01*
X67791Y554D01*
X67775Y615D01*
X67763Y671D01*
X67758Y719D01*
X67755Y739D01*
Y757D01*
X67753Y772D01*
Y792D01*
X67755Y851D01*
X67760Y907D01*
X67770Y955D01*
X67778Y1001D01*
X67788Y1036D01*
X67798Y1064D01*
X67801Y1074D01*
X67803Y1082D01*
X67806Y1085D01*
Y1087D01*
X67826Y1135D01*
X67852Y1179D01*
X67874Y1217D01*
X67900Y1247D01*
X67923Y1275D01*
X67941Y1295D01*
X67951Y1306D01*
X67956Y1311D01*
X67994Y1344D01*
X68032Y1372D01*
X68070Y1394D01*
X68108Y1412D01*
X68139Y1427D01*
X68164Y1440D01*
X68174Y1443D01*
X68182Y1445D01*
X68184Y1448D01*
X68187D01*
X68238Y1463D01*
X68288Y1473D01*
X68339Y1483D01*
X68382Y1488D01*
X68423Y1491D01*
X68438D01*
X68451Y1494D01*
X68464D01*
X68471D01*
X68476D01*
X68479D01*
X68540Y1491D01*
D02*
G37*
G36*
Y-61D02*
X68596Y-66D01*
X68644Y-74D01*
X68687Y-84D01*
X68723Y-91D01*
X68751Y-99D01*
X68761Y-102D01*
X68769Y-104D01*
X68771Y-107D01*
X68774D01*
X68822Y-127D01*
X68865Y-150D01*
X68906Y-173D01*
X68939Y-196D01*
X68967Y-216D01*
X68987Y-234D01*
X69000Y-244D01*
X69005Y-249D01*
X69038Y-287D01*
X69068Y-325D01*
X69094Y-363D01*
X69117Y-399D01*
X69132Y-429D01*
X69144Y-452D01*
X69150Y-462D01*
X69152Y-470D01*
X69155Y-472D01*
Y-475D01*
X69172Y-526D01*
X69185Y-577D01*
X69193Y-625D01*
X69198Y-671D01*
X69203Y-709D01*
Y-726D01*
X69205Y-739D01*
Y-767D01*
X69203Y-826D01*
X69198Y-881D01*
X69190Y-932D01*
X69180Y-975D01*
X69170Y-1011D01*
X69162Y-1039D01*
X69160Y-1049D01*
X69157Y-1057D01*
X69155Y-1059D01*
Y-1062D01*
X69134Y-1110D01*
X69109Y-1153D01*
X69086Y-1191D01*
X69061Y-1224D01*
X69040Y-1252D01*
X69023Y-1270D01*
X69012Y-1283D01*
X69007Y-1288D01*
X68969Y-1321D01*
X68929Y-1351D01*
X68890Y-1377D01*
X68852Y-1397D01*
X68822Y-1412D01*
X68796Y-1422D01*
X68786Y-1427D01*
X68779Y-1430D01*
X68776Y-1433D01*
X68774D01*
X68723Y-1450D01*
X68672Y-1463D01*
X68621Y-1471D01*
X68578Y-1478D01*
X68537Y-1481D01*
X68522D01*
X68507Y-1483D01*
X68497D01*
X68489D01*
X68484D01*
X68482D01*
X68423Y-1481D01*
X68370Y-1476D01*
X68322Y-1468D01*
X68278Y-1458D01*
X68243Y-1448D01*
X68215Y-1440D01*
X68205Y-1438D01*
X68197Y-1435D01*
X68195Y-1433D01*
X68192D01*
X68144Y-1412D01*
X68098Y-1389D01*
X68060Y-1367D01*
X68027Y-1341D01*
X67999Y-1321D01*
X67979Y-1303D01*
X67966Y-1293D01*
X67961Y-1288D01*
X67925Y-1252D01*
X67895Y-1212D01*
X67869Y-1173D01*
X67847Y-1138D01*
X67831Y-1107D01*
X67819Y-1082D01*
X67814Y-1072D01*
X67811Y-1064D01*
X67808Y-1062D01*
Y-1059D01*
X67791Y-1008D01*
X67778Y-958D01*
X67768Y-909D01*
X67763Y-864D01*
X67758Y-826D01*
Y-808D01*
X67755Y-795D01*
Y-767D01*
X67758Y-709D01*
X67763Y-653D01*
X67773Y-605D01*
X67780Y-561D01*
X67791Y-526D01*
X67801Y-498D01*
X67803Y-488D01*
X67806Y-480D01*
X67808Y-478D01*
Y-475D01*
X67829Y-427D01*
X67852Y-384D01*
X67877Y-345D01*
X67900Y-312D01*
X67923Y-284D01*
X67941Y-267D01*
X67951Y-254D01*
X67956Y-249D01*
X67994Y-216D01*
X68032Y-188D01*
X68070Y-163D01*
X68108Y-142D01*
X68139Y-127D01*
X68164Y-117D01*
X68174Y-112D01*
X68182Y-109D01*
X68184Y-107D01*
X68187D01*
X68238Y-91D01*
X68288Y-79D01*
X68339Y-71D01*
X68382Y-64D01*
X68423Y-61D01*
X68441D01*
X68454Y-58D01*
X68466D01*
X68474D01*
X68479D01*
X68482D01*
X68540Y-61D01*
D02*
G37*
G36*
X69012Y-1725D02*
X69045Y-1730D01*
X69076Y-1740D01*
X69099Y-1750D01*
X69119Y-1758D01*
X69134Y-1768D01*
X69142Y-1773D01*
X69144Y-1775D01*
X69165Y-1796D01*
X69180Y-1819D01*
X69190Y-1844D01*
X69198Y-1864D01*
X69203Y-1885D01*
X69205Y-1900D01*
Y-1915D01*
X69203Y-1948D01*
X69195Y-1976D01*
X69188Y-1999D01*
X69175Y-2022D01*
X69165Y-2037D01*
X69157Y-2050D01*
X69150Y-2057D01*
X69147Y-2060D01*
X69122Y-2080D01*
X69094Y-2093D01*
X69066Y-2103D01*
X69035Y-2111D01*
X69010Y-2116D01*
X68990Y-2118D01*
X68977D01*
X68972D01*
X68540D01*
X68502D01*
X68469D01*
X68438Y-2121D01*
X68410D01*
X68388Y-2123D01*
X68365D01*
X68347Y-2126D01*
X68329Y-2129D01*
X68304Y-2131D01*
X68286Y-2134D01*
X68276Y-2136D01*
X68273D01*
X68238Y-2151D01*
X68207Y-2169D01*
X68182Y-2187D01*
X68161Y-2205D01*
X68144Y-2220D01*
X68134Y-2233D01*
X68126Y-2240D01*
X68123Y-2243D01*
X68106Y-2268D01*
X68093Y-2296D01*
X68085Y-2322D01*
X68078Y-2344D01*
X68075Y-2362D01*
X68073Y-2380D01*
Y-2393D01*
X68075Y-2436D01*
X68085Y-2474D01*
X68098Y-2502D01*
X68113Y-2525D01*
X68128Y-2543D01*
X68141Y-2555D01*
X68151Y-2560D01*
X68154Y-2563D01*
X68187Y-2578D01*
X68225Y-2588D01*
X68266Y-2596D01*
X68306Y-2601D01*
X68342Y-2603D01*
X68370Y-2606D01*
X68382D01*
X68390D01*
X68395D01*
X68398D01*
X68972D01*
X69012Y-2609D01*
X69045Y-2614D01*
X69076Y-2624D01*
X69099Y-2634D01*
X69119Y-2642D01*
X69134Y-2652D01*
X69142Y-2657D01*
X69144Y-2659D01*
X69165Y-2682D01*
X69180Y-2705D01*
X69190Y-2730D01*
X69198Y-2753D01*
X69203Y-2774D01*
X69205Y-2789D01*
Y-2804D01*
X69203Y-2835D01*
X69195Y-2863D01*
X69185Y-2888D01*
X69175Y-2908D01*
X69165Y-2924D01*
X69155Y-2936D01*
X69147Y-2944D01*
X69144Y-2946D01*
X69119Y-2964D01*
X69091Y-2979D01*
X69063Y-2990D01*
X69035Y-2995D01*
X69010Y-3000D01*
X68990Y-3002D01*
X68977D01*
X68972D01*
X68332D01*
X68291D01*
X68253Y-3000D01*
X68220Y-2997D01*
X68195D01*
X68172Y-2995D01*
X68154Y-2992D01*
X68144Y-2990D01*
X68141D01*
X68088Y-2979D01*
X68062Y-2972D01*
X68042Y-2964D01*
X68024Y-2957D01*
X68009Y-2949D01*
X68001Y-2946D01*
X67999Y-2944D01*
X67958Y-2921D01*
X67923Y-2893D01*
X67892Y-2865D01*
X67867Y-2837D01*
X67847Y-2812D01*
X67834Y-2791D01*
X67824Y-2776D01*
X67821Y-2774D01*
Y-2771D01*
X67798Y-2728D01*
X67783Y-2682D01*
X67770Y-2639D01*
X67763Y-2601D01*
X67758Y-2565D01*
X67755Y-2537D01*
Y-2515D01*
X67758Y-2461D01*
X67765Y-2413D01*
X67775Y-2370D01*
X67786Y-2332D01*
X67796Y-2299D01*
X67806Y-2276D01*
X67814Y-2261D01*
X67816Y-2258D01*
Y-2256D01*
X67839Y-2215D01*
X67867Y-2182D01*
X67897Y-2154D01*
X67925Y-2134D01*
X67951Y-2116D01*
X67971Y-2106D01*
X67984Y-2098D01*
X67986Y-2095D01*
X67974D01*
X67948D01*
X67925Y-2090D01*
X67907Y-2088D01*
X67890Y-2083D01*
X67874Y-2078D01*
X67864Y-2075D01*
X67859Y-2070D01*
X67857D01*
X67824Y-2050D01*
X67801Y-2027D01*
X67793Y-2017D01*
X67788Y-2009D01*
X67783Y-2004D01*
Y-2002D01*
X67773Y-1986D01*
X67768Y-1969D01*
X67758Y-1938D01*
Y-1925D01*
X67755Y-1915D01*
Y-1905D01*
X67758Y-1875D01*
X67765Y-1849D01*
X67773Y-1826D01*
X67783Y-1806D01*
X67796Y-1791D01*
X67803Y-1781D01*
X67811Y-1773D01*
X67814Y-1770D01*
X67836Y-1755D01*
X67862Y-1742D01*
X67890Y-1735D01*
X67915Y-1727D01*
X67941Y-1725D01*
X67958Y-1722D01*
X67971D01*
X67976D01*
X68972D01*
X69012Y-1725D01*
D02*
G37*
G36*
X71272Y3000D02*
X71310Y2995D01*
X71341Y2984D01*
X71369Y2974D01*
X71389Y2967D01*
X71404Y2957D01*
X71414Y2951D01*
X71417Y2949D01*
X71437Y2926D01*
X71452Y2901D01*
X71465Y2875D01*
X71473Y2850D01*
X71478Y2827D01*
X71480Y2809D01*
Y2791D01*
X71478Y2756D01*
X71470Y2725D01*
X71460Y2700D01*
X71447Y2677D01*
X71437Y2659D01*
X71427Y2647D01*
X71419Y2639D01*
X71417Y2637D01*
X71392Y2616D01*
X71361Y2601D01*
X71331Y2591D01*
X71300Y2583D01*
X71272Y2578D01*
X71249Y2576D01*
X71234D01*
X71232D01*
X71229D01*
X70660D01*
Y2441D01*
X70665Y2410D01*
X70668Y2383D01*
X70673Y2362D01*
X70678Y2344D01*
X70680Y2329D01*
X70685Y2322D01*
Y2319D01*
X70696Y2296D01*
X70711Y2273D01*
X70726Y2253D01*
X70741Y2235D01*
X70757Y2220D01*
X70769Y2207D01*
X70777Y2200D01*
X70779Y2197D01*
X70805Y2174D01*
X70835Y2149D01*
X70863Y2126D01*
X70891Y2106D01*
X70914Y2088D01*
X70934Y2073D01*
X70947Y2062D01*
X70952Y2060D01*
X71232Y1908D01*
X71265Y1887D01*
X71292Y1869D01*
X71315Y1857D01*
X71333Y1844D01*
X71348Y1834D01*
X71361Y1826D01*
X71366Y1824D01*
X71369Y1821D01*
X71399Y1796D01*
X71425Y1770D01*
X71435Y1758D01*
X71442Y1750D01*
X71445Y1745D01*
X71447Y1742D01*
X71458Y1722D01*
X71465Y1702D01*
X71475Y1664D01*
X71478Y1646D01*
X71480Y1633D01*
Y1621D01*
X71478Y1580D01*
X71473Y1562D01*
X71468Y1547D01*
X71465Y1534D01*
X71460Y1524D01*
X71458Y1519D01*
Y1516D01*
X71437Y1483D01*
X71417Y1461D01*
X71407Y1453D01*
X71399Y1448D01*
X71394Y1443D01*
X71392D01*
X71376Y1433D01*
X71361Y1427D01*
X71333Y1417D01*
X71323D01*
X71315Y1415D01*
X71310D01*
X71308D01*
X71290Y1417D01*
X71270Y1420D01*
X71224Y1435D01*
X71204Y1443D01*
X71186Y1448D01*
X71176Y1453D01*
X71171Y1455D01*
X71132Y1471D01*
X71094Y1491D01*
X71059Y1509D01*
X71026Y1527D01*
X70998Y1544D01*
X70975Y1557D01*
X70960Y1567D01*
X70955Y1570D01*
X70911Y1598D01*
X70868Y1626D01*
X70830Y1654D01*
X70797Y1679D01*
X70769Y1702D01*
X70749Y1720D01*
X70736Y1730D01*
X70731Y1735D01*
X70696Y1768D01*
X70665Y1801D01*
X70642Y1831D01*
X70627Y1859D01*
X70614Y1882D01*
X70607Y1900D01*
X70602Y1910D01*
Y1915D01*
X70584Y1836D01*
X70558Y1768D01*
X70546Y1735D01*
X70530Y1707D01*
X70518Y1681D01*
X70503Y1659D01*
X70490Y1638D01*
X70477Y1621D01*
X70464Y1605D01*
X70454Y1593D01*
X70447Y1582D01*
X70439Y1575D01*
X70437Y1572D01*
X70434Y1570D01*
X70409Y1547D01*
X70381Y1529D01*
X70353Y1511D01*
X70325Y1499D01*
X70266Y1476D01*
X70210Y1461D01*
X70162Y1453D01*
X70139Y1448D01*
X70122D01*
X70106Y1445D01*
X70096D01*
X70089D01*
X70086D01*
X70048Y1448D01*
X70010Y1450D01*
X69977Y1458D01*
X69949Y1463D01*
X69923Y1471D01*
X69903Y1478D01*
X69893Y1481D01*
X69888Y1483D01*
X69852Y1499D01*
X69822Y1514D01*
X69791Y1532D01*
X69768Y1549D01*
X69748Y1565D01*
X69733Y1577D01*
X69723Y1587D01*
X69720Y1590D01*
X69695Y1618D01*
X69672Y1643D01*
X69654Y1669D01*
X69639Y1692D01*
X69629Y1712D01*
X69619Y1730D01*
X69616Y1740D01*
X69614Y1742D01*
X69601Y1773D01*
X69588Y1806D01*
X69581Y1836D01*
X69573Y1862D01*
X69568Y1887D01*
X69565Y1905D01*
X69563Y1915D01*
Y1920D01*
X69558Y1956D01*
X69555Y1994D01*
X69553Y2032D01*
Y2065D01*
X69550Y2095D01*
Y2748D01*
X69553Y2794D01*
X69560Y2835D01*
X69570Y2868D01*
X69581Y2893D01*
X69593Y2916D01*
X69603Y2929D01*
X69611Y2939D01*
X69614Y2941D01*
X69639Y2962D01*
X69669Y2977D01*
X69702Y2987D01*
X69733Y2995D01*
X69761Y3000D01*
X69784Y3002D01*
X69801D01*
X69804D01*
X69807D01*
X71229D01*
X71272Y3000D01*
D02*
G37*
G36*
X70815Y1191D02*
X70873Y1186D01*
X70927Y1176D01*
X70978Y1163D01*
X71026Y1151D01*
X71069Y1133D01*
X71110Y1115D01*
X71145Y1097D01*
X71178Y1079D01*
X71206Y1064D01*
X71229Y1046D01*
X71249Y1034D01*
X71265Y1021D01*
X71275Y1011D01*
X71282Y1006D01*
X71285Y1003D01*
X71320Y965D01*
X71348Y925D01*
X71376Y881D01*
X71397Y838D01*
X71417Y792D01*
X71432Y749D01*
X71445Y706D01*
X71455Y663D01*
X71465Y622D01*
X71470Y587D01*
X71475Y554D01*
X71478Y523D01*
Y500D01*
X71480Y483D01*
Y467D01*
X71478Y414D01*
X71475Y363D01*
X71468Y317D01*
X71460Y279D01*
X71455Y246D01*
X71447Y224D01*
X71445Y208D01*
X71442Y203D01*
X71427Y160D01*
X71412Y124D01*
X71394Y91D01*
X71379Y64D01*
X71364Y41D01*
X71353Y23D01*
X71346Y13D01*
X71343Y10D01*
X71320Y-18D01*
X71298Y-41D01*
X71277Y-61D01*
X71257Y-79D01*
X71239Y-91D01*
X71226Y-99D01*
X71219Y-104D01*
X71216Y-107D01*
X71191Y-119D01*
X71168Y-130D01*
X71148Y-137D01*
X71130Y-142D01*
X71115Y-145D01*
X71105Y-147D01*
X71097D01*
X71094D01*
X71072Y-145D01*
X71051Y-142D01*
X71036Y-135D01*
X71021Y-127D01*
X71011Y-119D01*
X71003Y-114D01*
X70998Y-109D01*
X70995Y-107D01*
X70983Y-91D01*
X70972Y-74D01*
X70967Y-56D01*
X70962Y-41D01*
X70960Y-25D01*
X70957Y-13D01*
Y18D01*
X70962Y36D01*
X70967Y51D01*
X70972Y66D01*
X70978Y76D01*
X70983Y84D01*
X70985Y86D01*
X70988Y89D01*
X71026Y130D01*
X71041Y147D01*
X71056Y163D01*
X71066Y175D01*
X71074Y185D01*
X71079Y191D01*
X71082Y193D01*
X71107Y226D01*
X71127Y254D01*
X71135Y264D01*
X71143Y274D01*
X71145Y279D01*
X71148Y282D01*
X71165Y315D01*
X71178Y343D01*
X71183Y356D01*
X71186Y366D01*
X71188Y371D01*
Y373D01*
X71196Y409D01*
X71199Y442D01*
X71201Y457D01*
Y478D01*
X71199Y508D01*
X71193Y538D01*
X71188Y564D01*
X71181Y587D01*
X71173Y607D01*
X71165Y620D01*
X71163Y630D01*
X71160Y632D01*
X71143Y658D01*
X71125Y678D01*
X71102Y698D01*
X71082Y714D01*
X71064Y726D01*
X71049Y737D01*
X71038Y742D01*
X71036Y744D01*
X71005Y759D01*
X70975Y770D01*
X70945Y777D01*
X70919Y782D01*
X70896Y787D01*
X70881Y790D01*
X70868D01*
X70866D01*
Y142D01*
X70863Y91D01*
X70858Y46D01*
X70853Y8D01*
X70843Y-25D01*
X70835Y-51D01*
X70830Y-69D01*
X70825Y-81D01*
X70823Y-84D01*
X70802Y-112D01*
X70774Y-132D01*
X70744Y-147D01*
X70713Y-157D01*
X70683Y-163D01*
X70657Y-168D01*
X70647D01*
X70640D01*
X70637D01*
X70635D01*
X70581Y-165D01*
X70528Y-155D01*
X70480Y-145D01*
X70439Y-130D01*
X70401Y-117D01*
X70373Y-104D01*
X70363Y-99D01*
X70355Y-94D01*
X70353Y-91D01*
X70350D01*
X70299Y-61D01*
X70254Y-25D01*
X70216Y13D01*
X70180Y48D01*
X70155Y81D01*
X70134Y109D01*
X70129Y119D01*
X70124Y127D01*
X70119Y132D01*
Y135D01*
X70089Y193D01*
X70066Y254D01*
X70050Y315D01*
X70038Y371D01*
X70033Y419D01*
X70030Y439D01*
Y457D01*
X70028Y472D01*
Y493D01*
X70030Y551D01*
X70035Y607D01*
X70045Y655D01*
X70053Y701D01*
X70063Y737D01*
X70073Y765D01*
X70076Y775D01*
X70078Y782D01*
X70081Y785D01*
Y787D01*
X70101Y836D01*
X70127Y879D01*
X70149Y917D01*
X70175Y947D01*
X70198Y975D01*
X70216Y996D01*
X70226Y1006D01*
X70231Y1011D01*
X70269Y1044D01*
X70307Y1072D01*
X70345Y1095D01*
X70383Y1113D01*
X70414Y1128D01*
X70439Y1140D01*
X70449Y1143D01*
X70457Y1146D01*
X70459Y1148D01*
X70462D01*
X70513Y1163D01*
X70563Y1173D01*
X70614Y1184D01*
X70657Y1189D01*
X70698Y1191D01*
X70713D01*
X70726Y1194D01*
X70739D01*
X70746D01*
X70751D01*
X70754D01*
X70815Y1191D01*
D02*
G37*
G36*
X70802Y-363D02*
X70856Y-368D01*
X70906Y-373D01*
X70950Y-381D01*
X70985Y-389D01*
X71013Y-396D01*
X71023Y-399D01*
X71031D01*
X71033Y-401D01*
X71036D01*
X71084Y-419D01*
X71130Y-437D01*
X71171Y-457D01*
X71204Y-478D01*
X71234Y-493D01*
X71254Y-508D01*
X71267Y-518D01*
X71272Y-521D01*
X71308Y-551D01*
X71338Y-584D01*
X71364Y-617D01*
X71386Y-648D01*
X71404Y-673D01*
X71417Y-693D01*
X71425Y-706D01*
X71427Y-711D01*
X71445Y-754D01*
X71458Y-795D01*
X71468Y-836D01*
X71473Y-874D01*
X71478Y-907D01*
X71480Y-930D01*
Y-952D01*
X71478Y-988D01*
X71475Y-1024D01*
X71470Y-1054D01*
X71465Y-1082D01*
X71460Y-1105D01*
X71458Y-1120D01*
X71452Y-1133D01*
Y-1135D01*
X71442Y-1166D01*
X71430Y-1194D01*
X71417Y-1222D01*
X71404Y-1242D01*
X71394Y-1262D01*
X71384Y-1275D01*
X71379Y-1285D01*
X71376Y-1288D01*
X71356Y-1313D01*
X71333Y-1334D01*
X71313Y-1349D01*
X71292Y-1364D01*
X71275Y-1372D01*
X71262Y-1379D01*
X71252Y-1384D01*
X71259D01*
X71295Y-1387D01*
X71328Y-1392D01*
X71356Y-1400D01*
X71379Y-1410D01*
X71399Y-1420D01*
X71412Y-1427D01*
X71419Y-1433D01*
X71422Y-1435D01*
X71442Y-1455D01*
X71455Y-1478D01*
X71465Y-1501D01*
X71473Y-1524D01*
X71478Y-1542D01*
X71480Y-1560D01*
Y-1572D01*
X71478Y-1603D01*
X71473Y-1628D01*
X71463Y-1654D01*
X71452Y-1671D01*
X71442Y-1689D01*
X71432Y-1699D01*
X71427Y-1707D01*
X71425Y-1709D01*
X71402Y-1727D01*
X71376Y-1740D01*
X71348Y-1750D01*
X71320Y-1755D01*
X71298Y-1760D01*
X71277Y-1763D01*
X71265D01*
X71259D01*
X69743D01*
X69705Y-1760D01*
X69674Y-1755D01*
X69647Y-1748D01*
X69624Y-1737D01*
X69603Y-1727D01*
X69591Y-1720D01*
X69583Y-1714D01*
X69581Y-1712D01*
X69560Y-1692D01*
X69545Y-1669D01*
X69535Y-1646D01*
X69527Y-1623D01*
X69522Y-1603D01*
X69520Y-1587D01*
Y-1572D01*
X69522Y-1539D01*
X69530Y-1511D01*
X69540Y-1488D01*
X69550Y-1468D01*
X69563Y-1453D01*
X69573Y-1443D01*
X69581Y-1435D01*
X69583Y-1433D01*
X69608Y-1417D01*
X69636Y-1405D01*
X69667Y-1397D01*
X69695Y-1389D01*
X69720Y-1387D01*
X69743Y-1384D01*
X69756D01*
X69758D01*
X69761D01*
X70243D01*
X70208Y-1361D01*
X70177Y-1336D01*
X70149Y-1308D01*
X70127Y-1280D01*
X70111Y-1257D01*
X70099Y-1237D01*
X70091Y-1224D01*
X70089Y-1222D01*
Y-1219D01*
X70071Y-1179D01*
X70055Y-1133D01*
X70045Y-1090D01*
X70040Y-1049D01*
X70035Y-1013D01*
X70033Y-983D01*
Y-958D01*
X70035Y-909D01*
X70040Y-861D01*
X70050Y-818D01*
X70063Y-777D01*
X70076Y-737D01*
X70094Y-701D01*
X70109Y-668D01*
X70127Y-640D01*
X70144Y-612D01*
X70162Y-589D01*
X70180Y-569D01*
X70193Y-554D01*
X70205Y-541D01*
X70216Y-531D01*
X70221Y-526D01*
X70223Y-523D01*
X70259Y-495D01*
X70299Y-470D01*
X70340Y-447D01*
X70383Y-429D01*
X70426Y-414D01*
X70470Y-401D01*
X70553Y-381D01*
X70591Y-373D01*
X70630Y-368D01*
X70660Y-366D01*
X70688Y-363D01*
X70711Y-361D01*
X70729D01*
X70739D01*
X70744D01*
X70802Y-363D01*
D02*
G37*
G36*
X76578Y1079D02*
X77052Y398D01*
X76510D01*
X76225Y819D01*
X75983Y398D01*
X75399D01*
X75879Y1079D01*
X75432Y1704D01*
X75986D01*
X76225Y1340D01*
X76433Y1704D01*
X77028D01*
X76578Y1079D01*
D02*
G37*
G36*
X77955Y2169D02*
X77991Y2113D01*
X78029Y2066D01*
X78065Y2021D01*
X78094Y1989D01*
X78121Y1962D01*
X78139Y1947D01*
X78142Y1941D01*
X78145D01*
X78204Y1900D01*
X78266Y1861D01*
X78331Y1829D01*
X78396Y1799D01*
X78453Y1778D01*
X78479Y1766D01*
X78500Y1761D01*
X78518Y1755D01*
X78530Y1749D01*
X78538Y1746D01*
X78541D01*
Y1337D01*
X78479Y1355D01*
X78423Y1376D01*
X78376Y1393D01*
X78334Y1408D01*
X78299Y1423D01*
X78275Y1435D01*
X78260Y1441D01*
X78254Y1444D01*
X78210Y1467D01*
X78168Y1494D01*
X78127Y1518D01*
X78091Y1544D01*
X78059Y1565D01*
X78035Y1583D01*
X78020Y1595D01*
X78014Y1598D01*
Y398D01*
X77508D01*
Y2231D01*
X77922D01*
X77955Y2169D01*
D02*
G37*
G36*
X79611Y1944D02*
Y1704D01*
X79794D01*
Y1337D01*
X79611D01*
Y878D01*
X79608Y801D01*
X79605Y736D01*
X79599Y683D01*
X79590Y638D01*
X79581Y603D01*
X79575Y579D01*
X79572Y567D01*
X79569Y561D01*
X79551Y526D01*
X79531Y496D01*
X79510Y472D01*
X79489Y451D01*
X79468Y437D01*
X79454Y425D01*
X79442Y419D01*
X79439Y416D01*
X79400Y401D01*
X79359Y389D01*
X79311Y380D01*
X79267Y374D01*
X79226Y372D01*
X79193Y369D01*
X79163D01*
X79101Y372D01*
X79039Y374D01*
X78980Y380D01*
X78926Y389D01*
X78882Y395D01*
X78861Y398D01*
X78847Y401D01*
X78832Y404D01*
X78823D01*
X78817Y407D01*
X78814D01*
X78852Y754D01*
X78888Y745D01*
X78918Y736D01*
X78944Y730D01*
X78965Y727D01*
X78983D01*
X78995Y724D01*
X79006D01*
X79027Y727D01*
X79045Y730D01*
X79060Y736D01*
X79072Y745D01*
X79086Y760D01*
X79092Y762D01*
Y765D01*
X79098Y777D01*
X79101Y795D01*
X79104Y831D01*
X79107Y848D01*
Y863D01*
Y872D01*
Y875D01*
Y1337D01*
X78832D01*
Y1704D01*
X79107D01*
Y2202D01*
X79611Y1944D01*
D02*
G37*
G36*
X80866Y2228D02*
X80911Y2226D01*
X80952Y2220D01*
X80994Y2214D01*
X81029Y2208D01*
X81062Y2202D01*
X81094Y2196D01*
X81121Y2190D01*
X81145Y2184D01*
X81163Y2178D01*
X81180Y2172D01*
X81192Y2166D01*
X81201Y2163D01*
X81207Y2160D01*
X81210D01*
X81266Y2131D01*
X81317Y2101D01*
X81358Y2069D01*
X81394Y2036D01*
X81420Y2009D01*
X81438Y1986D01*
X81450Y1971D01*
X81453Y1965D01*
X81479Y1918D01*
X81500Y1873D01*
X81512Y1829D01*
X81524Y1790D01*
X81530Y1755D01*
X81533Y1728D01*
Y1710D01*
Y1707D01*
Y1704D01*
X81530Y1666D01*
X81527Y1627D01*
X81509Y1559D01*
X81482Y1500D01*
X81453Y1450D01*
X81426Y1408D01*
X81399Y1378D01*
X81391Y1370D01*
X81382Y1361D01*
X81379Y1358D01*
X81376Y1355D01*
X81343Y1331D01*
X81308Y1307D01*
X81269Y1284D01*
X81228Y1263D01*
X81142Y1227D01*
X81056Y1195D01*
X81014Y1183D01*
X80976Y1171D01*
X80940Y1162D01*
X80911Y1153D01*
X80887Y1147D01*
X80866Y1142D01*
X80854Y1139D01*
X80852D01*
X80810Y1130D01*
X80775Y1121D01*
X80742Y1109D01*
X80712Y1100D01*
X80686Y1091D01*
X80662Y1082D01*
X80623Y1068D01*
X80597Y1053D01*
X80576Y1041D01*
X80567Y1035D01*
X80564Y1032D01*
X80544Y1011D01*
X80529Y991D01*
X80517Y970D01*
X80511Y949D01*
X80505Y934D01*
X80502Y919D01*
Y911D01*
Y908D01*
X80505Y881D01*
X80511Y857D01*
X80523Y834D01*
X80535Y816D01*
X80546Y798D01*
X80558Y786D01*
X80564Y780D01*
X80567Y777D01*
X80594Y760D01*
X80623Y748D01*
X80656Y736D01*
X80686Y730D01*
X80712Y727D01*
X80733Y724D01*
X80754D01*
X80810Y730D01*
X80860Y742D01*
X80902Y757D01*
X80937Y777D01*
X80967Y798D01*
X80985Y813D01*
X81000Y825D01*
X81003Y831D01*
X81020Y860D01*
X81035Y890D01*
X81047Y922D01*
X81056Y955D01*
X81062Y985D01*
X81068Y1008D01*
X81071Y1023D01*
Y1029D01*
X81601Y993D01*
X81595Y943D01*
X81586Y896D01*
X81562Y807D01*
X81530Y733D01*
X81512Y697D01*
X81494Y668D01*
X81476Y638D01*
X81459Y614D01*
X81444Y594D01*
X81429Y576D01*
X81420Y561D01*
X81411Y552D01*
X81405Y546D01*
X81402Y543D01*
X81367Y514D01*
X81322Y487D01*
X81278Y463D01*
X81228Y443D01*
X81174Y425D01*
X81121Y410D01*
X81014Y389D01*
X80964Y383D01*
X80917Y377D01*
X80875Y374D01*
X80837Y372D01*
X80807Y369D01*
X80763D01*
X80668Y372D01*
X80582Y380D01*
X80508Y392D01*
X80475Y398D01*
X80446Y407D01*
X80419Y413D01*
X80395Y419D01*
X80375Y425D01*
X80357Y431D01*
X80345Y437D01*
X80336Y440D01*
X80330Y443D01*
X80327D01*
X80265Y475D01*
X80212Y511D01*
X80164Y546D01*
X80126Y582D01*
X80096Y614D01*
X80076Y641D01*
X80061Y659D01*
X80058Y662D01*
Y665D01*
X80025Y721D01*
X80002Y777D01*
X79984Y831D01*
X79972Y878D01*
X79966Y922D01*
X79960Y955D01*
Y967D01*
Y976D01*
Y982D01*
Y985D01*
X79963Y1038D01*
X79972Y1088D01*
X79984Y1133D01*
X79996Y1174D01*
X80010Y1207D01*
X80022Y1230D01*
X80031Y1245D01*
X80034Y1251D01*
X80064Y1293D01*
X80099Y1331D01*
X80138Y1367D01*
X80176Y1396D01*
X80212Y1417D01*
X80238Y1435D01*
X80250Y1441D01*
X80259Y1447D01*
X80262Y1450D01*
X80265D01*
X80298Y1464D01*
X80333Y1479D01*
X80372Y1494D01*
X80413Y1509D01*
X80499Y1535D01*
X80585Y1562D01*
X80626Y1571D01*
X80665Y1580D01*
X80701Y1589D01*
X80730Y1598D01*
X80754Y1601D01*
X80775Y1607D01*
X80786Y1609D01*
X80789D01*
X80840Y1621D01*
X80881Y1633D01*
X80914Y1645D01*
X80937Y1657D01*
X80955Y1666D01*
X80967Y1672D01*
X80973Y1675D01*
X80976Y1678D01*
X80991Y1689D01*
X81000Y1704D01*
X81011Y1728D01*
X81017Y1749D01*
Y1752D01*
Y1755D01*
X81014Y1775D01*
X81009Y1796D01*
X80994Y1829D01*
X80985Y1840D01*
X80976Y1849D01*
X80973Y1852D01*
X80970Y1855D01*
X80949Y1870D01*
X80926Y1879D01*
X80878Y1891D01*
X80854Y1894D01*
X80837Y1897D01*
X80822D01*
X80777Y1894D01*
X80742Y1888D01*
X80709Y1879D01*
X80683Y1870D01*
X80662Y1858D01*
X80647Y1849D01*
X80638Y1843D01*
X80635Y1840D01*
X80612Y1817D01*
X80591Y1790D01*
X80576Y1761D01*
X80564Y1731D01*
X80555Y1704D01*
X80549Y1684D01*
X80544Y1669D01*
Y1663D01*
X80019Y1692D01*
X80028Y1743D01*
X80040Y1790D01*
X80052Y1835D01*
X80070Y1876D01*
X80084Y1912D01*
X80105Y1944D01*
X80123Y1977D01*
X80141Y2003D01*
X80161Y2027D01*
X80179Y2045D01*
X80194Y2063D01*
X80209Y2077D01*
X80221Y2086D01*
X80230Y2095D01*
X80236Y2101D01*
X80238D01*
X80274Y2125D01*
X80313Y2146D01*
X80398Y2175D01*
X80484Y2199D01*
X80570Y2217D01*
X80609Y2220D01*
X80647Y2226D01*
X80680Y2228D01*
X80709D01*
X80733Y2231D01*
X80766D01*
X80866Y2228D01*
D02*
G37*
%LPC*%
G36*
X68344Y1087D02*
X68296Y1079D01*
X68253Y1067D01*
X68215Y1052D01*
X68184Y1036D01*
X68159Y1021D01*
X68141Y1008D01*
X68128Y998D01*
X68126Y996D01*
X68098Y965D01*
X68078Y935D01*
X68065Y902D01*
X68055Y871D01*
X68050Y846D01*
X68045Y823D01*
Y805D01*
X68047Y762D01*
X68057Y721D01*
X68070Y686D01*
X68085Y658D01*
X68101Y635D01*
X68113Y617D01*
X68123Y607D01*
X68126Y605D01*
X68159Y579D01*
X68195Y559D01*
X68230Y544D01*
X68266Y533D01*
X68296Y526D01*
X68322Y521D01*
X68332D01*
X68339Y518D01*
X68342D01*
X68344D01*
Y1087D01*
D02*
G37*
G36*
X68504Y-457D02*
X68494D01*
X68487D01*
X68484D01*
X68482D01*
X68436Y-460D01*
X68393Y-462D01*
X68352Y-470D01*
X68319Y-478D01*
X68294Y-483D01*
X68273Y-490D01*
X68261Y-493D01*
X68255Y-495D01*
X68222Y-511D01*
X68192Y-531D01*
X68167Y-549D01*
X68146Y-566D01*
X68131Y-582D01*
X68121Y-594D01*
X68113Y-602D01*
X68111Y-605D01*
X68095Y-632D01*
X68083Y-658D01*
X68075Y-686D01*
X68068Y-711D01*
X68065Y-734D01*
X68062Y-752D01*
Y-792D01*
X68068Y-818D01*
X68080Y-864D01*
X68098Y-902D01*
X68116Y-935D01*
X68136Y-960D01*
X68154Y-980D01*
X68167Y-991D01*
X68169Y-996D01*
X68172D01*
X68217Y-1026D01*
X68266Y-1046D01*
X68316Y-1062D01*
X68367Y-1074D01*
X68413Y-1079D01*
X68431Y-1082D01*
X68449D01*
X68461Y-1085D01*
X68471D01*
X68479D01*
X68482D01*
X68553Y-1082D01*
X68614Y-1072D01*
X68667Y-1057D01*
X68710Y-1041D01*
X68743Y-1026D01*
X68769Y-1011D01*
X68784Y-1001D01*
X68786Y-998D01*
X68789D01*
X68809Y-980D01*
X68824Y-963D01*
X68852Y-925D01*
X68870Y-886D01*
X68885Y-851D01*
X68893Y-818D01*
X68896Y-790D01*
X68898Y-782D01*
Y-767D01*
X68896Y-734D01*
X68890Y-701D01*
X68883Y-673D01*
X68873Y-650D01*
X68865Y-630D01*
X68857Y-615D01*
X68852Y-605D01*
X68850Y-602D01*
X68830Y-577D01*
X68807Y-556D01*
X68784Y-538D01*
X68761Y-523D01*
X68741Y-511D01*
X68723Y-503D01*
X68713Y-498D01*
X68708Y-495D01*
X68672Y-483D01*
X68631Y-472D01*
X68596Y-467D01*
X68560Y-462D01*
X68527Y-460D01*
X68504Y-457D01*
D02*
G37*
G36*
X70340Y2576D02*
X69883D01*
Y2195D01*
X69885Y2167D01*
X69888Y2141D01*
X69890Y2118D01*
Y2098D01*
X69895Y2065D01*
X69901Y2040D01*
X69906Y2024D01*
X69908Y2014D01*
X69911Y2012D01*
X69921Y1989D01*
X69934Y1969D01*
X69946Y1953D01*
X69959Y1938D01*
X69972Y1928D01*
X69982Y1920D01*
X69987Y1915D01*
X69989Y1913D01*
X70010Y1900D01*
X70030Y1892D01*
X70068Y1882D01*
X70083Y1880D01*
X70096Y1877D01*
X70106D01*
X70109D01*
X70139Y1880D01*
X70167Y1885D01*
X70193Y1890D01*
X70213Y1897D01*
X70228Y1908D01*
X70238Y1913D01*
X70246Y1918D01*
X70249Y1920D01*
X70266Y1938D01*
X70279Y1958D01*
X70302Y2002D01*
X70310Y2022D01*
X70315Y2037D01*
X70320Y2047D01*
Y2052D01*
X70327Y2085D01*
X70332Y2123D01*
X70335Y2159D01*
X70337Y2192D01*
X70340Y2223D01*
Y2576D01*
D02*
G37*
G36*
X70619Y787D02*
X70571Y780D01*
X70528Y767D01*
X70490Y752D01*
X70459Y737D01*
X70434Y721D01*
X70416Y709D01*
X70403Y698D01*
X70401Y696D01*
X70373Y665D01*
X70353Y635D01*
X70340Y602D01*
X70330Y572D01*
X70325Y546D01*
X70320Y523D01*
Y505D01*
X70322Y462D01*
X70332Y422D01*
X70345Y386D01*
X70360Y358D01*
X70376Y335D01*
X70388Y317D01*
X70398Y307D01*
X70401Y305D01*
X70434Y279D01*
X70470Y259D01*
X70505Y244D01*
X70541Y234D01*
X70571Y226D01*
X70597Y221D01*
X70607D01*
X70614Y218D01*
X70617D01*
X70619D01*
Y787D01*
D02*
G37*
G36*
X70777Y-759D02*
X70767D01*
X70759D01*
X70757D01*
X70754D01*
X70708Y-762D01*
X70665Y-765D01*
X70627Y-772D01*
X70597Y-780D01*
X70569Y-785D01*
X70551Y-792D01*
X70538Y-795D01*
X70533Y-798D01*
X70500Y-813D01*
X70472Y-831D01*
X70447Y-848D01*
X70426Y-864D01*
X70411Y-879D01*
X70401Y-892D01*
X70393Y-899D01*
X70391Y-902D01*
X70373Y-927D01*
X70360Y-955D01*
X70353Y-980D01*
X70345Y-1006D01*
X70343Y-1026D01*
X70340Y-1041D01*
Y-1057D01*
X70343Y-1087D01*
X70348Y-1115D01*
X70355Y-1140D01*
X70363Y-1163D01*
X70373Y-1181D01*
X70381Y-1196D01*
X70386Y-1207D01*
X70388Y-1209D01*
X70409Y-1234D01*
X70431Y-1257D01*
X70454Y-1275D01*
X70477Y-1293D01*
X70497Y-1303D01*
X70515Y-1313D01*
X70525Y-1318D01*
X70530Y-1321D01*
X70566Y-1336D01*
X70604Y-1346D01*
X70642Y-1354D01*
X70678Y-1359D01*
X70708Y-1361D01*
X70731Y-1364D01*
X70741D01*
X70749D01*
X70751D01*
X70754D01*
X70805Y-1361D01*
X70848Y-1356D01*
X70889Y-1351D01*
X70922Y-1344D01*
X70950Y-1334D01*
X70967Y-1328D01*
X70980Y-1323D01*
X70985Y-1321D01*
X71018Y-1306D01*
X71044Y-1288D01*
X71069Y-1267D01*
X71087Y-1252D01*
X71102Y-1234D01*
X71112Y-1224D01*
X71117Y-1214D01*
X71120Y-1212D01*
X71135Y-1186D01*
X71145Y-1158D01*
X71153Y-1133D01*
X71158Y-1110D01*
X71160Y-1090D01*
X71163Y-1074D01*
Y-1059D01*
X71160Y-1029D01*
X71155Y-1001D01*
X71150Y-975D01*
X71140Y-955D01*
X71132Y-935D01*
X71127Y-922D01*
X71122Y-912D01*
X71120Y-909D01*
X71099Y-884D01*
X71079Y-864D01*
X71056Y-846D01*
X71033Y-828D01*
X71013Y-818D01*
X70998Y-808D01*
X70988Y-803D01*
X70983Y-800D01*
X70947Y-787D01*
X70909Y-777D01*
X70871Y-770D01*
X70833Y-765D01*
X70802Y-762D01*
X70777Y-759D01*
D02*
G37*
%LPD*%
D10*
X5305Y-2890D02*
G03*
X5305Y-2890I-325J0D01*
G01*
Y2890D02*
G03*
X5305Y2890I-325J0D01*
G01*
D11*
X31746Y-419D02*
X31204D01*
X31475D01*
Y-1231D01*
X32496Y994D02*
Y1806D01*
X32090D01*
X31954Y1671D01*
Y1400D01*
X32090Y1265D01*
X32496D01*
X32225D02*
X31954Y994D01*
X17621Y744D02*
Y1556D01*
X17215D01*
X17079Y1421D01*
Y1150D01*
X17215Y1015D01*
X17621D01*
X17350D02*
X17079Y744D01*
X72500Y-5750D02*
G03*
X73000Y-5250I0J500D01*
G01*
X73000Y5250D02*
G03*
X72500Y5750I-500J0D01*
G01*
X85800Y3000D02*
G03*
X85300Y3500I-500J0D01*
G01*
X85300Y-3500D02*
G03*
X85800Y-3000I0J500D01*
G01*
X-800Y5750D02*
G03*
X-1300Y5250I0J-500D01*
G01*
X-1300Y-5250D02*
G03*
X-800Y-5750I500J0D01*
G01*
X85800Y-3000D02*
Y3000D01*
X73000Y3500D02*
X85300D01*
X73000Y-3500D02*
X85300D01*
X73000Y-5250D02*
Y-3500D01*
X-800Y-5750D02*
X72500Y-5750D01*
X73000Y3500D02*
Y5250D01*
X-800Y5750D02*
X72500Y5750D01*
X-1300Y-5250D02*
Y5250D01*
D27*
X29700Y-250D02*
D03*
Y1000D02*
D03*
X17350Y-300D02*
D03*
D37*
X30900Y-2100D02*
D03*
Y-3050D02*
D03*
D41*
X12475Y25D02*
D03*
Y875D02*
D03*
X24025Y-3675D02*
D03*
Y-2825D02*
D03*
X21200Y-1725D02*
D03*
Y-875D02*
D03*
X5575Y-2075D02*
D03*
Y-1225D02*
D03*
X19750Y3050D02*
D03*
Y2200D02*
D03*
X18875Y500D02*
D03*
Y-350D02*
D03*
X3325Y1825D02*
D03*
Y2675D02*
D03*
X3850Y-4000D02*
D03*
Y-3150D02*
D03*
X8475Y1625D02*
D03*
Y2475D02*
D03*
Y825D02*
D03*
Y-25D02*
D03*
X31750Y-2100D02*
D03*
Y-2950D02*
D03*
X37500Y2775D02*
D03*
Y1925D02*
D03*
X43525Y2600D02*
D03*
Y1750D02*
D03*
Y950D02*
D03*
Y100D02*
D03*
D43*
X11450Y3075D02*
D03*
X10500D02*
D03*
X35775Y-1650D02*
D03*
X36725D02*
D03*
X33450Y-2100D02*
D03*
X34400D02*
D03*
X43500Y-2050D02*
D03*
X42550D02*
D03*
D44*
X28325Y1400D02*
D03*
X27475D02*
D03*
X10600Y-3950D02*
D03*
X11450D02*
D03*
X8650D02*
D03*
X9500D02*
D03*
X11450Y-2575D02*
D03*
X10600D02*
D03*
X8650D02*
D03*
X9500D02*
D03*
X7150Y-1225D02*
D03*
X6300D02*
D03*
X20475Y-400D02*
D03*
X19625D02*
D03*
X20475Y3050D02*
D03*
X21325D02*
D03*
X26825Y1400D02*
D03*
X25975D02*
D03*
X26825Y2325D02*
D03*
X27675D02*
D03*
X25975Y600D02*
D03*
X26825D02*
D03*
X28325D02*
D03*
X27475D02*
D03*
X22325Y725D02*
D03*
X21475D02*
D03*
X26050Y-2575D02*
D03*
X25200D02*
D03*
X35775Y-2500D02*
D03*
X36625D02*
D03*
X33500Y-700D02*
D03*
X34350D02*
D03*
X36625Y1825D02*
D03*
X35775D02*
D03*
X36625Y2775D02*
D03*
X35775D02*
D03*
X57625Y1850D02*
D03*
X58475D02*
D03*
X62275Y3100D02*
D03*
X61425D02*
D03*
X58625Y-3225D02*
D03*
X57775D02*
D03*
D49*
X9535Y1270D02*
D03*
X11440D02*
D03*
X10500Y-1270D02*
D03*
X9535D02*
D03*
X11440D02*
D03*
X10500Y1270D02*
D03*
D56*
X1300Y4320D02*
D03*
Y-4320D02*
D03*
D57*
X5480D02*
D03*
Y4320D02*
D03*
D86*
X66025Y1855D02*
D03*
Y585D02*
D03*
Y-685D02*
D03*
Y-1955D02*
D03*
X60625Y-685D02*
D03*
Y585D02*
D03*
Y1855D02*
D03*
Y-1950D02*
D03*
D90*
X41745Y2790D02*
D03*
Y885D02*
D03*
X39205Y1825D02*
D03*
Y2790D02*
D03*
Y885D02*
D03*
X3820Y690D02*
D03*
Y-1215D02*
D03*
Y-250D02*
D03*
X1280Y690D02*
D03*
Y-1215D02*
D03*
D91*
X2775Y-3100D02*
D03*
Y-4050D02*
D03*
D92*
X15600Y2300D02*
D03*
X13400D02*
D03*
X37975Y600D02*
D03*
X35775D02*
D03*
X44375Y-1700D02*
D03*
X46575D02*
D03*
D93*
X17100Y-2250D02*
D03*
X15700D02*
D03*
X35775Y-675D02*
D03*
X37175D02*
D03*
D94*
X52775Y1700D02*
D03*
Y-1700D02*
D03*
X48375Y-1700D02*
D03*
D95*
X23300Y1000D02*
D03*
Y-1000D02*
D03*
X23800Y1000D02*
D03*
X23800Y-1000D02*
D03*
X24300Y1000D02*
D03*
X24300Y-1000D02*
D03*
X24800Y1000D02*
D03*
D96*
X23050Y250D02*
D03*
D97*
X23050Y-250D02*
D03*
X25050D02*
D03*
D98*
X24800Y-1000D02*
D03*
D99*
X44675Y1750D02*
D03*
X46675D02*
D03*
X58625Y-1700D02*
D03*
X56625D02*
D03*
D100*
X45675Y-250D02*
D03*
X57625Y300D02*
D03*
D101*
X39425Y-1300D02*
D03*
X41725D02*
D03*
X13400Y0D02*
D03*
D102*
X15700D02*
D03*
M02*
