G04*
G04 #@! TF.GenerationSoftware,Altium Limited,Altium Designer,24.2.2 (26)*
G04*
G04 Layer_Color=128*
%FSLAX43Y43*%
%MOMM*%
G71*
G04*
G04 #@! TF.SameCoordinates,1F1FED76-AB6C-4830-BD65-6DDC81D4C714*
G04*
G04*
G04 #@! TF.FilePolarity,Positive*
G04*
G01*
G75*
%ADD10C,0.127*%
%ADD11C,0.203*%
%ADD103C,0.051*%
D10*
X5305Y-2890D02*
G03*
X5305Y-2890I-325J0D01*
G01*
Y2890D02*
G03*
X5305Y2890I-325J0D01*
G01*
D11*
X72500Y-5750D02*
G03*
X73000Y-5250I0J500D01*
G01*
X73000Y5250D02*
G03*
X72500Y5750I-500J0D01*
G01*
X85800Y3000D02*
G03*
X85300Y3500I-500J0D01*
G01*
X85300Y-3500D02*
G03*
X85800Y-3000I0J500D01*
G01*
X-800Y5750D02*
G03*
X-1300Y5250I0J-500D01*
G01*
X-1300Y-5250D02*
G03*
X-800Y-5750I500J0D01*
G01*
X85800Y-3000D02*
Y3000D01*
X73000Y3500D02*
X85300D01*
X73000Y-3500D02*
X85300D01*
X73000Y-5250D02*
Y-3500D01*
X-800Y-5750D02*
X72500Y-5750D01*
X73000Y3500D02*
Y5250D01*
X-800Y5750D02*
X72500Y5750D01*
X-1300Y-5250D02*
Y5250D01*
D103*
X1000Y4320D02*
X1600D01*
X1300Y4020D02*
Y4620D01*
X5180Y-4320D02*
X5780D01*
X5480Y-4620D02*
Y-4020D01*
X5180Y4320D02*
X5780D01*
X5480Y4020D02*
Y4620D01*
X1000Y-4320D02*
X1600D01*
X1300Y-4620D02*
Y-4020D01*
X17898Y-3350D02*
X18202D01*
X18050Y-3502D02*
Y-3198D01*
X54223Y-1850D02*
X54527D01*
X54375Y-2002D02*
Y-1698D01*
X50948Y3925D02*
X51252D01*
X51100Y3773D02*
Y4077D01*
X3173Y3225D02*
X3477D01*
X3325Y3073D02*
Y3377D01*
X52723Y-3625D02*
X53027D01*
X52875Y-3777D02*
Y-3473D01*
X42748Y-4175D02*
X43052D01*
X42900Y-4327D02*
Y-4023D01*
X49473Y-4250D02*
X49777D01*
X49625Y-4402D02*
Y-4098D01*
X46723Y-4250D02*
X47027D01*
X46875Y-4402D02*
Y-4098D01*
X48048Y-4250D02*
X48352D01*
X48200Y-4402D02*
Y-4098D01*
X44123Y-4175D02*
X44427D01*
X44275Y-4327D02*
Y-4023D01*
X51556Y-4250D02*
X51861D01*
X51708Y-4402D02*
Y-4098D01*
X56898Y-4500D02*
X57202D01*
X57050Y-4652D02*
Y-4348D01*
X41398Y0D02*
X41702D01*
X41550Y-152D02*
Y152D01*
X55498Y-4250D02*
X55802D01*
X55650Y-4402D02*
Y-4098D01*
X67398Y-3100D02*
X67702D01*
X67550Y-3252D02*
Y-2948D01*
X64073Y-3100D02*
X64377D01*
X64225Y-3252D02*
Y-2948D01*
X60373Y-3100D02*
X60677D01*
X60525Y-3252D02*
Y-2948D01*
X54698Y2050D02*
X55002D01*
X54850Y1898D02*
Y2202D01*
X55223Y-2650D02*
X55527D01*
X55375Y-2802D02*
Y-2498D01*
X57623Y-2425D02*
X57927D01*
X57775Y-2577D02*
Y-2273D01*
X49848Y-2075D02*
X50152D01*
X50000Y-2227D02*
Y-1923D01*
X45598Y-3100D02*
X45902D01*
X45750Y-3252D02*
Y-2948D01*
X51323Y-25D02*
X51627D01*
X51475Y-177D02*
Y127D01*
X49348Y-25D02*
X49652D01*
X49500Y-177D02*
Y127D01*
X58323Y3300D02*
X58627D01*
X58475Y3148D02*
Y3452D01*
X58448Y200D02*
X58752D01*
X58600Y48D02*
Y352D01*
X58923Y-675D02*
X59227D01*
X59075Y-827D02*
Y-523D01*
X58923Y1075D02*
X59227D01*
X59075Y923D02*
Y1227D01*
X71898Y3075D02*
X72202D01*
X72050Y2923D02*
Y3227D01*
X63698Y3075D02*
X64002D01*
X63850Y2923D02*
Y3227D01*
X65748Y3075D02*
X66052D01*
X65900Y2923D02*
Y3227D01*
X69848Y4925D02*
X70152D01*
X70000Y4773D02*
Y5077D01*
X65748Y4925D02*
X66052D01*
X65900Y4773D02*
Y5077D01*
X42698Y1350D02*
X43002D01*
X42850Y1198D02*
Y1502D01*
X36423Y3925D02*
X36727D01*
X36575Y3773D02*
Y4077D01*
X29348Y-1125D02*
X29652D01*
X29500Y-1277D02*
Y-973D01*
X26023Y-1350D02*
X26327D01*
X26175Y-1502D02*
Y-1198D01*
X20398Y-2600D02*
X20702D01*
X20550Y-2752D02*
Y-2448D01*
X10873Y-3275D02*
X11177D01*
X11025Y-3427D02*
Y-3123D01*
X12198Y-4700D02*
X12502D01*
X12350Y-4852D02*
Y-4548D01*
X13248Y3200D02*
X13552D01*
X13400Y3048D02*
Y3352D01*
X12173Y-1600D02*
X12477D01*
X12325Y-1752D02*
Y-1448D01*
X7448Y-4200D02*
X7752D01*
X7600Y-4352D02*
Y-4048D01*
X8923Y-4700D02*
X9227D01*
X9075Y-4852D02*
Y-4548D01*
X8073Y-4700D02*
X8377D01*
X8225Y-4852D02*
Y-4548D01*
X6923Y-3650D02*
X7227D01*
X7075Y-3802D02*
Y-3498D01*
X7523Y4450D02*
X7827D01*
X7675Y4298D02*
Y4602D01*
X78250Y2625D02*
X78750D01*
X78500Y2375D02*
Y2875D01*
X82050Y2600D02*
X82550D01*
X82300Y2350D02*
Y2850D01*
X74375Y2600D02*
X74875D01*
X74625Y2350D02*
Y2850D01*
X78250Y0D02*
X78750D01*
X78500Y-250D02*
Y250D01*
X74375Y-775D02*
X74875D01*
X74625Y-1025D02*
Y-525D01*
X81650Y-750D02*
X82150D01*
X81900Y-1000D02*
Y-500D01*
X84800Y2600D02*
X85300D01*
X85050Y2350D02*
Y2850D01*
X81650Y1000D02*
X82150D01*
X81900Y750D02*
Y1250D01*
X74375Y1000D02*
X74875D01*
X74625Y750D02*
Y1250D01*
X17798Y-975D02*
X18102D01*
X17950Y-1127D02*
Y-823D01*
X27373Y-3375D02*
X27677D01*
X27525Y-3527D02*
Y-3223D01*
X28998Y2750D02*
X29302D01*
X29150Y2598D02*
Y2902D01*
X29123Y1800D02*
X29427D01*
X29275Y1648D02*
Y1952D01*
X29173Y575D02*
X29477D01*
X29325Y423D02*
Y727D01*
X62375Y-250D02*
X62875D01*
X62625Y-500D02*
Y-0D01*
X61375Y-1900D02*
X61875D01*
X61625Y-2150D02*
Y-1650D01*
X61375Y300D02*
X61875D01*
X61625Y50D02*
Y550D01*
X62375Y-1350D02*
X62875D01*
X62625Y-1600D02*
Y-1100D01*
X61375Y-800D02*
X61875D01*
X61625Y-1050D02*
Y-550D01*
X30623Y2100D02*
X30927D01*
X30775Y1948D02*
Y2252D01*
X29873Y2100D02*
X30177D01*
X30025Y1948D02*
Y2252D01*
X25648Y1925D02*
X25952D01*
X25800Y1773D02*
Y2077D01*
X23548Y1900D02*
X23852D01*
X23700Y1748D02*
Y2052D01*
X8498Y-3125D02*
X8802D01*
X8650Y-3277D02*
Y-2973D01*
X18623Y-4650D02*
X18927D01*
X18775Y-4802D02*
Y-4498D01*
X41723Y-4250D02*
X42027D01*
X41875Y-4402D02*
Y-4098D01*
X69098Y-4250D02*
X69402D01*
X69250Y-4402D02*
Y-4098D01*
X24298Y-2750D02*
X24602D01*
X24450Y-2902D02*
Y-2598D01*
X28948Y-250D02*
X29252D01*
X29100Y-402D02*
Y-98D01*
X33623Y-2100D02*
X33927D01*
X33775Y-2252D02*
Y-1948D01*
X59473Y3850D02*
X59777D01*
X59625Y3698D02*
Y4002D01*
X21398Y-3575D02*
X21702D01*
X21550Y-3727D02*
Y-3423D01*
X21898Y-3150D02*
X22202D01*
X22050Y-3302D02*
Y-2998D01*
X22398Y-3575D02*
X22702D01*
X22550Y-3727D02*
Y-3423D01*
X17898Y-2250D02*
X18202D01*
X18050Y-2402D02*
Y-2098D01*
X32073Y-2100D02*
X32377D01*
X32225Y-2252D02*
Y-1948D01*
X43373Y-425D02*
X43677D01*
X43525Y-577D02*
Y-273D01*
X26698Y-1750D02*
X27002D01*
X26850Y-1902D02*
Y-1598D01*
X29523Y3250D02*
X29827D01*
X29675Y3098D02*
Y3402D01*
X48748Y-4500D02*
X49052D01*
X48900Y-4652D02*
Y-4348D01*
X24498Y3525D02*
X24802D01*
X24650Y3373D02*
Y3677D01*
X23798Y3525D02*
X24102D01*
X23950Y3373D02*
Y3677D01*
X51898Y-900D02*
X52202D01*
X52050Y-1052D02*
Y-748D01*
X9898Y-3950D02*
X10202D01*
X10050Y-4102D02*
Y-3798D01*
X28223Y-1400D02*
X28527D01*
X28375Y-1552D02*
Y-1248D01*
X28223Y-2100D02*
X28527D01*
X28375Y-2252D02*
Y-1948D01*
X23898Y0D02*
X24202D01*
X24050Y-152D02*
Y152D01*
X25256Y-641D02*
X25561D01*
X25409Y-794D02*
Y-489D01*
X29873Y3925D02*
X30177D01*
X30025Y3773D02*
Y4077D01*
X28698Y3975D02*
X29002D01*
X28850Y3823D02*
Y4127D01*
X28023Y3975D02*
X28327D01*
X28175Y3823D02*
Y4127D01*
X27348Y3975D02*
X27652D01*
X27500Y3823D02*
Y4127D01*
X26673Y3975D02*
X26977D01*
X26825Y3823D02*
Y4127D01*
X31098Y700D02*
X31402D01*
X31250Y548D02*
Y852D01*
X40298Y-25D02*
X40602D01*
X40450Y-177D02*
Y127D01*
X25898Y-3000D02*
X26202D01*
X26050Y-3152D02*
Y-2848D01*
X21898Y3075D02*
X22202D01*
X22050Y2923D02*
Y3227D01*
X32498Y-1400D02*
X32802D01*
X32650Y-1552D02*
Y-1248D01*
X23398Y-3575D02*
X23702D01*
X23550Y-3727D02*
Y-3423D01*
X44948Y-4500D02*
X45252D01*
X45100Y-4652D02*
Y-4348D01*
X22848Y-2600D02*
X23152D01*
X23000Y-2752D02*
Y-2448D01*
X15073Y-4700D02*
X15377D01*
X15225Y-4852D02*
Y-4548D01*
X22273Y-250D02*
X22577D01*
X22425Y-402D02*
Y-98D01*
X21573Y-250D02*
X21877D01*
X21725Y-402D02*
Y-98D01*
X22848Y2050D02*
X23152D01*
X23000Y1898D02*
Y2202D01*
X22348Y2550D02*
X22652D01*
X22500Y2398D02*
Y2702D01*
X26248Y2325D02*
X26552D01*
X26400Y2173D02*
Y2477D01*
X24948Y2300D02*
X25252D01*
X25100Y2148D02*
Y2452D01*
X28473Y675D02*
X28777D01*
X28625Y523D02*
Y827D01*
X28473Y1325D02*
X28777D01*
X28625Y1173D02*
Y1477D01*
X28223Y2150D02*
X28527D01*
X28375Y1998D02*
Y2302D01*
X20898Y3575D02*
X21202D01*
X21050Y3423D02*
Y3727D01*
X20323Y-875D02*
X20627D01*
X20475Y-1027D02*
Y-723D01*
X32498Y-700D02*
X32802D01*
X32650Y-852D02*
Y-548D01*
X60873Y3850D02*
X61177D01*
X61025Y3698D02*
Y4002D01*
X51548Y-3100D02*
X51852D01*
X51700Y-3252D02*
Y-2948D01*
X47023Y-300D02*
X47327D01*
X47175Y-452D02*
Y-148D01*
X44123Y-875D02*
X44427D01*
X44275Y-1027D02*
Y-723D01*
X34748Y-1375D02*
X35052D01*
X34900Y-1527D02*
Y-1223D01*
X37848Y1925D02*
X38152D01*
X38000Y1773D02*
Y2077D01*
X39248Y3925D02*
X39552D01*
X39400Y3773D02*
Y4077D01*
X33023Y3925D02*
X33327D01*
X33175Y3773D02*
Y4077D01*
X37398Y-2425D02*
X37702D01*
X37550Y-2577D02*
Y-2273D01*
X33023Y2425D02*
X33327D01*
X33175Y2273D02*
Y2577D01*
X45898Y950D02*
X46202D01*
X46050Y798D02*
Y1102D01*
X3698Y-2475D02*
X4002D01*
X3850Y-2627D02*
Y-2323D01*
X26523Y-3375D02*
X26827D01*
X26675Y-3527D02*
Y-3223D01*
X29923Y-3375D02*
X30227D01*
X30075Y-3527D02*
Y-3223D01*
X33023Y50D02*
X33327D01*
X33175Y-102D02*
Y202D01*
X28948Y-3375D02*
X29252D01*
X29100Y-3527D02*
Y-3223D01*
X48923Y3925D02*
X49227D01*
X49075Y3773D02*
Y4077D01*
X44123Y-3100D02*
X44427D01*
X44275Y-3252D02*
Y-2948D01*
X42748Y-3125D02*
X43052D01*
X42900Y-3277D02*
Y-2973D01*
X83400Y0D02*
X83900D01*
X83650Y-250D02*
Y250D01*
X71673Y-750D02*
X71977D01*
X71825Y-902D02*
Y-598D01*
X63698Y4925D02*
X64002D01*
X63850Y4773D02*
Y5077D01*
X62081Y-4250D02*
X62386D01*
X62233Y-4402D02*
Y-4098D01*
X55473Y3925D02*
X55777D01*
X55625Y3773D02*
Y4077D01*
X53739Y-4250D02*
X54044D01*
X53892Y-4402D02*
Y-4098D01*
X47948Y975D02*
X48252D01*
X48100Y823D02*
Y1127D01*
X42373Y3925D02*
X42677D01*
X42525Y3773D02*
Y4077D01*
X45648Y3925D02*
X45952D01*
X45800Y3773D02*
Y4077D01*
X36523Y-700D02*
X36827D01*
X36675Y-852D02*
Y-548D01*
X36748Y600D02*
X37052D01*
X36900Y448D02*
Y752D01*
X34748Y50D02*
X35052D01*
X34900Y-102D02*
Y202D01*
X34748Y2425D02*
X35052D01*
X34900Y2273D02*
Y2577D01*
X2073Y-250D02*
X2377D01*
X2225Y-402D02*
Y-98D01*
X14398Y-1600D02*
X14702D01*
X14550Y-1752D02*
Y-1448D01*
X14373Y-3275D02*
X14677D01*
X14525Y-3427D02*
Y-3123D01*
X12173Y-800D02*
X12477D01*
X12325Y-952D02*
Y-648D01*
X14648Y1675D02*
X14952D01*
X14800Y1523D02*
Y1827D01*
X15723Y3800D02*
X16027D01*
X15875Y3648D02*
Y3952D01*
X17923Y3800D02*
X18227D01*
X18075Y3648D02*
Y3952D01*
X12198Y-3275D02*
X12502D01*
X12350Y-3427D02*
Y-3123D01*
X8498Y-1275D02*
X8802D01*
X8650Y-1427D02*
Y-1123D01*
X25323Y-3375D02*
X25627D01*
X25475Y-3527D02*
Y-3223D01*
X20873Y1375D02*
X21177D01*
X21025Y1223D02*
Y1527D01*
X22398Y3575D02*
X22702D01*
X22550Y3423D02*
Y3727D01*
X22073Y-1500D02*
X22377D01*
X22225Y-1652D02*
Y-1348D01*
X16948Y-3275D02*
X17252D01*
X17100Y-3427D02*
Y-3123D01*
X33923Y1200D02*
X34227D01*
X34075Y1048D02*
Y1352D01*
X15898Y-2250D02*
X16202D01*
X16050Y-2402D02*
Y-2098D01*
X84800Y0D02*
X85300D01*
X85050Y-250D02*
Y250D01*
X35223Y-2500D02*
X35527D01*
X35375Y-2652D02*
Y-2348D01*
X19748Y450D02*
X20052D01*
X19900Y298D02*
Y602D01*
X19748Y1775D02*
X20052D01*
X19900Y1623D02*
Y1927D01*
X11923Y3550D02*
X12227D01*
X12075Y3398D02*
Y3702D01*
X64700Y595D02*
X65200D01*
X64950Y345D02*
Y845D01*
X64700Y-675D02*
X65200D01*
X64950Y-925D02*
Y-425D01*
X63600Y-1320D02*
X64100D01*
X63850Y-1570D02*
Y-1070D01*
X64700Y-1945D02*
X65200D01*
X64950Y-2195D02*
Y-1695D01*
X63600Y-50D02*
X64100D01*
X63850Y-300D02*
Y200D01*
X63600Y1220D02*
X64100D01*
X63850Y970D02*
Y1470D01*
X18498Y3050D02*
X18802D01*
X18650Y2898D02*
Y3202D01*
X20323Y4000D02*
X20627D01*
X20475Y3848D02*
Y4152D01*
X8697Y4849D02*
X9002D01*
X8849Y4697D02*
Y5002D01*
X9498Y3875D02*
X9802D01*
X9650Y3723D02*
Y4027D01*
X6994Y2400D02*
X7756D01*
X7375Y2019D02*
Y2781D01*
X6994Y-2400D02*
X7756D01*
X7375Y-2781D02*
Y-2019D01*
X17798Y-250D02*
X18102D01*
X17950Y-402D02*
Y-98D01*
X5223Y750D02*
X5527D01*
X5375Y598D02*
Y902D01*
X5223Y-250D02*
X5527D01*
X5375Y-402D02*
Y-98D01*
X67798Y4925D02*
X68102D01*
X67950Y4773D02*
Y5077D01*
X6898Y3900D02*
X7202D01*
X7050Y3748D02*
Y4052D01*
X71898Y4925D02*
X72202D01*
X72050Y4773D02*
Y5077D01*
X65589Y-4250D02*
X65894D01*
X65742Y-4402D02*
Y-4098D01*
X47348Y2675D02*
X47652D01*
X47500Y2523D02*
Y2827D01*
X58573Y-4250D02*
X58877D01*
X58725Y-4402D02*
Y-4098D01*
X10523Y-25D02*
X10827D01*
X10675Y-177D02*
Y127D01*
X1398Y1750D02*
X1702D01*
X1550Y1598D02*
Y1902D01*
X6898Y5025D02*
X7202D01*
X7050Y4873D02*
Y5177D01*
X84100Y-2625D02*
X84600D01*
X84350Y-2875D02*
Y-2375D01*
X4223Y2000D02*
X4527D01*
X4375Y1848D02*
Y2152D01*
X1398Y-2700D02*
X1702D01*
X1550Y-2852D02*
Y-2548D01*
X64700Y1865D02*
X65200D01*
X64950Y1615D02*
Y2115D01*
X2073Y-1225D02*
X2377D01*
X2225Y-1377D02*
Y-1073D01*
X2073Y700D02*
X2377D01*
X2225Y548D02*
Y852D01*
M02*
