G04*
G04 #@! TF.GenerationSoftware,Altium Limited,Altium Designer,24.2.2 (26)*
G04*
G04 Layer_Color=2752767*
%FSLAX43Y43*%
%MOMM*%
G71*
G04*
G04 #@! TF.SameCoordinates,1F1FED76-AB6C-4830-BD65-6DDC81D4C714*
G04*
G04*
G04 #@! TF.FilePolarity,Positive*
G04*
G01*
G75*
%ADD10C,0.127*%
%ADD11C,0.203*%
%ADD103C,0.051*%
%ADD104C,0.068*%
D10*
X5305Y-2890D02*
G03*
X5305Y-2890I-325J0D01*
G01*
Y2890D02*
G03*
X5305Y2890I-325J0D01*
G01*
D11*
X72500Y-5750D02*
G03*
X73000Y-5250I0J500D01*
G01*
X73000Y5250D02*
G03*
X72500Y5750I-500J0D01*
G01*
X85800Y3000D02*
G03*
X85300Y3500I-500J0D01*
G01*
X85300Y-3500D02*
G03*
X85800Y-3000I0J500D01*
G01*
X-800Y5750D02*
G03*
X-1300Y5250I0J-500D01*
G01*
X-1300Y-5250D02*
G03*
X-800Y-5750I500J0D01*
G01*
X85800Y-3000D02*
Y3000D01*
X73000Y3500D02*
X85300D01*
X73000Y-3500D02*
X85300D01*
X73000Y-5250D02*
Y-3500D01*
X-800Y-5750D02*
X72500Y-5750D01*
X73000Y3500D02*
Y5250D01*
X-800Y5750D02*
X72500Y5750D01*
X-1300Y-5250D02*
Y5250D01*
D103*
X1097Y4117D02*
Y4523D01*
X1503D01*
Y4117D01*
X1097D01*
Y-4523D02*
Y-4117D01*
X1503D01*
Y-4523D01*
X1097D01*
X18050Y-3553D02*
X17847Y-3147D01*
X18253D01*
X18050Y-3553D01*
X54375Y-2053D02*
X54172Y-1647D01*
X54578D01*
X54375Y-2053D01*
X51100Y3722D02*
X50897Y4128D01*
X51303D01*
X51100Y3722D01*
X3325Y3022D02*
X3122Y3428D01*
X3528D01*
X3325Y3022D01*
X52875Y-3828D02*
X52672Y-3422D01*
X53078D01*
X52875Y-3828D01*
X42900Y-4378D02*
X42697Y-3972D01*
X43103D01*
X42900Y-4378D01*
X49625Y-4453D02*
X49422Y-4047D01*
X49828D01*
X49625Y-4453D01*
X46875D02*
X46672Y-4047D01*
X47078D01*
X46875Y-4453D01*
X48200D02*
X47997Y-4047D01*
X48403D01*
X48200Y-4453D01*
X44275Y-4378D02*
X44072Y-3972D01*
X44478D01*
X44275Y-4378D01*
X51708Y-4453D02*
X51505Y-4047D01*
X51912D01*
X51708Y-4453D01*
X57050Y-4703D02*
X56847Y-4297D01*
X57253D01*
X57050Y-4703D01*
X41550Y-203D02*
X41347Y203D01*
X41753D01*
X41550Y-203D01*
X55650Y-4453D02*
X55447Y-4047D01*
X55853D01*
X55650Y-4453D01*
X67550Y-3303D02*
X67347Y-2897D01*
X67753D01*
X67550Y-3303D01*
X64225D02*
X64022Y-2897D01*
X64428D01*
X64225Y-3303D01*
X60525D02*
X60322Y-2897D01*
X60728D01*
X60525Y-3303D01*
X54850Y1847D02*
X54647Y2253D01*
X55053D01*
X54850Y1847D01*
X55375Y-2853D02*
X55172Y-2447D01*
X55578D01*
X55375Y-2853D01*
X57775Y-2628D02*
X57572Y-2222D01*
X57978D01*
X57775Y-2628D01*
X50000Y-2278D02*
X49797Y-1872D01*
X50203D01*
X50000Y-2278D01*
X45750Y-3303D02*
X45547Y-2897D01*
X45953D01*
X45750Y-3303D01*
X51475Y-228D02*
X51272Y178D01*
X51678D01*
X51475Y-228D01*
X49500D02*
X49297Y178D01*
X49703D01*
X49500Y-228D01*
X58475Y3097D02*
X58272Y3503D01*
X58678D01*
X58475Y3097D01*
X58600Y-3D02*
X58397Y403D01*
X58803D01*
X58600Y-3D01*
X59075Y-878D02*
X58872Y-472D01*
X59278D01*
X59075Y-878D01*
Y872D02*
X58872Y1278D01*
X59278D01*
X59075Y872D01*
X72050Y2872D02*
X71847Y3278D01*
X72253D01*
X72050Y2872D01*
X63850D02*
X63647Y3278D01*
X64053D01*
X63850Y2872D01*
X65900D02*
X65697Y3278D01*
X66103D01*
X65900Y2872D01*
X70000Y4722D02*
X69797Y5128D01*
X70203D01*
X70000Y4722D01*
X65900D02*
X65697Y5128D01*
X66103D01*
X65900Y4722D01*
X42850Y1147D02*
X42647Y1553D01*
X43053D01*
X42850Y1147D01*
X36575Y3722D02*
X36372Y4128D01*
X36778D01*
X36575Y3722D01*
X29500Y-1328D02*
X29297Y-922D01*
X29703D01*
X29500Y-1328D01*
X26175Y-1553D02*
X25972Y-1147D01*
X26378D01*
X26175Y-1553D01*
X20550Y-2803D02*
X20347Y-2397D01*
X20753D01*
X20550Y-2803D01*
X11025Y-3478D02*
X10822Y-3072D01*
X11228D01*
X11025Y-3478D01*
X12350Y-4903D02*
X12147Y-4497D01*
X12553D01*
X12350Y-4903D01*
X13400Y2997D02*
X13197Y3403D01*
X13603D01*
X13400Y2997D01*
X12325Y-1803D02*
X12122Y-1397D01*
X12528D01*
X12325Y-1803D01*
X7600Y-4403D02*
X7397Y-3997D01*
X7803D01*
X7600Y-4403D01*
X9075Y-4903D02*
X8872Y-4497D01*
X9278D01*
X9075Y-4903D01*
X8225D02*
X8022Y-4497D01*
X8428D01*
X8225Y-4903D01*
X7075Y-3853D02*
X6872Y-3447D01*
X7278D01*
X7075Y-3853D01*
X7675Y4247D02*
X7472Y4653D01*
X7878D01*
X7675Y4247D01*
X78500Y2422D02*
X78602Y2523D01*
X78703D01*
X78602Y2625D01*
X78703Y2727D01*
X78602D01*
X78500Y2828D01*
X78398Y2727D01*
X78297D01*
X78398Y2625D01*
X78297Y2523D01*
X78398D01*
X78500Y2422D01*
X82300Y2397D02*
X82402Y2498D01*
X82503D01*
X82402Y2600D01*
X82503Y2702D01*
X82402D01*
X82300Y2803D01*
X82198Y2702D01*
X82097D01*
X82198Y2600D01*
X82097Y2498D01*
X82198D01*
X82300Y2397D01*
X74625D02*
X74727Y2498D01*
X74828D01*
X74727Y2600D01*
X74828Y2702D01*
X74727D01*
X74625Y2803D01*
X74523Y2702D01*
X74422D01*
X74523Y2600D01*
X74422Y2498D01*
X74523D01*
X74625Y2397D01*
X78500Y-203D02*
X78602Y-102D01*
X78703D01*
X78602Y0D01*
X78703Y102D01*
X78602D01*
X78500Y203D01*
X78398Y102D01*
X78297D01*
X78398Y0D01*
X78297Y-102D01*
X78398D01*
X78500Y-203D01*
X74625Y-978D02*
X74727Y-877D01*
X74828D01*
X74727Y-775D01*
X74828Y-673D01*
X74727D01*
X74625Y-572D01*
X74523Y-673D01*
X74422D01*
X74523Y-775D01*
X74422Y-877D01*
X74523D01*
X74625Y-978D01*
X81900Y-953D02*
X82002Y-852D01*
X82103D01*
X82002Y-750D01*
X82103Y-648D01*
X82002D01*
X81900Y-547D01*
X81798Y-648D01*
X81697D01*
X81798Y-750D01*
X81697Y-852D01*
X81798D01*
X81900Y-953D01*
X85050Y2397D02*
X85152Y2498D01*
X85253D01*
X85152Y2600D01*
X85253Y2702D01*
X85152D01*
X85050Y2803D01*
X84948Y2702D01*
X84847D01*
X84948Y2600D01*
X84847Y2498D01*
X84948D01*
X85050Y2397D01*
X81900Y797D02*
X82002Y898D01*
X82103D01*
X82002Y1000D01*
X82103Y1102D01*
X82002D01*
X81900Y1203D01*
X81798Y1102D01*
X81697D01*
X81798Y1000D01*
X81697Y898D01*
X81798D01*
X81900Y797D01*
X74625D02*
X74727Y898D01*
X74828D01*
X74727Y1000D01*
X74828Y1102D01*
X74727D01*
X74625Y1203D01*
X74523Y1102D01*
X74422D01*
X74523Y1000D01*
X74422Y898D01*
X74523D01*
X74625Y797D01*
X17950Y-1178D02*
X17747Y-772D01*
X18153D01*
X17950Y-1178D01*
X27525Y-3578D02*
X27322Y-3172D01*
X27728D01*
X27525Y-3578D01*
X29150Y2547D02*
X28947Y2953D01*
X29353D01*
X29150Y2547D01*
X29275Y1597D02*
X29072Y2003D01*
X29478D01*
X29275Y1597D01*
X29325Y372D02*
X29122Y778D01*
X29528D01*
X29325Y372D01*
X62625Y-453D02*
X62727Y-352D01*
X62828D01*
X62727Y-250D01*
X62828Y-148D01*
X62727D01*
X62625Y-47D01*
X62523Y-148D01*
X62422D01*
X62523Y-250D01*
X62422Y-352D01*
X62523D01*
X62625Y-453D01*
X61625Y-2103D02*
X61727Y-2002D01*
X61828D01*
X61727Y-1900D01*
X61828Y-1798D01*
X61727D01*
X61625Y-1697D01*
X61523Y-1798D01*
X61422D01*
X61523Y-1900D01*
X61422Y-2002D01*
X61523D01*
X61625Y-2103D01*
Y97D02*
X61727Y198D01*
X61828D01*
X61727Y300D01*
X61828Y402D01*
X61727D01*
X61625Y503D01*
X61523Y402D01*
X61422D01*
X61523Y300D01*
X61422Y198D01*
X61523D01*
X61625Y97D01*
X62625Y-1553D02*
X62727Y-1452D01*
X62828D01*
X62727Y-1350D01*
X62828Y-1248D01*
X62727D01*
X62625Y-1147D01*
X62523Y-1248D01*
X62422D01*
X62523Y-1350D01*
X62422Y-1452D01*
X62523D01*
X62625Y-1553D01*
X61625Y-1003D02*
X61727Y-902D01*
X61828D01*
X61727Y-800D01*
X61828Y-698D01*
X61727D01*
X61625Y-597D01*
X61523Y-698D01*
X61422D01*
X61523Y-800D01*
X61422Y-902D01*
X61523D01*
X61625Y-1003D01*
X30775Y1897D02*
X30572Y2303D01*
X30978D01*
X30775Y1897D01*
X30025D02*
X29822Y2303D01*
X30228D01*
X30025Y1897D01*
X25800Y1722D02*
X25597Y2128D01*
X26003D01*
X25800Y1722D01*
X23700Y1697D02*
X23497Y2103D01*
X23903D01*
X23700Y1697D01*
X8650Y-3328D02*
X8447Y-2922D01*
X8853D01*
X8650Y-3328D01*
X18775Y-4853D02*
X18572Y-4447D01*
X18978D01*
X18775Y-4853D01*
X41875Y-4453D02*
X41672Y-4047D01*
X42078D01*
X41875Y-4453D01*
X69250D02*
X69047Y-4047D01*
X69453D01*
X69250Y-4453D01*
X24450Y-2953D02*
X24247Y-2547D01*
X24653D01*
X24450Y-2953D01*
X29100Y-453D02*
X28897Y-47D01*
X29303D01*
X29100Y-453D01*
X33775Y-2303D02*
X33572Y-1897D01*
X33978D01*
X33775Y-2303D01*
X59625Y3647D02*
X59422Y4053D01*
X59828D01*
X59625Y3647D01*
X21550Y-3778D02*
X21347Y-3372D01*
X21753D01*
X21550Y-3778D01*
X22050Y-3353D02*
X21847Y-2947D01*
X22253D01*
X22050Y-3353D01*
X22550Y-3778D02*
X22347Y-3372D01*
X22753D01*
X22550Y-3778D01*
X18050Y-2453D02*
X17847Y-2047D01*
X18253D01*
X18050Y-2453D01*
X32225Y-2303D02*
X32022Y-1897D01*
X32428D01*
X32225Y-2303D01*
X43525Y-628D02*
X43322Y-222D01*
X43728D01*
X43525Y-628D01*
X26850Y-1953D02*
X26647Y-1547D01*
X27053D01*
X26850Y-1953D01*
X29675Y3047D02*
X29472Y3453D01*
X29878D01*
X29675Y3047D01*
X48900Y-4703D02*
X48697Y-4297D01*
X49103D01*
X48900Y-4703D01*
X24650Y3322D02*
X24447Y3728D01*
X24853D01*
X24650Y3322D01*
X23950D02*
X23747Y3728D01*
X24153D01*
X23950Y3322D01*
X52050Y-1103D02*
X51847Y-697D01*
X52253D01*
X52050Y-1103D01*
X10050Y-4153D02*
X9847Y-3747D01*
X10253D01*
X10050Y-4153D01*
X28375Y-1603D02*
X28172Y-1197D01*
X28578D01*
X28375Y-1603D01*
Y-2303D02*
X28172Y-1897D01*
X28578D01*
X28375Y-2303D01*
X24050Y-203D02*
X23847Y203D01*
X24253D01*
X24050Y-203D01*
X25409Y-844D02*
X25206Y-438D01*
X25612D01*
X25409Y-844D01*
X30025Y3722D02*
X29822Y4128D01*
X30228D01*
X30025Y3722D01*
X28850Y3772D02*
X28647Y4178D01*
X29053D01*
X28850Y3772D01*
X28175D02*
X27972Y4178D01*
X28378D01*
X28175Y3772D01*
X27500D02*
X27297Y4178D01*
X27703D01*
X27500Y3772D01*
X26825D02*
X26622Y4178D01*
X27028D01*
X26825Y3772D01*
X31250Y497D02*
X31047Y903D01*
X31453D01*
X31250Y497D01*
X40450Y-228D02*
X40247Y178D01*
X40653D01*
X40450Y-228D01*
X26050Y-3203D02*
X25847Y-2797D01*
X26253D01*
X26050Y-3203D01*
X22050Y2872D02*
X21847Y3278D01*
X22253D01*
X22050Y2872D01*
X32650Y-1603D02*
X32447Y-1197D01*
X32853D01*
X32650Y-1603D01*
X23550Y-3778D02*
X23347Y-3372D01*
X23753D01*
X23550Y-3778D01*
X45100Y-4703D02*
X44897Y-4297D01*
X45303D01*
X45100Y-4703D01*
X23000Y-2803D02*
X22797Y-2397D01*
X23203D01*
X23000Y-2803D01*
X15225Y-4903D02*
X15022Y-4497D01*
X15428D01*
X15225Y-4903D01*
X22425Y-453D02*
X22222Y-47D01*
X22628D01*
X22425Y-453D01*
X21725D02*
X21522Y-47D01*
X21928D01*
X21725Y-453D01*
X23000Y1847D02*
X22797Y2253D01*
X23203D01*
X23000Y1847D01*
X22500Y2347D02*
X22297Y2753D01*
X22703D01*
X22500Y2347D01*
X26400Y2122D02*
X26197Y2528D01*
X26603D01*
X26400Y2122D01*
X25100Y2097D02*
X24897Y2503D01*
X25303D01*
X25100Y2097D01*
X28625Y472D02*
X28422Y878D01*
X28828D01*
X28625Y472D01*
Y1122D02*
X28422Y1528D01*
X28828D01*
X28625Y1122D01*
X28375Y1947D02*
X28172Y2353D01*
X28578D01*
X28375Y1947D01*
X21050Y3372D02*
X20847Y3778D01*
X21253D01*
X21050Y3372D01*
X20475Y-1078D02*
X20272Y-672D01*
X20678D01*
X20475Y-1078D01*
X32650Y-903D02*
X32447Y-497D01*
X32853D01*
X32650Y-903D01*
X61025Y3647D02*
X60822Y4053D01*
X61228D01*
X61025Y3647D01*
X51700Y-3303D02*
X51497Y-2897D01*
X51903D01*
X51700Y-3303D01*
X47175Y-503D02*
X46972Y-97D01*
X47378D01*
X47175Y-503D01*
X44275Y-1078D02*
X44072Y-672D01*
X44478D01*
X44275Y-1078D01*
X34900Y-1578D02*
X34697Y-1172D01*
X35103D01*
X34900Y-1578D01*
X38000Y1722D02*
X37797Y2128D01*
X38203D01*
X38000Y1722D01*
X39400Y3722D02*
X39197Y4128D01*
X39603D01*
X39400Y3722D01*
X33175D02*
X32972Y4128D01*
X33378D01*
X33175Y3722D01*
X37550Y-2628D02*
X37347Y-2222D01*
X37753D01*
X37550Y-2628D01*
X33175Y2222D02*
X32972Y2628D01*
X33378D01*
X33175Y2222D01*
X46050Y747D02*
X45847Y1153D01*
X46253D01*
X46050Y747D01*
X3850Y-2678D02*
X3647Y-2272D01*
X4053D01*
X3850Y-2678D01*
X26675Y-3578D02*
X26472Y-3172D01*
X26878D01*
X26675Y-3578D01*
X30075D02*
X29872Y-3172D01*
X30278D01*
X30075Y-3578D01*
X33175Y-153D02*
X32972Y253D01*
X33378D01*
X33175Y-153D01*
X29100Y-3578D02*
X28897Y-3172D01*
X29303D01*
X29100Y-3578D01*
X49075Y3722D02*
X48872Y4128D01*
X49278D01*
X49075Y3722D01*
X44275Y-3303D02*
X44072Y-2897D01*
X44478D01*
X44275Y-3303D01*
X42900Y-3328D02*
X42697Y-2922D01*
X43103D01*
X42900Y-3328D01*
X83650Y-203D02*
X83752Y-102D01*
X83853D01*
X83752Y0D01*
X83853Y102D01*
X83752D01*
X83650Y203D01*
X83548Y102D01*
X83447D01*
X83548Y0D01*
X83447Y-102D01*
X83548D01*
X83650Y-203D01*
X71825Y-953D02*
X71622Y-547D01*
X72028D01*
X71825Y-953D01*
X63850Y4722D02*
X63647Y5128D01*
X64053D01*
X63850Y4722D01*
X62233Y-4453D02*
X62030Y-4047D01*
X62437D01*
X62233Y-4453D01*
X55625Y3722D02*
X55422Y4128D01*
X55828D01*
X55625Y3722D01*
X53892Y-4453D02*
X53688Y-4047D01*
X54095D01*
X53892Y-4453D01*
X48100Y772D02*
X47897Y1178D01*
X48303D01*
X48100Y772D01*
X42525Y3722D02*
X42322Y4128D01*
X42728D01*
X42525Y3722D01*
X45800D02*
X45597Y4128D01*
X46003D01*
X45800Y3722D01*
X36675Y-903D02*
X36472Y-497D01*
X36878D01*
X36675Y-903D01*
X36900Y397D02*
X36697Y803D01*
X37103D01*
X36900Y397D01*
X34900Y-153D02*
X34697Y253D01*
X35103D01*
X34900Y-153D01*
Y2222D02*
X34697Y2628D01*
X35103D01*
X34900Y2222D01*
X2225Y-453D02*
X2022Y-47D01*
X2428D01*
X2225Y-453D01*
X14550Y-1803D02*
X14347Y-1397D01*
X14753D01*
X14550Y-1803D01*
X14525Y-3478D02*
X14322Y-3072D01*
X14728D01*
X14525Y-3478D01*
X12325Y-1003D02*
X12122Y-597D01*
X12528D01*
X12325Y-1003D01*
X14800Y1472D02*
X14597Y1878D01*
X15003D01*
X14800Y1472D01*
X15875Y3597D02*
X15672Y4003D01*
X16078D01*
X15875Y3597D01*
X18075D02*
X17872Y4003D01*
X18278D01*
X18075Y3597D01*
X12350Y-3478D02*
X12147Y-3072D01*
X12553D01*
X12350Y-3478D01*
X8650Y-1478D02*
X8447Y-1072D01*
X8853D01*
X8650Y-1478D01*
X25475Y-3578D02*
X25272Y-3172D01*
X25678D01*
X25475Y-3578D01*
X21025Y1172D02*
X20822Y1578D01*
X21228D01*
X21025Y1172D01*
X22550Y3372D02*
X22347Y3778D01*
X22753D01*
X22550Y3372D01*
X22225Y-1703D02*
X22022Y-1297D01*
X22428D01*
X22225Y-1703D01*
X17100Y-3478D02*
X16897Y-3072D01*
X17303D01*
X17100Y-3478D01*
X34075Y997D02*
X33872Y1403D01*
X34278D01*
X34075Y997D01*
X16050Y-2453D02*
X15847Y-2047D01*
X16253D01*
X16050Y-2453D01*
X85050Y-203D02*
X85152Y-102D01*
X85253D01*
X85152Y0D01*
X85253Y102D01*
X85152D01*
X85050Y203D01*
X84948Y102D01*
X84847D01*
X84948Y0D01*
X84847Y-102D01*
X84948D01*
X85050Y-203D01*
X35375Y-2703D02*
X35172Y-2297D01*
X35578D01*
X35375Y-2703D01*
X19900Y247D02*
X19697Y653D01*
X20103D01*
X19900Y247D01*
Y1572D02*
X19697Y1978D01*
X20103D01*
X19900Y1572D01*
X12075Y3347D02*
X11872Y3753D01*
X12278D01*
X12075Y3347D01*
X64950Y392D02*
X65052Y493D01*
X65153D01*
X65052Y595D01*
X65153Y697D01*
X65052D01*
X64950Y798D01*
X64848Y697D01*
X64747D01*
X64848Y595D01*
X64747Y493D01*
X64848D01*
X64950Y392D01*
Y-878D02*
X65052Y-777D01*
X65153D01*
X65052Y-675D01*
X65153Y-573D01*
X65052D01*
X64950Y-472D01*
X64848Y-573D01*
X64747D01*
X64848Y-675D01*
X64747Y-777D01*
X64848D01*
X64950Y-878D01*
X63850Y-1523D02*
X63952Y-1422D01*
X64053D01*
X63952Y-1320D01*
X64053Y-1218D01*
X63952D01*
X63850Y-1117D01*
X63748Y-1218D01*
X63647D01*
X63748Y-1320D01*
X63647Y-1422D01*
X63748D01*
X63850Y-1523D01*
X64950Y-2148D02*
X65052Y-2047D01*
X65153D01*
X65052Y-1945D01*
X65153Y-1843D01*
X65052D01*
X64950Y-1742D01*
X64848Y-1843D01*
X64747D01*
X64848Y-1945D01*
X64747Y-2047D01*
X64848D01*
X64950Y-2148D01*
X63850Y-253D02*
X63952Y-152D01*
X64053D01*
X63952Y-50D01*
X64053Y52D01*
X63952D01*
X63850Y153D01*
X63748Y52D01*
X63647D01*
X63748Y-50D01*
X63647Y-152D01*
X63748D01*
X63850Y-253D01*
Y1017D02*
X63952Y1118D01*
X64053D01*
X63952Y1220D01*
X64053Y1322D01*
X63952D01*
X63850Y1423D01*
X63748Y1322D01*
X63647D01*
X63748Y1220D01*
X63647Y1118D01*
X63748D01*
X63850Y1017D01*
X18650Y2847D02*
X18447Y3253D01*
X18853D01*
X18650Y2847D01*
X20475Y3797D02*
X20272Y4203D01*
X20678D01*
X20475Y3797D01*
X8849Y4646D02*
X8646Y5053D01*
X9053D01*
X8849Y4646D01*
X9650Y3672D02*
X9447Y4078D01*
X9853D01*
X9650Y3672D01*
X7273Y2298D02*
Y2197D01*
X7477D01*
Y2298D01*
X7578D01*
Y2502D01*
X7477D01*
Y2603D01*
X7273D01*
Y2502D01*
X7172D01*
Y2298D01*
X7273D01*
Y-2502D02*
Y-2603D01*
X7477D01*
Y-2502D01*
X7578D01*
Y-2298D01*
X7477D01*
Y-2197D01*
X7273D01*
Y-2298D01*
X7172D01*
Y-2502D01*
X7273D01*
X17950Y-453D02*
X17747Y-47D01*
X18153D01*
X17950Y-453D01*
X5375Y547D02*
X5172Y953D01*
X5578D01*
X5375Y547D01*
Y-453D02*
X5172Y-47D01*
X5578D01*
X5375Y-453D01*
X67950Y4722D02*
X67747Y5128D01*
X68153D01*
X67950Y4722D01*
X7050Y3697D02*
X6847Y4103D01*
X7253D01*
X7050Y3697D01*
X72050Y4722D02*
X71847Y5128D01*
X72253D01*
X72050Y4722D01*
X65742Y-4453D02*
X65538Y-4047D01*
X65945D01*
X65742Y-4453D01*
X47500Y2472D02*
X47297Y2878D01*
X47703D01*
X47500Y2472D01*
X58725Y-4453D02*
X58522Y-4047D01*
X58928D01*
X58725Y-4453D01*
X10675Y-228D02*
X10472Y178D01*
X10878D01*
X10675Y-228D01*
X1550Y1547D02*
X1347Y1953D01*
X1753D01*
X1550Y1547D01*
X7050Y4822D02*
X6847Y5228D01*
X7253D01*
X7050Y4822D01*
X84350Y-2828D02*
X84452Y-2727D01*
X84553D01*
X84452Y-2625D01*
X84553Y-2523D01*
X84452D01*
X84350Y-2422D01*
X84248Y-2523D01*
X84147D01*
X84248Y-2625D01*
X84147Y-2727D01*
X84248D01*
X84350Y-2828D01*
X4375Y1797D02*
X4172Y2203D01*
X4578D01*
X4375Y1797D01*
X1550Y-2903D02*
X1347Y-2497D01*
X1753D01*
X1550Y-2903D01*
X64950Y1662D02*
X65052Y1763D01*
X65153D01*
X65052Y1865D01*
X65153Y1967D01*
X65052D01*
X64950Y2068D01*
X64848Y1967D01*
X64747D01*
X64848Y1865D01*
X64747Y1763D01*
X64848D01*
X64950Y1662D01*
X2225Y-1428D02*
X2022Y-1022D01*
X2428D01*
X2225Y-1428D01*
Y497D02*
X2022Y903D01*
X2428D01*
X2225Y497D01*
D104*
X5683Y-4320D02*
G03*
X5683Y-4320I-203J0D01*
G01*
Y4320D02*
G03*
X5683Y4320I-203J0D01*
G01*
M02*
