M48
;Layer_Color=9474304
;FILE_FORMAT=4:3
METRIC,LZ
;TYPE=PLATED
T01F00S00C0.305
T02F00S00C0.500
T04F00S00C0.762
%
T01
X000155Y-00027
X000385Y-0002475
X0007075Y-000365
X00076Y-00042
X0008225Y-00047
X0009075
X001005Y-000395
X0011025Y-0003275
X001235
Y-00047
X0015225
X0014525Y-0003275
X001455Y-00016
X001605Y-000225
X001805
Y-000335
X00171Y-0003275
X0018775Y-000465
X002055Y-00026
X002155Y-0003575
X002205Y-000315
X002255Y-0003575
X002355
X0023Y-00026
X002445Y-000275
X0025475Y-0003375
X002605Y-0003
X0026675Y-0003375
X0027525
X00291
X0030075
X0028375Y-00021
X002685Y-000175
X0032225Y-00021
X0033775
X0035375Y-00025
X003755Y-0002425
X0012325Y-00016
X000865Y-0003125
X00429
Y-0004175
X0041875Y-000425
X0044275Y-0004175
Y-00031
X004575
X00451Y-00045
X0046875Y-000425
X00482
X00489Y-00045
X0049625Y-000425
X0051708
X00517Y-00031
X0052875Y-0003625
X0053892Y-000425
X005565
X005705Y-00045
X0058725Y-000425
X0057775Y-0002425
X0055375Y-000265
X0054375Y-000185
X005Y-0002075
X0060525Y-00031
X0062233Y-000425
X0064225Y-00031
X0065742Y-000425
X006755Y-00031
X006925Y-000425
X0071825Y-000075
X007205Y0003075
Y0004925
X007
X006795
X00659
Y0003075
X006385
Y0004925
X0061025Y000385
X0059625
X0058475Y00033
X0059075Y0001075
X00586Y00002
X0059075Y-0000675
X005485Y000205
X0055625Y0003925
X00511
X0049075
X00475Y0002675
X00481Y0000975
X004605Y000095
X0047175Y-00003
X00495Y-0000025
X0051475
X005205Y-00009
X0044275Y-0000875
X0043525Y-0000425
X004155Y0
X004045Y-0000025
X004285Y000135
X0042525Y0003925
X00394
X00458
X0036575
X00349Y0002425
X0033175
Y0003925
X0030025
X0029675Y000325
X002915Y000275
X0029275Y00018
X0030025Y00021
X0030775
X003125Y00007
X0029325Y0000575
X0028625Y0000675
Y0001325
X0028375Y000215
X0028175Y0003975
X002885
X00275
X0026825
X00264Y0002325
X00258Y0001925
X00251Y00023
X002465Y0003525
X002395
X002255Y0003575
X002205Y0003075
X00225Y000255
X0023Y000205
X00237Y00019
X002405Y0
X0022425Y-000025
X0021725
X0022225Y-00015
X0020475Y-0000875
X00199Y000045
Y0001775
X0021025Y0001375
X002105Y0003575
X0020475Y0004
X0018075Y00038
X001865Y000305
X0015875Y00038
X00134Y00032
X0012075Y000355
X000965Y0003875
X0008849Y0004849
X0007675Y000445
X000705Y00039
Y0005025
X0003325Y0003225
X0004375Y0002
X0005375Y000075
Y-000025
X0002225
Y00007
X000155Y000175
X0002225Y-0001225
X000865Y-0001275
X0010675Y-0000025
X0012325Y-00008
X00148Y0001675
X001795Y-000025
Y-0000975
X0025409Y-0000641
X0026175Y-000135
X0028375Y-00014
X00295Y-0001125
X00291Y-000025
X003265Y-00007
Y-00014
X0033175Y000005
X00349
Y-0001375
X0036675Y-00007
X00369Y00006
X0038Y0001925
X0034075Y00012
T02
X0061625Y-00019
X006495Y-0001945
X008435Y-0002625
X008365Y0
X008505
Y00026
X00823
X00819Y0001
Y-000075
X00785Y0
Y0002625
X0074625Y00026
Y0001
Y-0000775
X006495Y-0000675
Y0000595
Y0001865
X006385Y000122
Y-000005
Y-000132
X0062625Y-000135
X0062625Y-000025
X0061625Y00003
X0061625Y-00008
T04
X0007375Y-00024
Y00024
M30
